M48
; DRILL file {KiCad 8.0.6} date 2024-11-05T07:22:50-0800
; FORMAT={-:-/ absolute / inch / decimal}
; #@! TF.CreationDate,2024-11-05T07:22:50-08:00
; #@! TF.GenerationSoftware,Kicad,Pcbnew,8.0.6
; #@! TF.FileFunction,Plated,1,2,PTH
FMAT,2
INCH
; #@! TA.AperFunction,Plated,PTH,ViaDrill
T1C0.0157
; #@! TA.AperFunction,Plated,PTH,ComponentDrill
T2C0.0295
; #@! TA.AperFunction,Plated,PTH,ComponentDrill
T3C0.0394
; #@! TA.AperFunction,Plated,PTH,ComponentDrill
T4C0.2087
%
G90
G05
T1
X5.3031Y-4.689
X5.4843Y-5.3425
X5.7126Y-2.9252
X6.2165Y-4.9685
X6.248Y-5.5866
X6.7283Y-3.1496
X6.9094Y-4.1181
X7.1299Y-5.4094
X7.2913Y-5.0591
X7.3661Y-3.248
X7.4449Y-3.9291
X7.4528Y-2.9331
X7.6535Y-3.8346
X7.8346Y-2.5591
X7.8346Y-4.0315
X7.8583Y-4.9646
T2
X7.8346Y-2.4331
X7.9134Y-2.4331
T3
X4.4335Y-2.2341
X4.4335Y-2.4309
X4.4335Y-3.6309
X4.4335Y-3.8278
X4.5335Y-2.2341
X4.5335Y-2.4309
X4.5335Y-3.6309
X4.5335Y-3.8278
X4.6335Y-2.2341
X4.6335Y-2.4309
X4.6335Y-3.6309
X4.6335Y-3.8278
X4.6337Y-2.7651
X4.6337Y-2.8651
X4.7335Y-2.2341
X4.7335Y-2.4309
X4.7335Y-3.6309
X4.7335Y-3.8278
X4.8335Y-2.2341
X4.8335Y-2.4309
X4.8335Y-3.6309
X4.8335Y-3.8278
X4.9335Y-2.2341
X4.9335Y-2.4309
X4.9335Y-3.6309
X4.9335Y-3.8278
X4.9606Y-4.2638
X4.9606Y-4.3638
X4.9606Y-4.4638
X4.9606Y-4.5638
X4.9606Y-4.6638
X4.9606Y-4.7638
X5.0335Y-2.2341
X5.0335Y-2.4309
X5.0335Y-3.6309
X5.0335Y-3.8278
X5.1335Y-2.2341
X5.1335Y-2.4309
X5.1335Y-3.6309
X5.1335Y-3.8278
X5.2335Y-2.2341
X5.2335Y-2.4309
X5.2335Y-3.6309
X5.2335Y-3.8278
X5.3335Y-2.2341
X5.3335Y-2.4309
X5.3335Y-3.6309
X5.3335Y-3.8278
X5.4335Y-2.2341
X5.4335Y-2.4309
X5.4335Y-3.6309
X5.4335Y-3.8278
X5.5335Y-2.2341
X5.5335Y-2.4309
X5.5335Y-3.6309
X5.5335Y-3.8278
X5.6335Y-2.2341
X5.6335Y-2.4309
X5.6335Y-3.6309
X5.6335Y-3.8278
X5.7335Y-2.2341
X5.7335Y-2.4309
X5.7335Y-3.6309
X5.7335Y-3.8278
X5.8335Y-2.2341
X5.8335Y-2.4309
X5.8335Y-3.6309
X5.8335Y-3.8278
X5.9335Y-2.2341
X5.9335Y-2.4309
X5.9335Y-3.6309
X5.9335Y-3.8278
X6.0335Y-2.2341
X6.0335Y-2.4309
X6.0335Y-3.6309
X6.0335Y-3.8278
X6.1335Y-2.2341
X6.1335Y-2.4309
X6.1335Y-3.6309
X6.1335Y-3.8278
X6.2335Y-2.2341
X6.2335Y-2.4309
X6.2335Y-3.6309
X6.2335Y-3.8278
X6.3335Y-2.2341
X6.3335Y-2.4309
X6.3335Y-3.6309
X6.3335Y-3.8278
X6.8244Y-2.4309
X6.9244Y-2.4309
X7.0244Y-2.4309
X7.1244Y-2.4309
X7.2244Y-2.4309
X7.3244Y-2.4309
X7.4244Y-2.4309
X8.1102Y-2.411
X8.1102Y-2.511
X8.1102Y-2.611
X8.1102Y-2.711
X8.1102Y-2.811
X8.1102Y-2.911
X8.1102Y-3.011
X8.1102Y-3.111
X8.1102Y-3.211
X8.1102Y-3.311
X8.1102Y-3.411
X8.1102Y-3.511
X8.1102Y-3.611
X8.1102Y-3.711
T4
X4.7244Y-5.9449
X6.7992Y-3.5315
X7.7953Y-5.9449
M30
