%TF.GenerationSoftware,KiCad,Pcbnew,8.0.6*%
%TF.CreationDate,2024-11-05T07:22:12-08:00*%
%TF.ProjectId,Final_Project_PCB,46696e61-6c5f-4507-926f-6a6563745f50,1.0*%
%TF.SameCoordinates,Original*%
%TF.FileFunction,Copper,L2,Bot*%
%TF.FilePolarity,Positive*%
%FSLAX46Y46*%
G04 Gerber Fmt 4.6, Leading zero omitted, Abs format (unit mm)*
G04 Created by KiCad (PCBNEW 8.0.6) date 2024-11-05 07:22:12*
%MOMM*%
%LPD*%
G01*
G04 APERTURE LIST*
G04 Aperture macros list*
%AMRoundRect*
0 Rectangle with rounded corners*
0 $1 Rounding radius*
0 $2 $3 $4 $5 $6 $7 $8 $9 X,Y pos of 4 corners*
0 Add a 4 corners polygon primitive as box body*
4,1,4,$2,$3,$4,$5,$6,$7,$8,$9,$2,$3,0*
0 Add four circle primitives for the rounded corners*
1,1,$1+$1,$2,$3*
1,1,$1+$1,$4,$5*
1,1,$1+$1,$6,$7*
1,1,$1+$1,$8,$9*
0 Add four rect primitives between the rounded corners*
20,1,$1+$1,$2,$3,$4,$5,0*
20,1,$1+$1,$4,$5,$6,$7,0*
20,1,$1+$1,$6,$7,$8,$9,0*
20,1,$1+$1,$8,$9,$2,$3,0*%
G04 Aperture macros list end*
%TA.AperFunction,ComponentPad*%
%ADD10C,5.700000*%
%TD*%
%TA.AperFunction,ConnectorPad*%
%ADD11C,9.500000*%
%TD*%
%TA.AperFunction,ComponentPad*%
%ADD12R,1.700000X1.700000*%
%TD*%
%TA.AperFunction,ComponentPad*%
%ADD13O,1.700000X1.700000*%
%TD*%
%TA.AperFunction,ComponentPad*%
%ADD14RoundRect,0.250000X0.350000X0.625000X-0.350000X0.625000X-0.350000X-0.625000X0.350000X-0.625000X0*%
%TD*%
%TA.AperFunction,ComponentPad*%
%ADD15O,1.200000X1.750000*%
%TD*%
%TA.AperFunction,ViaPad*%
%ADD16C,0.800000*%
%TD*%
%TA.AperFunction,Conductor*%
%ADD17C,0.500000*%
%TD*%
G04 APERTURE END LIST*
D10*
%TO.P,MNT2,1*%
%TO.N,N/C*%
X198000000Y-151000000D03*
D11*
X198000000Y-151000000D03*
%TD*%
D10*
%TO.P,MNT3,1*%
%TO.N,N/C*%
X120000000Y-151000000D03*
D11*
X120000000Y-151000000D03*
%TD*%
D12*
%TO.P,LCD1,1,Pin_1*%
%TO.N,/+*%
X206000000Y-94260000D03*
D13*
%TO.P,LCD1,2,Pin_2*%
%TO.N,GND*%
X206000000Y-91720000D03*
%TO.P,LCD1,3,Pin_3*%
%TO.N,/IO34*%
X206000000Y-89180000D03*
%TO.P,LCD1,4,Pin_4*%
%TO.N,/IO33*%
X206000000Y-86640000D03*
%TO.P,LCD1,5,Pin_5*%
%TO.N,/IO47*%
X206000000Y-84100000D03*
%TO.P,LCD1,6,Pin_6*%
%TO.N,/IO37*%
X206000000Y-81560000D03*
%TO.P,LCD1,7,Pin_7*%
%TO.N,/IO36*%
X206000000Y-79020000D03*
%TO.P,LCD1,8,Pin_8*%
%TO.N,/IO41*%
X206000000Y-76480000D03*
%TO.P,LCD1,9,Pin_9*%
%TO.N,/IO35*%
X206000000Y-73940000D03*
%TO.P,LCD1,10,Pin_10*%
%TO.N,/IO42*%
X206000000Y-71400000D03*
%TO.P,LCD1,11,Pin_11*%
%TO.N,/IO43*%
X206000000Y-68860000D03*
%TO.P,LCD1,12,Pin_12*%
%TO.N,/IO44*%
X206000000Y-66320000D03*
%TO.P,LCD1,13,Pin_13*%
%TO.N,/IO45*%
X206000000Y-63780000D03*
%TO.P,LCD1,14,Pin_14*%
%TO.N,/IO46*%
X206000000Y-61240000D03*
%TD*%
D10*
%TO.P,MNT1,1*%
%TO.N,N/C*%
X172700000Y-89700000D03*
D11*
X172700000Y-89700000D03*
%TD*%
D13*
%TO.P,01-GND_Breakout1,1,Pin_1*%
%TO.N,/Top*%
X160870800Y-97225500D03*
%TO.P,01-GND_Breakout1,2,Pin_2*%
%TO.N,/Select*%
X158330800Y-97225500D03*
%TO.P,01-GND_Breakout1,3,Pin_3*%
%TO.N,/Bottom*%
X155790800Y-97225500D03*
%TO.P,01-GND_Breakout1,4,Pin_4*%
%TO.N,/A1*%
X153250800Y-97225500D03*
%TO.P,01-GND_Breakout1,5,Pin_5*%
%TO.N,/A2*%
X150710800Y-97225500D03*
%TO.P,01-GND_Breakout1,6,Pin_6*%
%TO.N,/A3*%
X148170800Y-97225500D03*
%TO.P,01-GND_Breakout1,7,Pin_7*%
%TO.N,/A5*%
X145630800Y-97225500D03*
%TO.P,01-GND_Breakout1,8,Pin_8*%
%TO.N,Net-(01-GND_Breakout1-Pin_8)*%
X143090800Y-97225500D03*
%TO.P,01-GND_Breakout1,9,Pin_9*%
%TO.N,Net-(01-GND_Breakout1-Pin_9)*%
X140550800Y-97225500D03*
%TO.P,01-GND_Breakout1,10,Pin_10*%
%TO.N,/SD1*%
X138010800Y-97225500D03*
%TO.P,01-GND_Breakout1,11,Pin_11*%
%TO.N,/SD2*%
X135470800Y-97225500D03*
%TO.P,01-GND_Breakout1,12,Pin_12*%
%TO.N,/SD3*%
X132930800Y-97225500D03*
%TO.P,01-GND_Breakout1,13,Pin_13*%
%TO.N,/SD4*%
X130390800Y-97225500D03*
%TO.P,01-GND_Breakout1,14,Pin_14*%
%TO.N,/D-Pad_Right*%
X127850800Y-97225500D03*
%TO.P,01-GND_Breakout1,15,Pin_15*%
%TO.N,/D-Pad_Down*%
X125310800Y-97225500D03*
%TO.P,01-GND_Breakout1,16,Pin_16*%
%TO.N,/D-Pad_Up*%
X122770800Y-97225500D03*
%TO.P,01-GND_Breakout1,17,Pin_17*%
%TO.N,/D-Pad_Left*%
X120230800Y-97225500D03*
%TO.P,01-GND_Breakout1,18,Pin_18*%
%TO.N,Net-(01-GND_Breakout1-Pin_18)*%
X117690800Y-97225500D03*
%TO.P,01-GND_Breakout1,19,Pin_19*%
%TO.N,/Vin(3.3)*%
X115150800Y-97225500D03*
D12*
%TO.P,01-GND_Breakout1,20,Pin_20*%
%TO.N,GND*%
X112610800Y-97225500D03*
%TD*%
D13*
%TO.P,Amplifier1,1,Pin_1*%
%TO.N,/A1*%
X188580000Y-61745500D03*
%TO.P,Amplifier1,2,Pin_2*%
%TO.N,/A2*%
X186040000Y-61745500D03*
%TO.P,Amplifier1,3,Pin_3*%
%TO.N,/A3*%
X183500000Y-61745500D03*
%TO.P,Amplifier1,4,Pin_4*%
%TO.N,Net-(Amplifier1-Pin_4)*%
X180960000Y-61745500D03*
%TO.P,Amplifier1,5,Pin_5*%
%TO.N,/A5*%
X178420000Y-61745500D03*
D12*
%TO.P,Amplifier1,6,Pin_6*%
%TO.N,GND*%
X175880000Y-61745500D03*
D13*
%TO.P,Amplifier1,7,Pin_7*%
%TO.N,/+*%
X173340000Y-61745500D03*
%TD*%
D14*
%TO.P,JSTBattery1,1,Pin_1*%
%TO.N,GND*%
X201000000Y-61800000D03*
D15*
%TO.P,JSTBattery1,2,Pin_2*%
%TO.N,Net-(JSTBattery1-Pin_2)*%
X199000000Y-61800000D03*
%TD*%
D13*
%TO.P,SDAdaptor1,1,Pin_1*%
%TO.N,/Vin(3.3)*%
X126000000Y-121000000D03*
%TO.P,SDAdaptor1,2,Pin_2*%
%TO.N,/SD1*%
X126000000Y-118460000D03*
%TO.P,SDAdaptor1,3,Pin_3*%
%TO.N,/SD2*%
X126000000Y-115920000D03*
%TO.P,SDAdaptor1,4,Pin_4*%
%TO.N,/SD3*%
X126000000Y-113380000D03*
%TO.P,SDAdaptor1,5,Pin_5*%
%TO.N,/SD4*%
X126000000Y-110840000D03*
D12*
%TO.P,SDAdaptor1,6,Pin_6*%
%TO.N,GND*%
X126000000Y-108300000D03*
%TD*%
D13*
%TO.P,DevBoardI01-GND1,1,Pin_1*%
%TO.N,/Top*%
X160870800Y-92225500D03*
%TO.P,DevBoardI01-GND1,2,Pin_2*%
%TO.N,/Select*%
X158330800Y-92225500D03*
%TO.P,DevBoardI01-GND1,3,Pin_3*%
%TO.N,/Bottom*%
X155790800Y-92225500D03*
%TO.P,DevBoardI01-GND1,4,Pin_4*%
%TO.N,/A1*%
X153250800Y-92225500D03*
%TO.P,DevBoardI01-GND1,5,Pin_5*%
%TO.N,/A2*%
X150710800Y-92225500D03*
%TO.P,DevBoardI01-GND1,6,Pin_6*%
%TO.N,/A3*%
X148170800Y-92225500D03*
%TO.P,DevBoardI01-GND1,7,Pin_7*%
%TO.N,/A5*%
X145630800Y-92225500D03*
%TO.P,DevBoardI01-GND1,8,Pin_8*%
%TO.N,Net-(01-GND_Breakout1-Pin_8)*%
X143090800Y-92225500D03*
%TO.P,DevBoardI01-GND1,9,Pin_9*%
%TO.N,Net-(01-GND_Breakout1-Pin_9)*%
X140550800Y-92225500D03*
%TO.P,DevBoardI01-GND1,10,Pin_10*%
%TO.N,/SD1*%
X138010800Y-92225500D03*
%TO.P,DevBoardI01-GND1,11,Pin_11*%
%TO.N,/SD2*%
X135470800Y-92225500D03*
%TO.P,DevBoardI01-GND1,12,Pin_12*%
%TO.N,/SD3*%
X132930800Y-92225500D03*
%TO.P,DevBoardI01-GND1,13,Pin_13*%
%TO.N,/SD4*%
X130390800Y-92225500D03*
%TO.P,DevBoardI01-GND1,14,Pin_14*%
%TO.N,/D-Pad_Right*%
X127850800Y-92225500D03*
%TO.P,DevBoardI01-GND1,15,Pin_15*%
%TO.N,/D-Pad_Down*%
X125310800Y-92225500D03*
%TO.P,DevBoardI01-GND1,16,Pin_16*%
%TO.N,/D-Pad_Up*%
X122770800Y-92225500D03*
%TO.P,DevBoardI01-GND1,17,Pin_17*%
%TO.N,/D-Pad_Left*%
X120230800Y-92225500D03*
%TO.P,DevBoardI01-GND1,18,Pin_18*%
%TO.N,Net-(01-GND_Breakout1-Pin_18)*%
X117690800Y-92225500D03*
%TO.P,DevBoardI01-GND1,19,Pin_19*%
%TO.N,/Vin(3.3)*%
X115150800Y-92225500D03*
D12*
%TO.P,DevBoardI01-GND1,20,Pin_20*%
%TO.N,GND*%
X112610800Y-92225500D03*
%TD*%
D13*
%TO.P,46-GND_Breakout1,1,Pin_1*%
%TO.N,/IO46*%
X160870800Y-56745500D03*
%TO.P,46-GND_Breakout1,2,Pin_2*%
%TO.N,/IO45*%
X158330800Y-56745500D03*
%TO.P,46-GND_Breakout1,3,Pin_3*%
%TO.N,/IO44*%
X155790800Y-56745500D03*
%TO.P,46-GND_Breakout1,4,Pin_4*%
%TO.N,/IO43*%
X153250800Y-56745500D03*
%TO.P,46-GND_Breakout1,5,Pin_5*%
%TO.N,/IO42*%
X150710800Y-56745500D03*
%TO.P,46-GND_Breakout1,6,Pin_6*%
%TO.N,/IO41*%
X148170800Y-56745500D03*
%TO.P,46-GND_Breakout1,7,Pin_7*%
%TO.N,/IO40*%
X145630800Y-56745500D03*
%TO.P,46-GND_Breakout1,8,Pin_8*%
%TO.N,/IO39*%
X143090800Y-56745500D03*
%TO.P,46-GND_Breakout1,9,Pin_9*%
%TO.N,/IO38*%
X140550800Y-56745500D03*
%TO.P,46-GND_Breakout1,10,Pin_10*%
%TO.N,/IO37*%
X138010800Y-56745500D03*
%TO.P,46-GND_Breakout1,11,Pin_11*%
%TO.N,/IO36*%
X135470800Y-56745500D03*
%TO.P,46-GND_Breakout1,12,Pin_12*%
%TO.N,/IO35*%
X132930800Y-56745500D03*
%TO.P,46-GND_Breakout1,13,Pin_13*%
%TO.N,/IO48*%
X130390800Y-56745500D03*
%TO.P,46-GND_Breakout1,14,Pin_14*%
%TO.N,/IO34*%
X127850800Y-56745500D03*
%TO.P,46-GND_Breakout1,15,Pin_15*%
%TO.N,/IO33*%
X125310800Y-56745500D03*
%TO.P,46-GND_Breakout1,16,Pin_16*%
%TO.N,/IO47*%
X122770800Y-56745500D03*
%TO.P,46-GND_Breakout1,17,Pin_17*%
%TO.N,/IO26*%
X120230800Y-56745500D03*
%TO.P,46-GND_Breakout1,18,Pin_18*%
%TO.N,/IO21*%
X117690800Y-56745500D03*
%TO.P,46-GND_Breakout1,19,Pin_19*%
%TO.N,/Vin(5)*%
X115150800Y-56745500D03*
D12*
%TO.P,46-GND_Breakout1,20,Pin_20*%
%TO.N,GND*%
X112610800Y-56745500D03*
%TD*%
%TO.P,BatToBoard1,1,Pin_1*%
%TO.N,GND*%
X117696598Y-72774478D03*
D13*
%TO.P,BatToBoard1,2,Pin_2*%
%TO.N,/+*%
X117696598Y-70234478D03*
%TD*%
%TO.P,DevBoardIO46-GND1,1,Pin_1*%
%TO.N,/IO46*%
X160870800Y-61745500D03*
%TO.P,DevBoardIO46-GND1,2,Pin_2*%
%TO.N,/IO45*%
X158330800Y-61745500D03*
%TO.P,DevBoardIO46-GND1,3,Pin_3*%
%TO.N,/IO44*%
X155790800Y-61745500D03*
%TO.P,DevBoardIO46-GND1,4,Pin_4*%
%TO.N,/IO43*%
X153250800Y-61745500D03*
%TO.P,DevBoardIO46-GND1,5,Pin_5*%
%TO.N,/IO42*%
X150710800Y-61745500D03*
%TO.P,DevBoardIO46-GND1,6,Pin_6*%
%TO.N,/IO41*%
X148170800Y-61745500D03*
%TO.P,DevBoardIO46-GND1,7,Pin_7*%
%TO.N,/IO40*%
X145630800Y-61745500D03*
%TO.P,DevBoardIO46-GND1,8,Pin_8*%
%TO.N,/IO39*%
X143090800Y-61745500D03*
%TO.P,DevBoardIO46-GND1,9,Pin_9*%
%TO.N,/IO38*%
X140550800Y-61745500D03*
%TO.P,DevBoardIO46-GND1,10,Pin_10*%
%TO.N,/IO37*%
X138010800Y-61745500D03*
%TO.P,DevBoardIO46-GND1,11,Pin_11*%
%TO.N,/IO36*%
X135470800Y-61745500D03*
%TO.P,DevBoardIO46-GND1,12,Pin_12*%
%TO.N,/IO35*%
X132930800Y-61745500D03*
%TO.P,DevBoardIO46-GND1,13,Pin_13*%
%TO.N,/IO48*%
X130390800Y-61745500D03*
%TO.P,DevBoardIO46-GND1,14,Pin_14*%
%TO.N,/IO34*%
X127850800Y-61745500D03*
%TO.P,DevBoardIO46-GND1,15,Pin_15*%
%TO.N,/IO33*%
X125310800Y-61745500D03*
%TO.P,DevBoardIO46-GND1,16,Pin_16*%
%TO.N,/IO47*%
X122770800Y-61745500D03*
%TO.P,DevBoardIO46-GND1,17,Pin_17*%
%TO.N,/IO26*%
X120230800Y-61745500D03*
%TO.P,DevBoardIO46-GND1,18,Pin_18*%
%TO.N,/IO21*%
X117690800Y-61745500D03*
%TO.P,DevBoardIO46-GND1,19,Pin_19*%
%TO.N,/Vin(5)*%
X115150800Y-61745500D03*
D12*
%TO.P,DevBoardIO46-GND1,20,Pin_20*%
%TO.N,GND*%
X112610800Y-61745500D03*
%TD*%
D16*
%TO.N,GND*%
X185200000Y-128500000D03*
X139300000Y-135700000D03*
X157900000Y-126200000D03*
X175500000Y-104600000D03*
X158700000Y-141900000D03*
X189300000Y-74500000D03*
X189100000Y-99800000D03*
X181100000Y-137400000D03*
X134700000Y-119100000D03*
%TO.N,/+*%
X199600000Y-126100000D03*
X194400000Y-97400000D03*
%TO.N,Net-(JSTBattery1-Pin_2)*%
X199000000Y-65000000D03*
X199000000Y-102400000D03*
%TO.N,/IO34*%
X170900000Y-80000000D03*
X145100000Y-74300000D03*
X187100000Y-82500000D03*
%TD*%
D17*
%TO.N,/A3*%
X183454500Y-61745500D02*
X174300000Y-70900000D01*
X183500000Y-61745500D02*
X183454500Y-61745500D01*
X148170800Y-97225500D02*
X148170800Y-92225500D01*
X174300000Y-70900000D02*
X169600000Y-70900000D01*
X169600000Y-70900000D02*
X148274500Y-92225500D01*
X148274500Y-92225500D02*
X148170800Y-92225500D01*
%TO.N,/A2*%
X186040000Y-61745500D02*
X174585500Y-73200000D01*
X169736300Y-73200000D02*
X150710800Y-92225500D01*
X150710800Y-97225500D02*
X150710800Y-92225500D01*
X174585500Y-73200000D02*
X169736300Y-73200000D01*
%TO.N,/A5*%
X171265500Y-68900000D02*
X168956300Y-68900000D01*
X145630800Y-97225500D02*
X145630800Y-92225500D01*
X168956300Y-68900000D02*
X145630800Y-92225500D01*
X178420000Y-61745500D02*
X171265500Y-68900000D01*
%TO.N,/A1*%
X170176300Y-75300000D02*
X153250800Y-92225500D01*
X188580000Y-61745500D02*
X175025500Y-75300000D01*
X175025500Y-75300000D02*
X170176300Y-75300000D01*
X153250800Y-97225500D02*
X153250800Y-92225500D01*
%TO.N,/Vin(3.3)*%
X115150800Y-92225500D02*
X115150800Y-97225500D01*
X126000000Y-121000000D02*
X115150800Y-110150800D01*
X115150800Y-110150800D02*
X115150800Y-97225500D01*
%TO.N,/SD4*%
X126000000Y-110840000D02*
X130390800Y-106449200D01*
X130390800Y-97225500D02*
X130390800Y-92225500D01*
X130390800Y-106449200D02*
X130390800Y-97225500D01*
%TO.N,/Select*%
X158330800Y-92225500D02*
X158330800Y-97225500D01*
%TO.N,/Bottom*%
X155790800Y-92225500D02*
X155790800Y-97225500D01*
%TO.N,/SD3*%
X132930800Y-106449200D02*
X132930800Y-97225500D01*
X132930800Y-97225500D02*
X132930800Y-92225500D01*
X126000000Y-113380000D02*
X132930800Y-106449200D01*
%TO.N,/SD2*%
X135470800Y-97225500D02*
X135470800Y-92225500D01*
X126000000Y-115920000D02*
X135470800Y-106449200D01*
X135470800Y-106449200D02*
X135470800Y-97225500D01*
%TO.N,/SD1*%
X138010800Y-97225500D02*
X138010800Y-92225500D01*
X126000000Y-118460000D02*
X138010800Y-106449200D01*
X138010800Y-106449200D02*
X138010800Y-97225500D01*
%TO.N,/Vin(5)*%
X115150800Y-56745500D02*
X115150800Y-61745500D01*
%TO.N,/+*%
X191700000Y-55400000D02*
X191700000Y-55200000D01*
X194400000Y-120900000D02*
X194400000Y-97400000D01*
X191700000Y-55200000D02*
X174800000Y-55200000D01*
X173340000Y-56660000D02*
X173340000Y-61745500D01*
X156685500Y-78400000D02*
X125862120Y-78400000D01*
X125862120Y-78400000D02*
X117696598Y-70234478D01*
X174800000Y-55200000D02*
X173340000Y-56660000D01*
X194400000Y-97400000D02*
X194400000Y-58100000D01*
X199600000Y-126100000D02*
X194400000Y-120900000D01*
X194400000Y-58100000D02*
X191700000Y-55400000D01*
X173340000Y-61745500D02*
X156685500Y-78400000D01*
%TO.N,/Top*%
X160870800Y-92225500D02*
X160870800Y-97225500D01*
%TO.N,Net-(01-GND_Breakout1-Pin_9)*%
X140550800Y-97225500D02*
X140550800Y-92225500D01*
%TO.N,Net-(JSTBattery1-Pin_2)*%
X199000000Y-65000000D02*
X199000000Y-102400000D01*
%TO.N,Net-(01-GND_Breakout1-Pin_8)*%
X143090800Y-92225500D02*
X143090800Y-97225500D01*
%TO.N,Net-(01-GND_Breakout1-Pin_18)*%
X117690800Y-92225500D02*
X117690800Y-97225500D01*
%TO.N,/IO37*%
X204700000Y-60800000D02*
X198400000Y-54500000D01*
X198400000Y-54500000D02*
X140256300Y-54500000D01*
X138010800Y-56745500D02*
X138010800Y-61745500D01*
X206000000Y-81560000D02*
X204700000Y-80260000D01*
X140256300Y-54500000D02*
X138010800Y-56745500D01*
X204700000Y-80260000D02*
X204700000Y-60800000D01*
%TO.N,/IO35*%
X132930800Y-56745500D02*
X132930800Y-61745500D01*
%TO.N,/IO41*%
X148170800Y-56745500D02*
X148170800Y-61745500D01*
%TO.N,/IO38*%
X140550800Y-56745500D02*
X140550800Y-61745500D01*
%TO.N,/IO33*%
X200398478Y-53800000D02*
X128256300Y-53800000D01*
X128256300Y-53800000D02*
X125310800Y-56745500D01*
X125310800Y-56745500D02*
X125310800Y-61745500D01*
X206000000Y-86640000D02*
X207300000Y-85340000D01*
X207300000Y-85340000D02*
X207300000Y-60701522D01*
X207300000Y-60701522D02*
X200398478Y-53800000D01*
%TO.N,/IO45*%
X158330800Y-56745500D02*
X158330800Y-61745500D01*
%TO.N,/IO36*%
X135470800Y-56745500D02*
X135470800Y-61745500D01*
%TO.N,/IO42*%
X150710800Y-56745500D02*
X150710800Y-61745500D01*
%TO.N,/IO47*%
X122770800Y-56745500D02*
X122770800Y-61745500D01*
%TO.N,/IO34*%
X187100000Y-82500000D02*
X173400000Y-82500000D01*
X173400000Y-82500000D02*
X170900000Y-80000000D01*
X127850800Y-56745500D02*
X127850800Y-61745500D01*
X145100000Y-74300000D02*
X140405300Y-74300000D01*
X140405300Y-74300000D02*
X127850800Y-61745500D01*
%TO.N,/IO40*%
X145630800Y-56745500D02*
X145630800Y-61745500D01*
%TO.N,/IO46*%
X160870800Y-56745500D02*
X160870800Y-61745500D01*
%TO.N,/IO48*%
X130390800Y-56745500D02*
X130390800Y-61745500D01*
%TO.N,/IO21*%
X117690800Y-56745500D02*
X117690800Y-61745500D01*
%TO.N,/IO39*%
X143090800Y-56745500D02*
X143090800Y-61745500D01*
%TO.N,/IO26*%
X120230800Y-56745500D02*
X120230800Y-61745500D01*
%TO.N,/D-Pad_Up*%
X122770800Y-92225500D02*
X122770800Y-97225500D01*
%TO.N,/D-Pad_Left*%
X120230800Y-92225500D02*
X120230800Y-97225500D01*
%TO.N,/D-Pad_Right*%
X127850800Y-92225500D02*
X127850800Y-97225500D01*
%TO.N,/D-Pad_Down*%
X125310800Y-92225500D02*
X125310800Y-97225500D01*
%TO.N,/IO43*%
X153250800Y-56745500D02*
X153250800Y-61745500D01*
%TO.N,/IO44*%
X155790800Y-56745500D02*
X155790800Y-61745500D01*
%TD*%
%TA.AperFunction,Conductor*%
%TO.N,GND*%
G36*
X203000641Y-50000006D02*
G01*
X203213481Y-50002328D01*
X203222915Y-50002792D01*
X203647552Y-50039943D01*
X203658270Y-50041354D01*
X204077393Y-50115256D01*
X204087921Y-50117590D01*
X204499033Y-50227747D01*
X204509322Y-50230992D01*
X204909255Y-50376555D01*
X204919221Y-50380683D01*
X205304942Y-50560547D01*
X205314528Y-50565538D01*
X205683088Y-50778326D01*
X205692207Y-50784135D01*
X206040820Y-51028237D01*
X206049402Y-51034822D01*
X206375420Y-51308383D01*
X206383395Y-51315692D01*
X206684307Y-51616604D01*
X206691616Y-51624579D01*
X206965177Y-51950597D01*
X206971762Y-51959179D01*
X207215864Y-52307792D01*
X207221676Y-52316916D01*
X207434459Y-52685467D01*
X207439454Y-52695062D01*
X207618180Y-53078342D01*
X207619310Y-53080764D01*
X207623448Y-53090756D01*
X207669416Y-53217050D01*
X207769003Y-53490664D01*
X207772256Y-53500980D01*
X207882405Y-53912061D01*
X207884746Y-53922623D01*
X207958644Y-54341725D01*
X207960056Y-54352450D01*
X207997206Y-54777073D01*
X207997671Y-54786527D01*
X207999993Y-54999357D01*
X208000000Y-55000710D01*
X208000000Y-60040791D01*
X207980315Y-60107830D01*
X207927511Y-60153585D01*
X207858353Y-60163529D01*
X207794797Y-60134504D01*
X207788319Y-60128472D01*
X200876899Y-53217052D01*
X200876892Y-53217046D01*
X200803207Y-53167812D01*
X200803207Y-53167813D01*
X200753969Y-53134913D01*
X200617395Y-53078343D01*
X200617385Y-53078340D01*
X200472398Y-53049500D01*
X200472396Y-53049500D01*
X128182382Y-53049500D01*
X128182380Y-53049500D01*
X128037392Y-53078340D01*
X128037386Y-53078342D01*
X127900808Y-53134914D01*
X127900796Y-53134921D01*
X127851569Y-53167813D01*
X127777888Y-53217044D01*
X127777880Y-53217050D01*
X125622300Y-55372630D01*
X125560977Y-55406115D01*
X125523812Y-55408477D01*
X125310802Y-55389841D01*
X125310799Y-55389841D01*
X125075396Y-55410436D01*
X125075386Y-55410438D01*
X124847144Y-55471594D01*
X124847135Y-55471598D01*
X124632971Y-55571464D01*
X124632969Y-55571465D01*
X124439397Y-55707005D01*
X124272305Y-55874097D01*
X124142375Y-56059658D01*
X124087798Y-56103283D01*
X124018300Y-56110477D01*
X123955945Y-56078954D01*
X123939225Y-56059658D01*
X123809294Y-55874097D01*
X123642202Y-55707006D01*
X123642195Y-55707001D01*
X123448634Y-55571467D01*
X123448630Y-55571465D01*
X123377527Y-55538309D01*
X123234463Y-55471597D01*
X123234459Y-55471596D01*
X123234455Y-55471594D01*
X123006213Y-55410438D01*
X123006203Y-55410436D01*
X122770801Y-55389841D01*
X122770799Y-55389841D01*
X122535396Y-55410436D01*
X122535386Y-55410438D01*
X122307144Y-55471594D01*
X122307135Y-55471598D01*
X122092971Y-55571464D01*
X122092969Y-55571465D01*
X121899397Y-55707005D01*
X121732305Y-55874097D01*
X121602375Y-56059658D01*
X121547798Y-56103283D01*
X121478300Y-56110477D01*
X121415945Y-56078954D01*
X121399225Y-56059658D01*
X121269294Y-55874097D01*
X121102202Y-55707006D01*
X121102195Y-55707001D01*
X120908634Y-55571467D01*
X120908630Y-55571465D01*
X120837527Y-55538309D01*
X120694463Y-55471597D01*
X120694459Y-55471596D01*
X120694455Y-55471594D01*
X120466213Y-55410438D01*
X120466203Y-55410436D01*
X120230801Y-55389841D01*
X120230799Y-55389841D01*
X119995396Y-55410436D01*
X119995386Y-55410438D01*
X119767144Y-55471594D01*
X119767135Y-55471598D01*
X119552971Y-55571464D01*
X119552969Y-55571465D01*
X119359397Y-55707005D01*
X119192305Y-55874097D01*
X119062375Y-56059658D01*
X119007798Y-56103283D01*
X118938300Y-56110477D01*
X118875945Y-56078954D01*
X118859225Y-56059658D01*
X118729294Y-55874097D01*
X118562202Y-55707006D01*
X118562195Y-55707001D01*
X118368634Y-55571467D01*
X118368630Y-55571465D01*
X118297527Y-55538309D01*
X118154463Y-55471597D01*
X118154459Y-55471596D01*
X118154455Y-55471594D01*
X117926213Y-55410438D01*
X117926203Y-55410436D01*
X117690801Y-55389841D01*
X117690799Y-55389841D01*
X117455396Y-55410436D01*
X117455386Y-55410438D01*
X117227144Y-55471594D01*
X117227135Y-55471598D01*
X117012971Y-55571464D01*
X117012969Y-55571465D01*
X116819397Y-55707005D01*
X116652305Y-55874097D01*
X116522375Y-56059658D01*
X116467798Y-56103283D01*
X116398300Y-56110477D01*
X116335945Y-56078954D01*
X116319225Y-56059658D01*
X116189294Y-55874097D01*
X116022202Y-55707006D01*
X116022195Y-55707001D01*
X115828634Y-55571467D01*
X115828630Y-55571465D01*
X115757527Y-55538309D01*
X115614463Y-55471597D01*
X115614459Y-55471596D01*
X115614455Y-55471594D01*
X115386213Y-55410438D01*
X115386203Y-55410436D01*
X115150801Y-55389841D01*
X115150799Y-55389841D01*
X114915396Y-55410436D01*
X114915386Y-55410438D01*
X114687144Y-55471594D01*
X114687135Y-55471598D01*
X114472971Y-55571464D01*
X114472969Y-55571465D01*
X114279400Y-55707003D01*
X114157084Y-55829319D01*
X114095761Y-55862803D01*
X114026069Y-55857819D01*
X113970136Y-55815947D01*
X113953221Y-55784970D01*
X113904154Y-55653413D01*
X113904150Y-55653406D01*
X113817990Y-55538312D01*
X113817987Y-55538309D01*
X113702893Y-55452149D01*
X113702886Y-55452145D01*
X113568179Y-55401903D01*
X113568172Y-55401901D01*
X113508644Y-55395500D01*
X112860800Y-55395500D01*
X112860800Y-56312488D01*
X112803793Y-56279575D01*
X112676626Y-56245500D01*
X112544974Y-56245500D01*
X112417807Y-56279575D01*
X112360800Y-56312488D01*
X112360800Y-55395500D01*
X111712955Y-55395500D01*
X111653427Y-55401901D01*
X111653420Y-55401903D01*
X111518713Y-55452145D01*
X111518706Y-55452149D01*
X111403612Y-55538309D01*
X111403609Y-55538312D01*
X111317449Y-55653406D01*
X111317445Y-55653413D01*
X111267203Y-55788120D01*
X111267201Y-55788127D01*
X111260800Y-55847655D01*
X111260800Y-56495500D01*
X112177788Y-56495500D01*
X112144875Y-56552507D01*
X112110800Y-56679674D01*
X112110800Y-56811326D01*
X112144875Y-56938493D01*
X112177788Y-56995500D01*
X111260800Y-56995500D01*
X111260800Y-57643344D01*
X111267201Y-57702872D01*
X111267203Y-57702879D01*
X111317445Y-57837586D01*
X111317449Y-57837593D01*
X111403609Y-57952687D01*
X111403612Y-57952690D01*
X111518706Y-58038850D01*
X111518713Y-58038854D01*
X111653420Y-58089096D01*
X111653427Y-58089098D01*
X111712955Y-58095499D01*
X111712972Y-58095500D01*
X112360800Y-58095500D01*
X112360800Y-57178512D01*
X112417807Y-57211425D01*
X112544974Y-57245500D01*
X112676626Y-57245500D01*
X112803793Y-57211425D01*
X112860800Y-57178512D01*
X112860800Y-58095500D01*
X113508628Y-58095500D01*
X113508644Y-58095499D01*
X113568172Y-58089098D01*
X113568179Y-58089096D01*
X113702886Y-58038854D01*
X113702893Y-58038850D01*
X113817987Y-57952690D01*
X113817990Y-57952687D01*
X113904150Y-57837593D01*
X113904154Y-57837586D01*
X113953222Y-57706029D01*
X113995093Y-57650095D01*
X114060557Y-57625678D01*
X114128830Y-57640530D01*
X114157082Y-57661678D01*
X114279399Y-57783995D01*
X114347423Y-57831625D01*
X114391048Y-57886201D01*
X114400300Y-57933200D01*
X114400300Y-60557798D01*
X114380615Y-60624837D01*
X114347425Y-60659372D01*
X114279399Y-60707005D01*
X114157084Y-60829319D01*
X114095760Y-60862803D01*
X114026069Y-60857818D01*
X113970135Y-60815947D01*
X113953221Y-60784970D01*
X113904154Y-60653413D01*
X113904150Y-60653406D01*
X113817990Y-60538312D01*
X113817987Y-60538309D01*
X113702893Y-60452149D01*
X113702886Y-60452145D01*
X113568179Y-60401903D01*
X113568172Y-60401901D01*
X113508644Y-60395500D01*
X112860800Y-60395500D01*
X112860800Y-61312488D01*
X112803793Y-61279575D01*
X112676626Y-61245500D01*
X112544974Y-61245500D01*
X112417807Y-61279575D01*
X112360800Y-61312488D01*
X112360800Y-60395500D01*
X111712955Y-60395500D01*
X111653427Y-60401901D01*
X111653420Y-60401903D01*
X111518713Y-60452145D01*
X111518706Y-60452149D01*
X111403612Y-60538309D01*
X111403609Y-60538312D01*
X111317449Y-60653406D01*
X111317445Y-60653413D01*
X111267203Y-60788120D01*
X111267201Y-60788127D01*
X111260800Y-60847655D01*
X111260800Y-61495500D01*
X112177788Y-61495500D01*
X112144875Y-61552507D01*
X112110800Y-61679674D01*
X112110800Y-61811326D01*
X112144875Y-61938493D01*
X112177788Y-61995500D01*
X111260800Y-61995500D01*
X111260800Y-62643344D01*
X111267201Y-62702872D01*
X111267203Y-62702879D01*
X111317445Y-62837586D01*
X111317449Y-62837593D01*
X111403609Y-62952687D01*
X111403612Y-62952690D01*
X111518706Y-63038850D01*
X111518713Y-63038854D01*
X111653420Y-63089096D01*
X111653427Y-63089098D01*
X111712955Y-63095499D01*
X111712972Y-63095500D01*
X112360800Y-63095500D01*
X112360800Y-62178512D01*
X112417807Y-62211425D01*
X112544974Y-62245500D01*
X112676626Y-62245500D01*
X112803793Y-62211425D01*
X112860800Y-62178512D01*
X112860800Y-63095500D01*
X113508628Y-63095500D01*
X113508644Y-63095499D01*
X113568172Y-63089098D01*
X113568179Y-63089096D01*
X113702886Y-63038854D01*
X113702893Y-63038850D01*
X113817987Y-62952690D01*
X113817990Y-62952687D01*
X113904150Y-62837593D01*
X113904154Y-62837586D01*
X113953222Y-62706029D01*
X113995093Y-62650095D01*
X114060557Y-62625678D01*
X114128830Y-62640530D01*
X114157085Y-62661681D01*
X114279399Y-62783995D01*
X114343806Y-62829093D01*
X114472965Y-62919532D01*
X114472967Y-62919533D01*
X114472970Y-62919535D01*
X114687137Y-63019403D01*
X114915392Y-63080563D01*
X115103718Y-63097039D01*
X115150799Y-63101159D01*
X115150800Y-63101159D01*
X115150801Y-63101159D01*
X115190034Y-63097726D01*
X115386208Y-63080563D01*
X115614463Y-63019403D01*
X115828630Y-62919535D01*
X116022201Y-62783995D01*
X116189295Y-62616901D01*
X116319225Y-62431342D01*
X116373802Y-62387717D01*
X116443300Y-62380523D01*
X116505655Y-62412046D01*
X116522375Y-62431342D01*
X116652300Y-62616895D01*
X116652305Y-62616901D01*
X116819399Y-62783995D01*
X116883806Y-62829093D01*
X117012965Y-62919532D01*
X117012967Y-62919533D01*
X117012970Y-62919535D01*
X117227137Y-63019403D01*
X117455392Y-63080563D01*
X117643718Y-63097039D01*
X117690799Y-63101159D01*
X117690800Y-63101159D01*
X117690801Y-63101159D01*
X117730034Y-63097726D01*
X117926208Y-63080563D01*
X118154463Y-63019403D01*
X118368630Y-62919535D01*
X118562201Y-62783995D01*
X118729295Y-62616901D01*
X118859225Y-62431342D01*
X118913802Y-62387717D01*
X118983300Y-62380523D01*
X119045655Y-62412046D01*
X119062375Y-62431342D01*
X119192300Y-62616895D01*
X119192305Y-62616901D01*
X119359399Y-62783995D01*
X119423806Y-62829093D01*
X119552965Y-62919532D01*
X119552967Y-62919533D01*
X119552970Y-62919535D01*
X119767137Y-63019403D01*
X119995392Y-63080563D01*
X120183718Y-63097039D01*
X120230799Y-63101159D01*
X120230800Y-63101159D01*
X120230801Y-63101159D01*
X120270034Y-63097726D01*
X120466208Y-63080563D01*
X120694463Y-63019403D01*
X120908630Y-62919535D01*
X121102201Y-62783995D01*
X121269295Y-62616901D01*
X121399225Y-62431342D01*
X121453802Y-62387717D01*
X121523300Y-62380523D01*
X121585655Y-62412046D01*
X121602375Y-62431342D01*
X121732300Y-62616895D01*
X121732305Y-62616901D01*
X121899399Y-62783995D01*
X121963806Y-62829093D01*
X122092965Y-62919532D01*
X122092967Y-62919533D01*
X122092970Y-62919535D01*
X122307137Y-63019403D01*
X122535392Y-63080563D01*
X122723718Y-63097039D01*
X122770799Y-63101159D01*
X122770800Y-63101159D01*
X122770801Y-63101159D01*
X122810034Y-63097726D01*
X123006208Y-63080563D01*
X123234463Y-63019403D01*
X123448630Y-62919535D01*
X123642201Y-62783995D01*
X123809295Y-62616901D01*
X123939225Y-62431342D01*
X123993802Y-62387717D01*
X124063300Y-62380523D01*
X124125655Y-62412046D01*
X124142375Y-62431342D01*
X124272300Y-62616895D01*
X124272305Y-62616901D01*
X124439399Y-62783995D01*
X124503806Y-62829093D01*
X124632965Y-62919532D01*
X124632967Y-62919533D01*
X124632970Y-62919535D01*
X124847137Y-63019403D01*
X125075392Y-63080563D01*
X125263718Y-63097039D01*
X125310799Y-63101159D01*
X125310800Y-63101159D01*
X125310801Y-63101159D01*
X125350034Y-63097726D01*
X125546208Y-63080563D01*
X125774463Y-63019403D01*
X125988630Y-62919535D01*
X126182201Y-62783995D01*
X126349295Y-62616901D01*
X126479225Y-62431342D01*
X126533802Y-62387717D01*
X126603300Y-62380523D01*
X126665655Y-62412046D01*
X126682375Y-62431342D01*
X126812300Y-62616895D01*
X126812305Y-62616901D01*
X126979399Y-62783995D01*
X127043806Y-62829093D01*
X127172965Y-62919532D01*
X127172967Y-62919533D01*
X127172970Y-62919535D01*
X127387137Y-63019403D01*
X127615392Y-63080563D01*
X127803718Y-63097039D01*
X127850799Y-63101159D01*
X127850800Y-63101159D01*
X127850801Y-63101159D01*
X127886084Y-63098071D01*
X128063813Y-63082522D01*
X128132312Y-63096288D01*
X128162301Y-63118369D01*
X139926880Y-74882948D01*
X139926884Y-74882951D01*
X140049798Y-74965080D01*
X140049811Y-74965087D01*
X140186382Y-75021656D01*
X140186387Y-75021658D01*
X140186391Y-75021658D01*
X140186392Y-75021659D01*
X140331379Y-75050500D01*
X140331382Y-75050500D01*
X140479217Y-75050500D01*
X144560663Y-75050500D01*
X144627702Y-75070185D01*
X144633548Y-75074182D01*
X144647265Y-75084148D01*
X144647270Y-75084151D01*
X144820192Y-75161142D01*
X144820197Y-75161144D01*
X145005354Y-75200500D01*
X145005355Y-75200500D01*
X145194644Y-75200500D01*
X145194646Y-75200500D01*
X145379803Y-75161144D01*
X145552730Y-75084151D01*
X145705871Y-74972888D01*
X145832533Y-74832216D01*
X145927179Y-74668284D01*
X145985674Y-74488256D01*
X146005460Y-74300000D01*
X145985674Y-74111744D01*
X145927179Y-73931716D01*
X145832533Y-73767784D01*
X145705871Y-73627112D01*
X145705870Y-73627111D01*
X145552734Y-73515851D01*
X145552729Y-73515848D01*
X145379807Y-73438857D01*
X145379802Y-73438855D01*
X145234001Y-73407865D01*
X145194646Y-73399500D01*
X145005354Y-73399500D01*
X144972897Y-73406398D01*
X144820197Y-73438855D01*
X144820192Y-73438857D01*
X144647270Y-73515848D01*
X144647265Y-73515851D01*
X144633548Y-73525818D01*
X144567742Y-73549298D01*
X144560663Y-73549500D01*
X140767529Y-73549500D01*
X140700490Y-73529815D01*
X140679848Y-73513181D01*
X130465752Y-63299084D01*
X130432267Y-63237761D01*
X130437251Y-63168069D01*
X130479123Y-63112136D01*
X130542623Y-63087875D01*
X130626208Y-63080563D01*
X130854463Y-63019403D01*
X131068630Y-62919535D01*
X131262201Y-62783995D01*
X131429295Y-62616901D01*
X131559225Y-62431342D01*
X131613802Y-62387717D01*
X131683300Y-62380523D01*
X131745655Y-62412046D01*
X131762375Y-62431342D01*
X131892300Y-62616895D01*
X131892305Y-62616901D01*
X132059399Y-62783995D01*
X132123806Y-62829093D01*
X132252965Y-62919532D01*
X132252967Y-62919533D01*
X132252970Y-62919535D01*
X132467137Y-63019403D01*
X132695392Y-63080563D01*
X132883718Y-63097039D01*
X132930799Y-63101159D01*
X132930800Y-63101159D01*
X132930801Y-63101159D01*
X132970034Y-63097726D01*
X133166208Y-63080563D01*
X133394463Y-63019403D01*
X133608630Y-62919535D01*
X133802201Y-62783995D01*
X133969295Y-62616901D01*
X134099225Y-62431342D01*
X134153802Y-62387717D01*
X134223300Y-62380523D01*
X134285655Y-62412046D01*
X134302375Y-62431342D01*
X134432300Y-62616895D01*
X134432305Y-62616901D01*
X134599399Y-62783995D01*
X134663806Y-62829093D01*
X134792965Y-62919532D01*
X134792967Y-62919533D01*
X134792970Y-62919535D01*
X135007137Y-63019403D01*
X135235392Y-63080563D01*
X135423718Y-63097039D01*
X135470799Y-63101159D01*
X135470800Y-63101159D01*
X135470801Y-63101159D01*
X135510034Y-63097726D01*
X135706208Y-63080563D01*
X135934463Y-63019403D01*
X136148630Y-62919535D01*
X136342201Y-62783995D01*
X136509295Y-62616901D01*
X136639225Y-62431342D01*
X136693802Y-62387717D01*
X136763300Y-62380523D01*
X136825655Y-62412046D01*
X136842375Y-62431342D01*
X136972300Y-62616895D01*
X136972305Y-62616901D01*
X137139399Y-62783995D01*
X137203806Y-62829093D01*
X137332965Y-62919532D01*
X137332967Y-62919533D01*
X137332970Y-62919535D01*
X137547137Y-63019403D01*
X137775392Y-63080563D01*
X137963718Y-63097039D01*
X138010799Y-63101159D01*
X138010800Y-63101159D01*
X138010801Y-63101159D01*
X138050034Y-63097726D01*
X138246208Y-63080563D01*
X138474463Y-63019403D01*
X138688630Y-62919535D01*
X138882201Y-62783995D01*
X139049295Y-62616901D01*
X139179225Y-62431342D01*
X139233802Y-62387717D01*
X139303300Y-62380523D01*
X139365655Y-62412046D01*
X139382375Y-62431342D01*
X139512300Y-62616895D01*
X139512305Y-62616901D01*
X139679399Y-62783995D01*
X139743806Y-62829093D01*
X139872965Y-62919532D01*
X139872967Y-62919533D01*
X139872970Y-62919535D01*
X140087137Y-63019403D01*
X140315392Y-63080563D01*
X140503718Y-63097039D01*
X140550799Y-63101159D01*
X140550800Y-63101159D01*
X140550801Y-63101159D01*
X140590034Y-63097726D01*
X140786208Y-63080563D01*
X141014463Y-63019403D01*
X141228630Y-62919535D01*
X141422201Y-62783995D01*
X141589295Y-62616901D01*
X141719225Y-62431342D01*
X141773802Y-62387717D01*
X141843300Y-62380523D01*
X141905655Y-62412046D01*
X141922375Y-62431342D01*
X142052300Y-62616895D01*
X142052305Y-62616901D01*
X142219399Y-62783995D01*
X142283806Y-62829093D01*
X142412965Y-62919532D01*
X142412967Y-62919533D01*
X142412970Y-62919535D01*
X142627137Y-63019403D01*
X142855392Y-63080563D01*
X143043718Y-63097039D01*
X143090799Y-63101159D01*
X143090800Y-63101159D01*
X143090801Y-63101159D01*
X143130034Y-63097726D01*
X143326208Y-63080563D01*
X143554463Y-63019403D01*
X143768630Y-62919535D01*
X143962201Y-62783995D01*
X144129295Y-62616901D01*
X144259225Y-62431342D01*
X144313802Y-62387717D01*
X144383300Y-62380523D01*
X144445655Y-62412046D01*
X144462375Y-62431342D01*
X144592300Y-62616895D01*
X144592305Y-62616901D01*
X144759399Y-62783995D01*
X144823806Y-62829093D01*
X144952965Y-62919532D01*
X144952967Y-62919533D01*
X144952970Y-62919535D01*
X145167137Y-63019403D01*
X145395392Y-63080563D01*
X145583718Y-63097039D01*
X145630799Y-63101159D01*
X145630800Y-63101159D01*
X145630801Y-63101159D01*
X145670034Y-63097726D01*
X145866208Y-63080563D01*
X146094463Y-63019403D01*
X146308630Y-62919535D01*
X146502201Y-62783995D01*
X146669295Y-62616901D01*
X146799225Y-62431342D01*
X146853802Y-62387717D01*
X146923300Y-62380523D01*
X146985655Y-62412046D01*
X147002375Y-62431342D01*
X147132300Y-62616895D01*
X147132305Y-62616901D01*
X147299399Y-62783995D01*
X147363806Y-62829093D01*
X147492965Y-62919532D01*
X147492967Y-62919533D01*
X147492970Y-62919535D01*
X147707137Y-63019403D01*
X147935392Y-63080563D01*
X148123718Y-63097039D01*
X148170799Y-63101159D01*
X148170800Y-63101159D01*
X148170801Y-63101159D01*
X148210034Y-63097726D01*
X148406208Y-63080563D01*
X148634463Y-63019403D01*
X148848630Y-62919535D01*
X149042201Y-62783995D01*
X149209295Y-62616901D01*
X149339225Y-62431342D01*
X149393802Y-62387717D01*
X149463300Y-62380523D01*
X149525655Y-62412046D01*
X149542375Y-62431342D01*
X149672300Y-62616895D01*
X149672305Y-62616901D01*
X149839399Y-62783995D01*
X149903806Y-62829093D01*
X150032965Y-62919532D01*
X150032967Y-62919533D01*
X150032970Y-62919535D01*
X150247137Y-63019403D01*
X150475392Y-63080563D01*
X150663718Y-63097039D01*
X150710799Y-63101159D01*
X150710800Y-63101159D01*
X150710801Y-63101159D01*
X150750034Y-63097726D01*
X150946208Y-63080563D01*
X151174463Y-63019403D01*
X151388630Y-62919535D01*
X151582201Y-62783995D01*
X151749295Y-62616901D01*
X151879225Y-62431342D01*
X151933802Y-62387717D01*
X152003300Y-62380523D01*
X152065655Y-62412046D01*
X152082375Y-62431342D01*
X152212300Y-62616895D01*
X152212305Y-62616901D01*
X152379399Y-62783995D01*
X152443806Y-62829093D01*
X152572965Y-62919532D01*
X152572967Y-62919533D01*
X152572970Y-62919535D01*
X152787137Y-63019403D01*
X153015392Y-63080563D01*
X153203718Y-63097039D01*
X153250799Y-63101159D01*
X153250800Y-63101159D01*
X153250801Y-63101159D01*
X153290034Y-63097726D01*
X153486208Y-63080563D01*
X153714463Y-63019403D01*
X153928630Y-62919535D01*
X154122201Y-62783995D01*
X154289295Y-62616901D01*
X154419225Y-62431342D01*
X154473802Y-62387717D01*
X154543300Y-62380523D01*
X154605655Y-62412046D01*
X154622375Y-62431342D01*
X154752300Y-62616895D01*
X154752305Y-62616901D01*
X154919399Y-62783995D01*
X154983806Y-62829093D01*
X155112965Y-62919532D01*
X155112967Y-62919533D01*
X155112970Y-62919535D01*
X155327137Y-63019403D01*
X155555392Y-63080563D01*
X155743718Y-63097039D01*
X155790799Y-63101159D01*
X155790800Y-63101159D01*
X155790801Y-63101159D01*
X155830034Y-63097726D01*
X156026208Y-63080563D01*
X156254463Y-63019403D01*
X156468630Y-62919535D01*
X156662201Y-62783995D01*
X156829295Y-62616901D01*
X156959225Y-62431342D01*
X157013802Y-62387717D01*
X157083300Y-62380523D01*
X157145655Y-62412046D01*
X157162375Y-62431342D01*
X157292300Y-62616895D01*
X157292305Y-62616901D01*
X157459399Y-62783995D01*
X157523806Y-62829093D01*
X157652965Y-62919532D01*
X157652967Y-62919533D01*
X157652970Y-62919535D01*
X157867137Y-63019403D01*
X158095392Y-63080563D01*
X158283718Y-63097039D01*
X158330799Y-63101159D01*
X158330800Y-63101159D01*
X158330801Y-63101159D01*
X158370034Y-63097726D01*
X158566208Y-63080563D01*
X158794463Y-63019403D01*
X159008630Y-62919535D01*
X159202201Y-62783995D01*
X159369295Y-62616901D01*
X159499225Y-62431342D01*
X159553802Y-62387717D01*
X159623300Y-62380523D01*
X159685655Y-62412046D01*
X159702375Y-62431342D01*
X159832300Y-62616895D01*
X159832305Y-62616901D01*
X159999399Y-62783995D01*
X160063806Y-62829093D01*
X160192965Y-62919532D01*
X160192967Y-62919533D01*
X160192970Y-62919535D01*
X160407137Y-63019403D01*
X160635392Y-63080563D01*
X160823718Y-63097039D01*
X160870799Y-63101159D01*
X160870800Y-63101159D01*
X160870801Y-63101159D01*
X160910034Y-63097726D01*
X161106208Y-63080563D01*
X161334463Y-63019403D01*
X161548630Y-62919535D01*
X161742201Y-62783995D01*
X161909295Y-62616901D01*
X162044835Y-62423330D01*
X162144703Y-62209163D01*
X162205863Y-61980908D01*
X162226459Y-61745500D01*
X162205863Y-61510092D01*
X162144703Y-61281837D01*
X162044835Y-61067671D01*
X162039225Y-61059658D01*
X161909294Y-60874097D01*
X161742204Y-60707007D01*
X161674175Y-60659372D01*
X161630551Y-60604794D01*
X161621300Y-60557798D01*
X161621300Y-57933200D01*
X161640985Y-57866161D01*
X161674175Y-57831626D01*
X161742201Y-57783995D01*
X161909295Y-57616901D01*
X162044835Y-57423330D01*
X162144703Y-57209163D01*
X162205863Y-56980908D01*
X162226459Y-56745500D01*
X162205863Y-56510092D01*
X162144703Y-56281837D01*
X162044835Y-56067671D01*
X162039225Y-56059658D01*
X161909294Y-55874097D01*
X161742202Y-55707006D01*
X161742195Y-55707001D01*
X161548634Y-55571467D01*
X161548630Y-55571465D01*
X161477527Y-55538309D01*
X161367240Y-55486881D01*
X161314802Y-55440710D01*
X161295650Y-55373516D01*
X161315866Y-55306635D01*
X161369031Y-55261300D01*
X161419646Y-55250500D01*
X173388770Y-55250500D01*
X173455809Y-55270185D01*
X173501564Y-55322989D01*
X173511508Y-55392147D01*
X173482483Y-55455703D01*
X173476451Y-55462181D01*
X172757050Y-56181580D01*
X172757044Y-56181588D01*
X172707812Y-56255268D01*
X172707813Y-56255269D01*
X172674921Y-56304496D01*
X172674914Y-56304508D01*
X172618342Y-56441086D01*
X172618340Y-56441092D01*
X172589500Y-56586079D01*
X172589500Y-60557798D01*
X172569815Y-60624837D01*
X172536625Y-60659372D01*
X172468595Y-60707007D01*
X172301505Y-60874097D01*
X172165965Y-61067669D01*
X172165964Y-61067671D01*
X172066098Y-61281835D01*
X172066094Y-61281844D01*
X172004938Y-61510086D01*
X172004936Y-61510096D01*
X171984341Y-61745499D01*
X171984341Y-61745501D01*
X172002977Y-61958512D01*
X171989210Y-62027012D01*
X171967130Y-62057000D01*
X156410951Y-77613181D01*
X156349628Y-77646666D01*
X156323270Y-77649500D01*
X126224350Y-77649500D01*
X126157311Y-77629815D01*
X126136669Y-77613181D01*
X119069467Y-70545979D01*
X119035982Y-70484656D01*
X119033620Y-70447490D01*
X119045033Y-70317051D01*
X119052257Y-70234478D01*
X119031661Y-69999070D01*
X118970501Y-69770815D01*
X118870633Y-69556649D01*
X118839945Y-69512821D01*
X118735092Y-69363075D01*
X118568000Y-69195984D01*
X118567993Y-69195979D01*
X118374432Y-69060445D01*
X118374428Y-69060443D01*
X118374426Y-69060442D01*
X118160261Y-68960575D01*
X118160257Y-68960574D01*
X118160253Y-68960572D01*
X117932011Y-68899416D01*
X117932001Y-68899414D01*
X117696599Y-68878819D01*
X117696597Y-68878819D01*
X117461194Y-68899414D01*
X117461184Y-68899416D01*
X117232942Y-68960572D01*
X117232933Y-68960576D01*
X117018769Y-69060442D01*
X117018767Y-69060443D01*
X116825195Y-69195983D01*
X116658103Y-69363075D01*
X116522563Y-69556647D01*
X116522562Y-69556649D01*
X116422696Y-69770813D01*
X116422692Y-69770822D01*
X116361536Y-69999064D01*
X116361534Y-69999074D01*
X116340939Y-70234477D01*
X116340939Y-70234478D01*
X116361534Y-70469881D01*
X116361536Y-70469891D01*
X116422692Y-70698133D01*
X116422694Y-70698137D01*
X116422695Y-70698141D01*
X116522563Y-70912308D01*
X116522565Y-70912312D01*
X116658099Y-71105873D01*
X116658104Y-71105880D01*
X116780416Y-71228192D01*
X116813901Y-71289515D01*
X116808917Y-71359207D01*
X116767045Y-71415140D01*
X116736069Y-71432055D01*
X116604510Y-71481124D01*
X116604504Y-71481127D01*
X116489410Y-71567287D01*
X116489407Y-71567290D01*
X116403247Y-71682384D01*
X116403243Y-71682391D01*
X116353001Y-71817098D01*
X116352999Y-71817105D01*
X116346598Y-71876633D01*
X116346598Y-72524478D01*
X117263586Y-72524478D01*
X117230673Y-72581485D01*
X117196598Y-72708652D01*
X117196598Y-72840304D01*
X117230673Y-72967471D01*
X117263586Y-73024478D01*
X116346598Y-73024478D01*
X116346598Y-73672322D01*
X116352999Y-73731850D01*
X116353001Y-73731857D01*
X116403243Y-73866564D01*
X116403247Y-73866571D01*
X116489407Y-73981665D01*
X116489410Y-73981668D01*
X116604504Y-74067828D01*
X116604511Y-74067832D01*
X116739218Y-74118074D01*
X116739225Y-74118076D01*
X116798753Y-74124477D01*
X116798770Y-74124478D01*
X117446598Y-74124478D01*
X117446598Y-73207490D01*
X117503605Y-73240403D01*
X117630772Y-73274478D01*
X117762424Y-73274478D01*
X117889591Y-73240403D01*
X117946598Y-73207490D01*
X117946598Y-74124478D01*
X118594426Y-74124478D01*
X118594442Y-74124477D01*
X118653970Y-74118076D01*
X118653977Y-74118074D01*
X118788684Y-74067832D01*
X118788691Y-74067828D01*
X118903785Y-73981668D01*
X118903788Y-73981665D01*
X118989948Y-73866571D01*
X118989952Y-73866564D01*
X119040194Y-73731857D01*
X119040196Y-73731850D01*
X119046597Y-73672322D01*
X119046598Y-73672305D01*
X119046598Y-72945208D01*
X119066283Y-72878169D01*
X119119087Y-72832414D01*
X119188245Y-72822470D01*
X119251801Y-72851495D01*
X119258279Y-72857527D01*
X125383704Y-78982952D01*
X125383710Y-78982957D01*
X125425382Y-79010799D01*
X125439146Y-79019996D01*
X125439148Y-79019997D01*
X125439151Y-79020000D01*
X125439152Y-79020000D01*
X125506625Y-79065084D01*
X125506627Y-79065085D01*
X125506631Y-79065087D01*
X125643202Y-79121656D01*
X125643207Y-79121658D01*
X125643211Y-79121658D01*
X125643212Y-79121659D01*
X125788199Y-79150500D01*
X125788202Y-79150500D01*
X156759420Y-79150500D01*
X156856962Y-79131096D01*
X156904413Y-79121658D01*
X157040995Y-79065084D01*
X157108468Y-79020000D01*
X157163916Y-78982952D01*
X173028499Y-63118367D01*
X173089820Y-63084884D01*
X173126984Y-63082522D01*
X173287235Y-63096542D01*
X173339999Y-63101159D01*
X173340000Y-63101159D01*
X173340001Y-63101159D01*
X173379234Y-63097726D01*
X173575408Y-63080563D01*
X173803663Y-63019403D01*
X174017830Y-62919535D01*
X174211401Y-62783995D01*
X174333717Y-62661678D01*
X174395036Y-62628196D01*
X174464728Y-62633180D01*
X174520662Y-62675051D01*
X174537577Y-62706028D01*
X174586646Y-62837588D01*
X174586649Y-62837593D01*
X174672809Y-62952687D01*
X174672812Y-62952690D01*
X174787906Y-63038850D01*
X174787913Y-63038854D01*
X174922620Y-63089096D01*
X174922627Y-63089098D01*
X174982155Y-63095499D01*
X174982172Y-63095500D01*
X175709269Y-63095500D01*
X175776308Y-63115185D01*
X175822063Y-63167989D01*
X175832007Y-63237147D01*
X175802982Y-63300703D01*
X175796950Y-63307181D01*
X170990951Y-68113181D01*
X170929628Y-68146666D01*
X170903270Y-68149500D01*
X168882380Y-68149500D01*
X168737392Y-68178340D01*
X168737382Y-68178343D01*
X168600811Y-68234912D01*
X168600798Y-68234919D01*
X168477884Y-68317048D01*
X168477880Y-68317051D01*
X145942300Y-90852630D01*
X145880977Y-90886115D01*
X145843812Y-90888477D01*
X145630802Y-90869841D01*
X145630799Y-90869841D01*
X145395396Y-90890436D01*
X145395386Y-90890438D01*
X145167144Y-90951594D01*
X145167135Y-90951598D01*
X144952971Y-91051464D01*
X144952969Y-91051465D01*
X144759397Y-91187005D01*
X144592305Y-91354097D01*
X144462375Y-91539658D01*
X144407798Y-91583283D01*
X144338300Y-91590477D01*
X144275945Y-91558954D01*
X144259225Y-91539658D01*
X144129294Y-91354097D01*
X143962202Y-91187006D01*
X143962195Y-91187001D01*
X143768634Y-91051467D01*
X143768630Y-91051465D01*
X143697527Y-91018309D01*
X143554463Y-90951597D01*
X143554459Y-90951596D01*
X143554455Y-90951594D01*
X143326213Y-90890438D01*
X143326203Y-90890436D01*
X143090801Y-90869841D01*
X143090799Y-90869841D01*
X142855396Y-90890436D01*
X142855386Y-90890438D01*
X142627144Y-90951594D01*
X142627135Y-90951598D01*
X142412971Y-91051464D01*
X142412969Y-91051465D01*
X142219397Y-91187005D01*
X142052305Y-91354097D01*
X141922375Y-91539658D01*
X141867798Y-91583283D01*
X141798300Y-91590477D01*
X141735945Y-91558954D01*
X141719225Y-91539658D01*
X141589294Y-91354097D01*
X141422202Y-91187006D01*
X141422195Y-91187001D01*
X141228634Y-91051467D01*
X141228630Y-91051465D01*
X141157527Y-91018309D01*
X141014463Y-90951597D01*
X141014459Y-90951596D01*
X141014455Y-90951594D01*
X140786213Y-90890438D01*
X140786203Y-90890436D01*
X140550801Y-90869841D01*
X140550799Y-90869841D01*
X140315396Y-90890436D01*
X140315386Y-90890438D01*
X140087144Y-90951594D01*
X140087135Y-90951598D01*
X139872971Y-91051464D01*
X139872969Y-91051465D01*
X139679397Y-91187005D01*
X139512305Y-91354097D01*
X139382375Y-91539658D01*
X139327798Y-91583283D01*
X139258300Y-91590477D01*
X139195945Y-91558954D01*
X139179225Y-91539658D01*
X139049294Y-91354097D01*
X138882202Y-91187006D01*
X138882195Y-91187001D01*
X138688634Y-91051467D01*
X138688630Y-91051465D01*
X138617527Y-91018309D01*
X138474463Y-90951597D01*
X138474459Y-90951596D01*
X138474455Y-90951594D01*
X138246213Y-90890438D01*
X138246203Y-90890436D01*
X138010801Y-90869841D01*
X138010799Y-90869841D01*
X137775396Y-90890436D01*
X137775386Y-90890438D01*
X137547144Y-90951594D01*
X137547135Y-90951598D01*
X137332971Y-91051464D01*
X137332969Y-91051465D01*
X137139397Y-91187005D01*
X136972305Y-91354097D01*
X136842375Y-91539658D01*
X136787798Y-91583283D01*
X136718300Y-91590477D01*
X136655945Y-91558954D01*
X136639225Y-91539658D01*
X136509294Y-91354097D01*
X136342202Y-91187006D01*
X136342195Y-91187001D01*
X136148634Y-91051467D01*
X136148630Y-91051465D01*
X136077527Y-91018309D01*
X135934463Y-90951597D01*
X135934459Y-90951596D01*
X135934455Y-90951594D01*
X135706213Y-90890438D01*
X135706203Y-90890436D01*
X135470801Y-90869841D01*
X135470799Y-90869841D01*
X135235396Y-90890436D01*
X135235386Y-90890438D01*
X135007144Y-90951594D01*
X135007135Y-90951598D01*
X134792971Y-91051464D01*
X134792969Y-91051465D01*
X134599397Y-91187005D01*
X134432305Y-91354097D01*
X134302375Y-91539658D01*
X134247798Y-91583283D01*
X134178300Y-91590477D01*
X134115945Y-91558954D01*
X134099225Y-91539658D01*
X133969294Y-91354097D01*
X133802202Y-91187006D01*
X133802195Y-91187001D01*
X133608634Y-91051467D01*
X133608630Y-91051465D01*
X133537527Y-91018309D01*
X133394463Y-90951597D01*
X133394459Y-90951596D01*
X133394455Y-90951594D01*
X133166213Y-90890438D01*
X133166203Y-90890436D01*
X132930801Y-90869841D01*
X132930799Y-90869841D01*
X132695396Y-90890436D01*
X132695386Y-90890438D01*
X132467144Y-90951594D01*
X132467135Y-90951598D01*
X132252971Y-91051464D01*
X132252969Y-91051465D01*
X132059397Y-91187005D01*
X131892305Y-91354097D01*
X131762375Y-91539658D01*
X131707798Y-91583283D01*
X131638300Y-91590477D01*
X131575945Y-91558954D01*
X131559225Y-91539658D01*
X131429294Y-91354097D01*
X131262202Y-91187006D01*
X131262195Y-91187001D01*
X131068634Y-91051467D01*
X131068630Y-91051465D01*
X130997527Y-91018309D01*
X130854463Y-90951597D01*
X130854459Y-90951596D01*
X130854455Y-90951594D01*
X130626213Y-90890438D01*
X130626203Y-90890436D01*
X130390801Y-90869841D01*
X130390799Y-90869841D01*
X130155396Y-90890436D01*
X130155386Y-90890438D01*
X129927144Y-90951594D01*
X129927135Y-90951598D01*
X129712971Y-91051464D01*
X129712969Y-91051465D01*
X129519397Y-91187005D01*
X129352305Y-91354097D01*
X129222375Y-91539658D01*
X129167798Y-91583283D01*
X129098300Y-91590477D01*
X129035945Y-91558954D01*
X129019225Y-91539658D01*
X128889294Y-91354097D01*
X128722202Y-91187006D01*
X128722195Y-91187001D01*
X128528634Y-91051467D01*
X128528630Y-91051465D01*
X128457527Y-91018309D01*
X128314463Y-90951597D01*
X128314459Y-90951596D01*
X128314455Y-90951594D01*
X128086213Y-90890438D01*
X128086203Y-90890436D01*
X127850801Y-90869841D01*
X127850799Y-90869841D01*
X127615396Y-90890436D01*
X127615386Y-90890438D01*
X127387144Y-90951594D01*
X127387135Y-90951598D01*
X127172971Y-91051464D01*
X127172969Y-91051465D01*
X126979397Y-91187005D01*
X126812305Y-91354097D01*
X126682375Y-91539658D01*
X126627798Y-91583283D01*
X126558300Y-91590477D01*
X126495945Y-91558954D01*
X126479225Y-91539658D01*
X126349294Y-91354097D01*
X126182202Y-91187006D01*
X126182195Y-91187001D01*
X125988634Y-91051467D01*
X125988630Y-91051465D01*
X125917527Y-91018309D01*
X125774463Y-90951597D01*
X125774459Y-90951596D01*
X125774455Y-90951594D01*
X125546213Y-90890438D01*
X125546203Y-90890436D01*
X125310801Y-90869841D01*
X125310799Y-90869841D01*
X125075396Y-90890436D01*
X125075386Y-90890438D01*
X124847144Y-90951594D01*
X124847135Y-90951598D01*
X124632971Y-91051464D01*
X124632969Y-91051465D01*
X124439397Y-91187005D01*
X124272305Y-91354097D01*
X124142375Y-91539658D01*
X124087798Y-91583283D01*
X124018300Y-91590477D01*
X123955945Y-91558954D01*
X123939225Y-91539658D01*
X123809294Y-91354097D01*
X123642202Y-91187006D01*
X123642195Y-91187001D01*
X123448634Y-91051467D01*
X123448630Y-91051465D01*
X123377527Y-91018309D01*
X123234463Y-90951597D01*
X123234459Y-90951596D01*
X123234455Y-90951594D01*
X123006213Y-90890438D01*
X123006203Y-90890436D01*
X122770801Y-90869841D01*
X122770799Y-90869841D01*
X122535396Y-90890436D01*
X122535386Y-90890438D01*
X122307144Y-90951594D01*
X122307135Y-90951598D01*
X122092971Y-91051464D01*
X122092969Y-91051465D01*
X121899397Y-91187005D01*
X121732305Y-91354097D01*
X121602375Y-91539658D01*
X121547798Y-91583283D01*
X121478300Y-91590477D01*
X121415945Y-91558954D01*
X121399225Y-91539658D01*
X121269294Y-91354097D01*
X121102202Y-91187006D01*
X121102195Y-91187001D01*
X120908634Y-91051467D01*
X120908630Y-91051465D01*
X120837527Y-91018309D01*
X120694463Y-90951597D01*
X120694459Y-90951596D01*
X120694455Y-90951594D01*
X120466213Y-90890438D01*
X120466203Y-90890436D01*
X120230801Y-90869841D01*
X120230799Y-90869841D01*
X119995396Y-90890436D01*
X119995386Y-90890438D01*
X119767144Y-90951594D01*
X119767135Y-90951598D01*
X119552971Y-91051464D01*
X119552969Y-91051465D01*
X119359397Y-91187005D01*
X119192305Y-91354097D01*
X119062375Y-91539658D01*
X119007798Y-91583283D01*
X118938300Y-91590477D01*
X118875945Y-91558954D01*
X118859225Y-91539658D01*
X118729294Y-91354097D01*
X118562202Y-91187006D01*
X118562195Y-91187001D01*
X118368634Y-91051467D01*
X118368630Y-91051465D01*
X118297527Y-91018309D01*
X118154463Y-90951597D01*
X118154459Y-90951596D01*
X118154455Y-90951594D01*
X117926213Y-90890438D01*
X117926203Y-90890436D01*
X117690801Y-90869841D01*
X117690799Y-90869841D01*
X117455396Y-90890436D01*
X117455386Y-90890438D01*
X117227144Y-90951594D01*
X117227135Y-90951598D01*
X117012971Y-91051464D01*
X117012969Y-91051465D01*
X116819397Y-91187005D01*
X116652305Y-91354097D01*
X116522375Y-91539658D01*
X116467798Y-91583283D01*
X116398300Y-91590477D01*
X116335945Y-91558954D01*
X116319225Y-91539658D01*
X116189294Y-91354097D01*
X116022202Y-91187006D01*
X116022195Y-91187001D01*
X115828634Y-91051467D01*
X115828630Y-91051465D01*
X115757527Y-91018309D01*
X115614463Y-90951597D01*
X115614459Y-90951596D01*
X115614455Y-90951594D01*
X115386213Y-90890438D01*
X115386203Y-90890436D01*
X115150801Y-90869841D01*
X115150799Y-90869841D01*
X114915396Y-90890436D01*
X114915386Y-90890438D01*
X114687144Y-90951594D01*
X114687135Y-90951598D01*
X114472971Y-91051464D01*
X114472969Y-91051465D01*
X114279400Y-91187003D01*
X114157084Y-91309319D01*
X114095761Y-91342803D01*
X114026069Y-91337819D01*
X113970136Y-91295947D01*
X113953221Y-91264970D01*
X113904154Y-91133413D01*
X113904150Y-91133406D01*
X113817990Y-91018312D01*
X113817987Y-91018309D01*
X113702893Y-90932149D01*
X113702886Y-90932145D01*
X113568179Y-90881903D01*
X113568172Y-90881901D01*
X113508644Y-90875500D01*
X112860800Y-90875500D01*
X112860800Y-91792488D01*
X112803793Y-91759575D01*
X112676626Y-91725500D01*
X112544974Y-91725500D01*
X112417807Y-91759575D01*
X112360800Y-91792488D01*
X112360800Y-90875500D01*
X111712955Y-90875500D01*
X111653427Y-90881901D01*
X111653420Y-90881903D01*
X111518713Y-90932145D01*
X111518706Y-90932149D01*
X111403612Y-91018309D01*
X111403609Y-91018312D01*
X111317449Y-91133406D01*
X111317445Y-91133413D01*
X111267203Y-91268120D01*
X111267201Y-91268127D01*
X111260800Y-91327655D01*
X111260800Y-91975500D01*
X112177788Y-91975500D01*
X112144875Y-92032507D01*
X112110800Y-92159674D01*
X112110800Y-92291326D01*
X112144875Y-92418493D01*
X112177788Y-92475500D01*
X111260800Y-92475500D01*
X111260800Y-93123344D01*
X111267201Y-93182872D01*
X111267203Y-93182879D01*
X111317445Y-93317586D01*
X111317449Y-93317593D01*
X111403609Y-93432687D01*
X111403612Y-93432690D01*
X111518706Y-93518850D01*
X111518713Y-93518854D01*
X111653420Y-93569096D01*
X111653427Y-93569098D01*
X111712955Y-93575499D01*
X111712972Y-93575500D01*
X112360800Y-93575500D01*
X112360800Y-92658512D01*
X112417807Y-92691425D01*
X112544974Y-92725500D01*
X112676626Y-92725500D01*
X112803793Y-92691425D01*
X112860800Y-92658512D01*
X112860800Y-93575500D01*
X113508628Y-93575500D01*
X113508644Y-93575499D01*
X113568172Y-93569098D01*
X113568179Y-93569096D01*
X113702886Y-93518854D01*
X113702893Y-93518850D01*
X113817987Y-93432690D01*
X113817990Y-93432687D01*
X113904150Y-93317593D01*
X113904154Y-93317586D01*
X113953222Y-93186029D01*
X113995093Y-93130095D01*
X114060557Y-93105678D01*
X114128830Y-93120530D01*
X114157082Y-93141678D01*
X114279399Y-93263995D01*
X114347423Y-93311625D01*
X114391048Y-93366201D01*
X114400300Y-93413200D01*
X114400300Y-96037798D01*
X114380615Y-96104837D01*
X114347425Y-96139372D01*
X114279399Y-96187005D01*
X114157084Y-96309319D01*
X114095760Y-96342803D01*
X114026069Y-96337818D01*
X113970135Y-96295947D01*
X113953221Y-96264970D01*
X113904154Y-96133413D01*
X113904150Y-96133406D01*
X113817990Y-96018312D01*
X113817987Y-96018309D01*
X113702893Y-95932149D01*
X113702886Y-95932145D01*
X113568179Y-95881903D01*
X113568172Y-95881901D01*
X113508644Y-95875500D01*
X112860800Y-95875500D01*
X112860800Y-96792488D01*
X112803793Y-96759575D01*
X112676626Y-96725500D01*
X112544974Y-96725500D01*
X112417807Y-96759575D01*
X112360800Y-96792488D01*
X112360800Y-95875500D01*
X111712955Y-95875500D01*
X111653427Y-95881901D01*
X111653420Y-95881903D01*
X111518713Y-95932145D01*
X111518706Y-95932149D01*
X111403612Y-96018309D01*
X111403609Y-96018312D01*
X111317449Y-96133406D01*
X111317445Y-96133413D01*
X111267203Y-96268120D01*
X111267201Y-96268127D01*
X111260800Y-96327655D01*
X111260800Y-96975500D01*
X112177788Y-96975500D01*
X112144875Y-97032507D01*
X112110800Y-97159674D01*
X112110800Y-97291326D01*
X112144875Y-97418493D01*
X112177788Y-97475500D01*
X111260800Y-97475500D01*
X111260800Y-98123344D01*
X111267201Y-98182872D01*
X111267203Y-98182879D01*
X111317445Y-98317586D01*
X111317449Y-98317593D01*
X111403609Y-98432687D01*
X111403612Y-98432690D01*
X111518706Y-98518850D01*
X111518713Y-98518854D01*
X111653420Y-98569096D01*
X111653427Y-98569098D01*
X111712955Y-98575499D01*
X111712972Y-98575500D01*
X112360800Y-98575500D01*
X112360800Y-97658512D01*
X112417807Y-97691425D01*
X112544974Y-97725500D01*
X112676626Y-97725500D01*
X112803793Y-97691425D01*
X112860800Y-97658512D01*
X112860800Y-98575500D01*
X113508628Y-98575500D01*
X113508644Y-98575499D01*
X113568172Y-98569098D01*
X113568179Y-98569096D01*
X113702886Y-98518854D01*
X113702893Y-98518850D01*
X113817987Y-98432690D01*
X113817990Y-98432687D01*
X113904150Y-98317593D01*
X113904154Y-98317586D01*
X113953222Y-98186029D01*
X113995093Y-98130095D01*
X114060557Y-98105678D01*
X114128830Y-98120530D01*
X114157082Y-98141678D01*
X114279399Y-98263995D01*
X114347423Y-98311625D01*
X114391048Y-98366201D01*
X114400300Y-98413200D01*
X114400300Y-110224718D01*
X114400300Y-110224720D01*
X114400299Y-110224720D01*
X114429140Y-110369707D01*
X114429143Y-110369717D01*
X114485713Y-110506290D01*
X114485714Y-110506292D01*
X114513693Y-110548165D01*
X114513694Y-110548167D01*
X114567843Y-110629210D01*
X114567847Y-110629215D01*
X124627130Y-120688498D01*
X124660615Y-120749821D01*
X124662977Y-120786986D01*
X124644341Y-120999997D01*
X124644341Y-121000000D01*
X124664936Y-121235403D01*
X124664938Y-121235413D01*
X124726094Y-121463655D01*
X124726096Y-121463659D01*
X124726097Y-121463663D01*
X124825965Y-121677830D01*
X124825967Y-121677834D01*
X124934281Y-121832521D01*
X124961505Y-121871401D01*
X125128599Y-122038495D01*
X125225384Y-122106265D01*
X125322165Y-122174032D01*
X125322167Y-122174033D01*
X125322170Y-122174035D01*
X125536337Y-122273903D01*
X125764592Y-122335063D01*
X125952918Y-122351539D01*
X125999999Y-122355659D01*
X126000000Y-122355659D01*
X126000001Y-122355659D01*
X126039234Y-122352226D01*
X126235408Y-122335063D01*
X126463663Y-122273903D01*
X126677830Y-122174035D01*
X126871401Y-122038495D01*
X127038495Y-121871401D01*
X127174035Y-121677830D01*
X127273903Y-121463663D01*
X127335063Y-121235408D01*
X127355659Y-121000000D01*
X127335063Y-120764592D01*
X127288049Y-120589132D01*
X127273905Y-120536344D01*
X127273904Y-120536343D01*
X127273903Y-120536337D01*
X127174035Y-120322171D01*
X127038495Y-120128599D01*
X127038494Y-120128597D01*
X126871402Y-119961506D01*
X126871396Y-119961501D01*
X126685842Y-119831575D01*
X126642217Y-119776998D01*
X126635023Y-119707500D01*
X126666546Y-119645145D01*
X126685842Y-119628425D01*
X126708026Y-119612891D01*
X126871401Y-119498495D01*
X127038495Y-119331401D01*
X127174035Y-119137830D01*
X127273903Y-118923663D01*
X127335063Y-118695408D01*
X127355659Y-118460000D01*
X127337022Y-118246985D01*
X127350788Y-118178486D01*
X127372866Y-118148500D01*
X138593751Y-106927616D01*
X138675884Y-106804695D01*
X138732458Y-106668113D01*
X138761300Y-106523118D01*
X138761300Y-106375283D01*
X138761300Y-106375282D01*
X138761300Y-98413200D01*
X138780985Y-98346161D01*
X138814175Y-98311626D01*
X138882201Y-98263995D01*
X139049295Y-98096901D01*
X139179225Y-97911342D01*
X139233802Y-97867717D01*
X139303300Y-97860523D01*
X139365655Y-97892046D01*
X139382375Y-97911342D01*
X139512300Y-98096895D01*
X139512305Y-98096901D01*
X139679399Y-98263995D01*
X139747420Y-98311624D01*
X139872965Y-98399532D01*
X139872967Y-98399533D01*
X139872970Y-98399535D01*
X140087137Y-98499403D01*
X140315392Y-98560563D01*
X140486119Y-98575500D01*
X140550799Y-98581159D01*
X140550800Y-98581159D01*
X140550801Y-98581159D01*
X140615481Y-98575500D01*
X140786208Y-98560563D01*
X141014463Y-98499403D01*
X141228630Y-98399535D01*
X141422201Y-98263995D01*
X141589295Y-98096901D01*
X141719225Y-97911342D01*
X141773802Y-97867717D01*
X141843300Y-97860523D01*
X141905655Y-97892046D01*
X141922375Y-97911342D01*
X142052300Y-98096895D01*
X142052305Y-98096901D01*
X142219399Y-98263995D01*
X142287420Y-98311624D01*
X142412965Y-98399532D01*
X142412967Y-98399533D01*
X142412970Y-98399535D01*
X142627137Y-98499403D01*
X142855392Y-98560563D01*
X143026119Y-98575500D01*
X143090799Y-98581159D01*
X143090800Y-98581159D01*
X143090801Y-98581159D01*
X143155481Y-98575500D01*
X143326208Y-98560563D01*
X143554463Y-98499403D01*
X143768630Y-98399535D01*
X143962201Y-98263995D01*
X144129295Y-98096901D01*
X144259225Y-97911342D01*
X144313802Y-97867717D01*
X144383300Y-97860523D01*
X144445655Y-97892046D01*
X144462375Y-97911342D01*
X144592300Y-98096895D01*
X144592305Y-98096901D01*
X144759399Y-98263995D01*
X144827420Y-98311624D01*
X144952965Y-98399532D01*
X144952967Y-98399533D01*
X144952970Y-98399535D01*
X145167137Y-98499403D01*
X145395392Y-98560563D01*
X145566119Y-98575500D01*
X145630799Y-98581159D01*
X145630800Y-98581159D01*
X145630801Y-98581159D01*
X145695481Y-98575500D01*
X145866208Y-98560563D01*
X146094463Y-98499403D01*
X146308630Y-98399535D01*
X146502201Y-98263995D01*
X146669295Y-98096901D01*
X146799225Y-97911342D01*
X146853802Y-97867717D01*
X146923300Y-97860523D01*
X146985655Y-97892046D01*
X147002375Y-97911342D01*
X147132300Y-98096895D01*
X147132305Y-98096901D01*
X147299399Y-98263995D01*
X147367420Y-98311624D01*
X147492965Y-98399532D01*
X147492967Y-98399533D01*
X147492970Y-98399535D01*
X147707137Y-98499403D01*
X147935392Y-98560563D01*
X148106119Y-98575500D01*
X148170799Y-98581159D01*
X148170800Y-98581159D01*
X148170801Y-98581159D01*
X148235481Y-98575500D01*
X148406208Y-98560563D01*
X148634463Y-98499403D01*
X148848630Y-98399535D01*
X149042201Y-98263995D01*
X149209295Y-98096901D01*
X149339225Y-97911342D01*
X149393802Y-97867717D01*
X149463300Y-97860523D01*
X149525655Y-97892046D01*
X149542375Y-97911342D01*
X149672300Y-98096895D01*
X149672305Y-98096901D01*
X149839399Y-98263995D01*
X149907420Y-98311624D01*
X150032965Y-98399532D01*
X150032967Y-98399533D01*
X150032970Y-98399535D01*
X150247137Y-98499403D01*
X150475392Y-98560563D01*
X150646119Y-98575500D01*
X150710799Y-98581159D01*
X150710800Y-98581159D01*
X150710801Y-98581159D01*
X150775481Y-98575500D01*
X150946208Y-98560563D01*
X151174463Y-98499403D01*
X151388630Y-98399535D01*
X151582201Y-98263995D01*
X151749295Y-98096901D01*
X151879225Y-97911342D01*
X151933802Y-97867717D01*
X152003300Y-97860523D01*
X152065655Y-97892046D01*
X152082375Y-97911342D01*
X152212300Y-98096895D01*
X152212305Y-98096901D01*
X152379399Y-98263995D01*
X152447420Y-98311624D01*
X152572965Y-98399532D01*
X152572967Y-98399533D01*
X152572970Y-98399535D01*
X152787137Y-98499403D01*
X153015392Y-98560563D01*
X153186119Y-98575500D01*
X153250799Y-98581159D01*
X153250800Y-98581159D01*
X153250801Y-98581159D01*
X153315481Y-98575500D01*
X153486208Y-98560563D01*
X153714463Y-98499403D01*
X153928630Y-98399535D01*
X154122201Y-98263995D01*
X154289295Y-98096901D01*
X154419225Y-97911342D01*
X154473802Y-97867717D01*
X154543300Y-97860523D01*
X154605655Y-97892046D01*
X154622375Y-97911342D01*
X154752300Y-98096895D01*
X154752305Y-98096901D01*
X154919399Y-98263995D01*
X154987420Y-98311624D01*
X155112965Y-98399532D01*
X155112967Y-98399533D01*
X155112970Y-98399535D01*
X155327137Y-98499403D01*
X155555392Y-98560563D01*
X155726119Y-98575500D01*
X155790799Y-98581159D01*
X155790800Y-98581159D01*
X155790801Y-98581159D01*
X155855481Y-98575500D01*
X156026208Y-98560563D01*
X156254463Y-98499403D01*
X156468630Y-98399535D01*
X156662201Y-98263995D01*
X156829295Y-98096901D01*
X156959225Y-97911342D01*
X157013802Y-97867717D01*
X157083300Y-97860523D01*
X157145655Y-97892046D01*
X157162375Y-97911342D01*
X157292300Y-98096895D01*
X157292305Y-98096901D01*
X157459399Y-98263995D01*
X157527420Y-98311624D01*
X157652965Y-98399532D01*
X157652967Y-98399533D01*
X157652970Y-98399535D01*
X157867137Y-98499403D01*
X158095392Y-98560563D01*
X158266119Y-98575500D01*
X158330799Y-98581159D01*
X158330800Y-98581159D01*
X158330801Y-98581159D01*
X158395481Y-98575500D01*
X158566208Y-98560563D01*
X158794463Y-98499403D01*
X159008630Y-98399535D01*
X159202201Y-98263995D01*
X159369295Y-98096901D01*
X159499225Y-97911342D01*
X159553802Y-97867717D01*
X159623300Y-97860523D01*
X159685655Y-97892046D01*
X159702375Y-97911342D01*
X159832300Y-98096895D01*
X159832305Y-98096901D01*
X159999399Y-98263995D01*
X160067420Y-98311624D01*
X160192965Y-98399532D01*
X160192967Y-98399533D01*
X160192970Y-98399535D01*
X160407137Y-98499403D01*
X160635392Y-98560563D01*
X160806119Y-98575500D01*
X160870799Y-98581159D01*
X160870800Y-98581159D01*
X160870801Y-98581159D01*
X160935481Y-98575500D01*
X161106208Y-98560563D01*
X161334463Y-98499403D01*
X161548630Y-98399535D01*
X161742201Y-98263995D01*
X161909295Y-98096901D01*
X162044835Y-97903330D01*
X162144703Y-97689163D01*
X162205863Y-97460908D01*
X162226459Y-97225500D01*
X162225255Y-97211744D01*
X162209574Y-97032507D01*
X162205863Y-96990092D01*
X162144703Y-96761837D01*
X162044835Y-96547671D01*
X162039225Y-96539658D01*
X161909294Y-96354097D01*
X161742204Y-96187007D01*
X161674175Y-96139372D01*
X161630551Y-96084794D01*
X161621300Y-96037798D01*
X161621300Y-93413200D01*
X161640985Y-93346161D01*
X161674175Y-93311626D01*
X161742201Y-93263995D01*
X161909295Y-93096901D01*
X162044835Y-92903330D01*
X162144703Y-92689163D01*
X162205863Y-92460908D01*
X162226459Y-92225500D01*
X162205863Y-91990092D01*
X162144703Y-91761837D01*
X162044835Y-91547671D01*
X162039225Y-91539658D01*
X161909294Y-91354097D01*
X161742202Y-91187006D01*
X161742195Y-91187001D01*
X161548634Y-91051467D01*
X161548630Y-91051465D01*
X161477527Y-91018309D01*
X161334463Y-90951597D01*
X161334459Y-90951596D01*
X161334455Y-90951594D01*
X161106213Y-90890438D01*
X161106203Y-90890436D01*
X160870801Y-90869841D01*
X160870799Y-90869841D01*
X160635396Y-90890436D01*
X160635386Y-90890438D01*
X160407144Y-90951594D01*
X160407135Y-90951598D01*
X160192971Y-91051464D01*
X160192969Y-91051465D01*
X159999397Y-91187005D01*
X159832305Y-91354097D01*
X159702375Y-91539658D01*
X159647798Y-91583283D01*
X159578300Y-91590477D01*
X159515945Y-91558954D01*
X159499225Y-91539658D01*
X159369294Y-91354097D01*
X159202202Y-91187006D01*
X159202195Y-91187001D01*
X159008634Y-91051467D01*
X159008630Y-91051465D01*
X158937527Y-91018309D01*
X158794463Y-90951597D01*
X158794459Y-90951596D01*
X158794455Y-90951594D01*
X158566213Y-90890438D01*
X158566203Y-90890436D01*
X158330801Y-90869841D01*
X158330799Y-90869841D01*
X158095396Y-90890436D01*
X158095386Y-90890438D01*
X157867144Y-90951594D01*
X157867135Y-90951598D01*
X157652971Y-91051464D01*
X157652969Y-91051465D01*
X157459397Y-91187005D01*
X157292305Y-91354097D01*
X157162375Y-91539658D01*
X157107798Y-91583283D01*
X157038300Y-91590477D01*
X156975945Y-91558954D01*
X156959225Y-91539658D01*
X156829294Y-91354097D01*
X156662202Y-91187006D01*
X156662195Y-91187001D01*
X156468634Y-91051467D01*
X156468630Y-91051465D01*
X156397527Y-91018309D01*
X156254463Y-90951597D01*
X156254459Y-90951596D01*
X156254455Y-90951594D01*
X156026213Y-90890438D01*
X156026203Y-90890436D01*
X155942624Y-90883124D01*
X155877555Y-90857671D01*
X155836577Y-90801080D01*
X155832699Y-90731318D01*
X155865749Y-90671917D01*
X156837666Y-89700000D01*
X167444498Y-89700000D01*
X167464496Y-90158045D01*
X167524339Y-90612595D01*
X167524340Y-90612604D01*
X167623576Y-91060229D01*
X167663548Y-91187003D01*
X167761444Y-91497488D01*
X167826346Y-91654174D01*
X167936899Y-91921075D01*
X168148596Y-92327741D01*
X168394947Y-92714436D01*
X168674046Y-93078165D01*
X168674050Y-93078170D01*
X168983798Y-93416200D01*
X168983799Y-93416201D01*
X169321829Y-93725949D01*
X169321834Y-93725953D01*
X169685563Y-94005052D01*
X169685568Y-94005055D01*
X170072249Y-94251398D01*
X170072255Y-94251401D01*
X170072258Y-94251403D01*
X170478924Y-94463100D01*
X170478929Y-94463102D01*
X170902512Y-94638556D01*
X171339776Y-94776425D01*
X171787392Y-94875659D01*
X172241953Y-94935503D01*
X172700000Y-94955502D01*
X173158047Y-94935503D01*
X173612608Y-94875659D01*
X174060224Y-94776425D01*
X174497488Y-94638556D01*
X174921071Y-94463102D01*
X175327751Y-94251398D01*
X175714432Y-94005055D01*
X176078172Y-93725948D01*
X176416201Y-93416201D01*
X176725948Y-93078172D01*
X177005055Y-92714432D01*
X177251398Y-92327751D01*
X177463102Y-91921071D01*
X177638556Y-91497488D01*
X177776425Y-91060224D01*
X177875659Y-90612608D01*
X177935503Y-90158047D01*
X177955502Y-89700000D01*
X177935503Y-89241953D01*
X177875659Y-88787392D01*
X177776425Y-88339776D01*
X177638556Y-87902512D01*
X177463102Y-87478929D01*
X177463100Y-87478924D01*
X177251403Y-87072258D01*
X177251401Y-87072255D01*
X177251398Y-87072249D01*
X177005055Y-86685568D01*
X177005052Y-86685563D01*
X176725953Y-86321834D01*
X176725949Y-86321829D01*
X176416201Y-85983799D01*
X176416200Y-85983798D01*
X176078170Y-85674050D01*
X176078165Y-85674046D01*
X175714436Y-85394947D01*
X175483727Y-85247969D01*
X175327751Y-85148602D01*
X175327747Y-85148600D01*
X175327741Y-85148596D01*
X174921075Y-84936899D01*
X174661300Y-84829297D01*
X174497488Y-84761444D01*
X174342891Y-84712699D01*
X174060229Y-84623576D01*
X173612604Y-84524340D01*
X173612595Y-84524339D01*
X173158045Y-84464496D01*
X172700000Y-84444498D01*
X172241954Y-84464496D01*
X171787404Y-84524339D01*
X171787395Y-84524340D01*
X171339770Y-84623576D01*
X170902512Y-84761444D01*
X170478924Y-84936899D01*
X170072258Y-85148596D01*
X169685563Y-85394947D01*
X169321834Y-85674046D01*
X169321829Y-85674050D01*
X168983799Y-85983798D01*
X168983798Y-85983799D01*
X168674050Y-86321829D01*
X168674046Y-86321834D01*
X168394947Y-86685563D01*
X168148596Y-87072258D01*
X167936899Y-87478924D01*
X167761444Y-87902512D01*
X167623576Y-88339770D01*
X167524340Y-88787395D01*
X167524339Y-88787404D01*
X167464496Y-89241954D01*
X167444498Y-89700000D01*
X156837666Y-89700000D01*
X166537667Y-80000000D01*
X169994540Y-80000000D01*
X170014326Y-80188256D01*
X170014327Y-80188259D01*
X170072818Y-80368277D01*
X170072821Y-80368284D01*
X170167467Y-80532216D01*
X170294129Y-80672888D01*
X170447265Y-80784148D01*
X170447270Y-80784151D01*
X170620191Y-80861142D01*
X170620193Y-80861142D01*
X170620197Y-80861144D01*
X170685329Y-80874987D01*
X170746809Y-80908178D01*
X170747228Y-80908596D01*
X172921586Y-83082954D01*
X172951058Y-83102645D01*
X172995270Y-83132186D01*
X173044505Y-83165084D01*
X173044506Y-83165084D01*
X173044507Y-83165085D01*
X173044509Y-83165086D01*
X173181082Y-83221656D01*
X173181087Y-83221658D01*
X173181091Y-83221658D01*
X173181092Y-83221659D01*
X173326079Y-83250500D01*
X173326082Y-83250500D01*
X173326083Y-83250500D01*
X173473917Y-83250500D01*
X186560663Y-83250500D01*
X186627702Y-83270185D01*
X186633548Y-83274182D01*
X186647265Y-83284148D01*
X186647270Y-83284151D01*
X186820192Y-83361142D01*
X186820197Y-83361144D01*
X187005354Y-83400500D01*
X187005355Y-83400500D01*
X187194644Y-83400500D01*
X187194646Y-83400500D01*
X187379803Y-83361144D01*
X187552730Y-83284151D01*
X187705871Y-83172888D01*
X187832533Y-83032216D01*
X187927179Y-82868284D01*
X187985674Y-82688256D01*
X188005460Y-82500000D01*
X187985674Y-82311744D01*
X187927179Y-82131716D01*
X187832533Y-81967784D01*
X187705871Y-81827112D01*
X187705870Y-81827111D01*
X187552734Y-81715851D01*
X187552729Y-81715848D01*
X187379807Y-81638857D01*
X187379802Y-81638855D01*
X187234001Y-81607865D01*
X187194646Y-81599500D01*
X187005354Y-81599500D01*
X186972897Y-81606398D01*
X186820197Y-81638855D01*
X186820192Y-81638857D01*
X186647270Y-81715848D01*
X186647265Y-81715851D01*
X186633548Y-81725818D01*
X186567742Y-81749298D01*
X186560663Y-81749500D01*
X173762230Y-81749500D01*
X173695191Y-81729815D01*
X173674549Y-81713181D01*
X171812770Y-79851402D01*
X171782521Y-79802041D01*
X171727179Y-79631716D01*
X171632533Y-79467784D01*
X171505871Y-79327112D01*
X171505870Y-79327111D01*
X171352734Y-79215851D01*
X171352729Y-79215848D01*
X171179807Y-79138857D01*
X171179802Y-79138855D01*
X171034001Y-79107865D01*
X170994646Y-79099500D01*
X170805354Y-79099500D01*
X170772897Y-79106398D01*
X170620197Y-79138855D01*
X170620192Y-79138857D01*
X170447270Y-79215848D01*
X170447265Y-79215851D01*
X170294129Y-79327111D01*
X170167466Y-79467785D01*
X170072821Y-79631715D01*
X170072818Y-79631722D01*
X170017479Y-79802039D01*
X170014326Y-79811744D01*
X169994540Y-80000000D01*
X166537667Y-80000000D01*
X170450848Y-76086819D01*
X170512171Y-76053334D01*
X170538529Y-76050500D01*
X175099420Y-76050500D01*
X175196962Y-76031096D01*
X175244413Y-76021658D01*
X175380995Y-75965084D01*
X175430229Y-75932186D01*
X175503916Y-75882952D01*
X188268499Y-63118367D01*
X188329820Y-63084884D01*
X188366984Y-63082522D01*
X188527235Y-63096542D01*
X188579999Y-63101159D01*
X188580000Y-63101159D01*
X188580001Y-63101159D01*
X188619234Y-63097726D01*
X188815408Y-63080563D01*
X189043663Y-63019403D01*
X189257830Y-62919535D01*
X189451401Y-62783995D01*
X189618495Y-62616901D01*
X189754035Y-62423330D01*
X189853903Y-62209163D01*
X189915063Y-61980908D01*
X189935659Y-61745500D01*
X189915063Y-61510092D01*
X189853903Y-61281837D01*
X189754035Y-61067671D01*
X189748425Y-61059658D01*
X189618494Y-60874097D01*
X189451402Y-60707006D01*
X189451395Y-60707001D01*
X189450899Y-60706654D01*
X189338005Y-60627604D01*
X189257834Y-60571467D01*
X189257830Y-60571465D01*
X189186727Y-60538309D01*
X189043663Y-60471597D01*
X189043659Y-60471596D01*
X189043655Y-60471594D01*
X188815413Y-60410438D01*
X188815403Y-60410436D01*
X188580001Y-60389841D01*
X188579999Y-60389841D01*
X188344596Y-60410436D01*
X188344586Y-60410438D01*
X188116344Y-60471594D01*
X188116335Y-60471598D01*
X187902171Y-60571464D01*
X187902169Y-60571465D01*
X187708597Y-60707005D01*
X187541505Y-60874097D01*
X187411575Y-61059658D01*
X187356998Y-61103283D01*
X187287500Y-61110477D01*
X187225145Y-61078954D01*
X187208425Y-61059658D01*
X187078494Y-60874097D01*
X186911402Y-60707006D01*
X186911395Y-60707001D01*
X186910899Y-60706654D01*
X186798005Y-60627604D01*
X186717834Y-60571467D01*
X186717830Y-60571465D01*
X186646727Y-60538309D01*
X186503663Y-60471597D01*
X186503659Y-60471596D01*
X186503655Y-60471594D01*
X186275413Y-60410438D01*
X186275403Y-60410436D01*
X186040001Y-60389841D01*
X186039999Y-60389841D01*
X185804596Y-60410436D01*
X185804586Y-60410438D01*
X185576344Y-60471594D01*
X185576335Y-60471598D01*
X185362171Y-60571464D01*
X185362169Y-60571465D01*
X185168597Y-60707005D01*
X185001505Y-60874097D01*
X184871575Y-61059658D01*
X184816998Y-61103283D01*
X184747500Y-61110477D01*
X184685145Y-61078954D01*
X184668425Y-61059658D01*
X184538494Y-60874097D01*
X184371402Y-60707006D01*
X184371395Y-60707001D01*
X184370899Y-60706654D01*
X184258005Y-60627604D01*
X184177834Y-60571467D01*
X184177830Y-60571465D01*
X184106727Y-60538309D01*
X183963663Y-60471597D01*
X183963659Y-60471596D01*
X183963655Y-60471594D01*
X183735413Y-60410438D01*
X183735403Y-60410436D01*
X183500001Y-60389841D01*
X183499999Y-60389841D01*
X183264596Y-60410436D01*
X183264586Y-60410438D01*
X183036344Y-60471594D01*
X183036335Y-60471598D01*
X182822171Y-60571464D01*
X182822169Y-60571465D01*
X182628597Y-60707005D01*
X182461505Y-60874097D01*
X182331575Y-61059658D01*
X182276998Y-61103283D01*
X182207500Y-61110477D01*
X182145145Y-61078954D01*
X182128425Y-61059658D01*
X181998494Y-60874097D01*
X181831402Y-60707006D01*
X181831395Y-60707001D01*
X181830899Y-60706654D01*
X181718005Y-60627604D01*
X181637834Y-60571467D01*
X181637830Y-60571465D01*
X181566727Y-60538309D01*
X181423663Y-60471597D01*
X181423659Y-60471596D01*
X181423655Y-60471594D01*
X181195413Y-60410438D01*
X181195403Y-60410436D01*
X180960001Y-60389841D01*
X180959999Y-60389841D01*
X180724596Y-60410436D01*
X180724586Y-60410438D01*
X180496344Y-60471594D01*
X180496335Y-60471598D01*
X180282171Y-60571464D01*
X180282169Y-60571465D01*
X180088597Y-60707005D01*
X179921505Y-60874097D01*
X179791575Y-61059658D01*
X179736998Y-61103283D01*
X179667500Y-61110477D01*
X179605145Y-61078954D01*
X179588425Y-61059658D01*
X179458494Y-60874097D01*
X179291402Y-60707006D01*
X179291395Y-60707001D01*
X179290899Y-60706654D01*
X179178005Y-60627604D01*
X179097834Y-60571467D01*
X179097830Y-60571465D01*
X179026727Y-60538309D01*
X178883663Y-60471597D01*
X178883659Y-60471596D01*
X178883655Y-60471594D01*
X178655413Y-60410438D01*
X178655403Y-60410436D01*
X178420001Y-60389841D01*
X178419999Y-60389841D01*
X178184596Y-60410436D01*
X178184586Y-60410438D01*
X177956344Y-60471594D01*
X177956335Y-60471598D01*
X177742171Y-60571464D01*
X177742169Y-60571465D01*
X177548600Y-60707003D01*
X177426284Y-60829319D01*
X177364961Y-60862803D01*
X177295269Y-60857819D01*
X177239336Y-60815947D01*
X177222421Y-60784970D01*
X177173354Y-60653413D01*
X177173350Y-60653406D01*
X177087190Y-60538312D01*
X177087187Y-60538309D01*
X176972093Y-60452149D01*
X176972086Y-60452145D01*
X176837379Y-60401903D01*
X176837372Y-60401901D01*
X176777844Y-60395500D01*
X176130000Y-60395500D01*
X176130000Y-61312488D01*
X176072993Y-61279575D01*
X175945826Y-61245500D01*
X175814174Y-61245500D01*
X175687007Y-61279575D01*
X175630000Y-61312488D01*
X175630000Y-60395500D01*
X174982155Y-60395500D01*
X174922627Y-60401901D01*
X174922620Y-60401903D01*
X174787913Y-60452145D01*
X174787906Y-60452149D01*
X174672812Y-60538309D01*
X174672809Y-60538312D01*
X174586649Y-60653406D01*
X174586645Y-60653413D01*
X174537578Y-60784970D01*
X174495707Y-60840904D01*
X174430242Y-60865321D01*
X174361969Y-60850469D01*
X174333715Y-60829319D01*
X174275303Y-60770907D01*
X174211401Y-60707005D01*
X174173744Y-60680637D01*
X174143375Y-60659372D01*
X174099751Y-60604794D01*
X174090500Y-60557798D01*
X174090500Y-57022230D01*
X174110185Y-56955191D01*
X174126819Y-56934549D01*
X175074549Y-55986819D01*
X175135872Y-55953334D01*
X175162230Y-55950500D01*
X191137770Y-55950500D01*
X191204809Y-55970185D01*
X191225451Y-55986819D01*
X193613181Y-58374548D01*
X193646666Y-58435871D01*
X193649500Y-58462229D01*
X193649500Y-96865677D01*
X193632887Y-96927677D01*
X193572821Y-97031714D01*
X193514327Y-97211740D01*
X193514326Y-97211744D01*
X193494540Y-97400000D01*
X193514326Y-97588256D01*
X193514327Y-97588259D01*
X193572818Y-97768277D01*
X193572821Y-97768284D01*
X193632887Y-97872321D01*
X193649500Y-97934321D01*
X193649500Y-120973918D01*
X193649500Y-120973920D01*
X193649499Y-120973920D01*
X193678340Y-121118907D01*
X193678343Y-121118917D01*
X193734913Y-121255490D01*
X193734914Y-121255492D01*
X193759198Y-121291835D01*
X193759199Y-121291837D01*
X193817043Y-121378410D01*
X193817047Y-121378415D01*
X198687228Y-126248595D01*
X198717478Y-126297958D01*
X198772818Y-126468277D01*
X198772821Y-126468284D01*
X198867467Y-126632216D01*
X198994129Y-126772888D01*
X199147265Y-126884148D01*
X199147270Y-126884151D01*
X199320192Y-126961142D01*
X199320197Y-126961144D01*
X199505354Y-127000500D01*
X199505355Y-127000500D01*
X199694644Y-127000500D01*
X199694646Y-127000500D01*
X199879803Y-126961144D01*
X200052730Y-126884151D01*
X200205871Y-126772888D01*
X200332533Y-126632216D01*
X200427179Y-126468284D01*
X200485674Y-126288256D01*
X200505460Y-126100000D01*
X200485674Y-125911744D01*
X200427179Y-125731716D01*
X200332533Y-125567784D01*
X200205871Y-125427112D01*
X200205870Y-125427111D01*
X200052734Y-125315851D01*
X200052729Y-125315848D01*
X199879807Y-125238857D01*
X199879802Y-125238855D01*
X199814669Y-125225011D01*
X199753187Y-125191818D01*
X199752769Y-125191402D01*
X195186819Y-120625451D01*
X195153334Y-120564128D01*
X195150500Y-120537770D01*
X195150500Y-97934321D01*
X195167113Y-97872321D01*
X195169771Y-97867717D01*
X195227179Y-97768284D01*
X195285674Y-97588256D01*
X195305460Y-97400000D01*
X195285674Y-97211744D01*
X195227179Y-97031716D01*
X195167113Y-96927677D01*
X195150500Y-96865677D01*
X195150500Y-65000000D01*
X198094540Y-65000000D01*
X198114326Y-65188256D01*
X198114327Y-65188259D01*
X198172818Y-65368277D01*
X198172821Y-65368284D01*
X198232887Y-65472321D01*
X198249500Y-65534321D01*
X198249500Y-101865677D01*
X198232887Y-101927677D01*
X198172821Y-102031714D01*
X198114327Y-102211740D01*
X198114326Y-102211744D01*
X198094540Y-102400000D01*
X198114326Y-102588256D01*
X198114327Y-102588259D01*
X198172818Y-102768277D01*
X198172821Y-102768284D01*
X198267467Y-102932216D01*
X198394129Y-103072888D01*
X198547265Y-103184148D01*
X198547270Y-103184151D01*
X198720192Y-103261142D01*
X198720197Y-103261144D01*
X198905354Y-103300500D01*
X198905355Y-103300500D01*
X199094644Y-103300500D01*
X199094646Y-103300500D01*
X199279803Y-103261144D01*
X199452730Y-103184151D01*
X199605871Y-103072888D01*
X199732533Y-102932216D01*
X199827179Y-102768284D01*
X199885674Y-102588256D01*
X199905460Y-102400000D01*
X199885674Y-102211744D01*
X199827179Y-102031716D01*
X199767113Y-101927677D01*
X199750500Y-101865677D01*
X199750500Y-65534321D01*
X199767113Y-65472321D01*
X199827179Y-65368284D01*
X199885674Y-65188256D01*
X199905460Y-65000000D01*
X199885674Y-64811744D01*
X199827179Y-64631716D01*
X199732533Y-64467784D01*
X199605871Y-64327112D01*
X199605870Y-64327111D01*
X199452734Y-64215851D01*
X199452729Y-64215848D01*
X199279807Y-64138857D01*
X199279802Y-64138855D01*
X199134001Y-64107865D01*
X199094646Y-64099500D01*
X198905354Y-64099500D01*
X198872897Y-64106398D01*
X198720197Y-64138855D01*
X198720192Y-64138857D01*
X198547270Y-64215848D01*
X198547265Y-64215851D01*
X198394129Y-64327111D01*
X198267466Y-64467785D01*
X198172821Y-64631715D01*
X198172818Y-64631722D01*
X198114327Y-64811740D01*
X198114326Y-64811744D01*
X198094540Y-65000000D01*
X195150500Y-65000000D01*
X195150500Y-61438389D01*
X197899500Y-61438389D01*
X197899500Y-62161611D01*
X197926598Y-62332701D01*
X197980127Y-62497445D01*
X198058768Y-62651788D01*
X198160586Y-62791928D01*
X198283072Y-62914414D01*
X198423212Y-63016232D01*
X198577555Y-63094873D01*
X198742299Y-63148402D01*
X198913389Y-63175500D01*
X198913390Y-63175500D01*
X199086610Y-63175500D01*
X199086611Y-63175500D01*
X199257701Y-63148402D01*
X199422445Y-63094873D01*
X199576788Y-63016232D01*
X199716928Y-62914414D01*
X199824836Y-62806505D01*
X199886155Y-62773023D01*
X199955847Y-62778007D01*
X200011781Y-62819878D01*
X200018053Y-62829093D01*
X200057682Y-62893343D01*
X200181654Y-63017315D01*
X200330875Y-63109356D01*
X200330880Y-63109358D01*
X200497302Y-63164505D01*
X200497309Y-63164506D01*
X200600019Y-63174999D01*
X200749999Y-63174999D01*
X200750000Y-63174998D01*
X200750000Y-62080330D01*
X200769745Y-62100075D01*
X200855255Y-62149444D01*
X200950630Y-62175000D01*
X201049370Y-62175000D01*
X201144745Y-62149444D01*
X201230255Y-62100075D01*
X201250000Y-62080330D01*
X201250000Y-63174999D01*
X201399972Y-63174999D01*
X201399986Y-63174998D01*
X201502697Y-63164505D01*
X201669119Y-63109358D01*
X201669124Y-63109356D01*
X201818345Y-63017315D01*
X201942315Y-62893345D01*
X202034356Y-62744124D01*
X202034358Y-62744119D01*
X202089505Y-62577697D01*
X202089506Y-62577690D01*
X202099999Y-62474986D01*
X202100000Y-62474973D01*
X202100000Y-62050000D01*
X201280330Y-62050000D01*
X201300075Y-62030255D01*
X201349444Y-61944745D01*
X201375000Y-61849370D01*
X201375000Y-61750630D01*
X201349444Y-61655255D01*
X201300075Y-61569745D01*
X201280330Y-61550000D01*
X202099999Y-61550000D01*
X202099999Y-61125028D01*
X202099998Y-61125013D01*
X202089505Y-61022302D01*
X202034358Y-60855880D01*
X202034356Y-60855875D01*
X201942315Y-60706654D01*
X201818345Y-60582684D01*
X201669124Y-60490643D01*
X201669119Y-60490641D01*
X201502697Y-60435494D01*
X201502690Y-60435493D01*
X201399986Y-60425000D01*
X201250000Y-60425000D01*
X201250000Y-61519670D01*
X201230255Y-61499925D01*
X201144745Y-61450556D01*
X201049370Y-61425000D01*
X200950630Y-61425000D01*
X200855255Y-61450556D01*
X200769745Y-61499925D01*
X200750000Y-61519670D01*
X200750000Y-60425000D01*
X200600027Y-60425000D01*
X200600012Y-60425001D01*
X200497302Y-60435494D01*
X200330880Y-60490641D01*
X200330875Y-60490643D01*
X200181654Y-60582684D01*
X200057684Y-60706654D01*
X200018053Y-60770907D01*
X199966105Y-60817631D01*
X199897142Y-60828853D01*
X199833060Y-60801010D01*
X199824833Y-60793491D01*
X199716930Y-60685588D01*
X199716928Y-60685586D01*
X199576788Y-60583768D01*
X199422445Y-60505127D01*
X199257701Y-60451598D01*
X199257699Y-60451597D01*
X199257698Y-60451597D01*
X199126271Y-60430781D01*
X199086611Y-60424500D01*
X198913389Y-60424500D01*
X198873728Y-60430781D01*
X198742302Y-60451597D01*
X198577552Y-60505128D01*
X198423211Y-60583768D01*
X198362877Y-60627604D01*
X198283072Y-60685586D01*
X198283070Y-60685588D01*
X198283069Y-60685588D01*
X198160588Y-60808069D01*
X198160588Y-60808070D01*
X198160586Y-60808072D01*
X198118992Y-60865321D01*
X198058768Y-60948211D01*
X197980128Y-61102552D01*
X197926597Y-61267302D01*
X197924295Y-61281837D01*
X197899500Y-61438389D01*
X195150500Y-61438389D01*
X195150500Y-58026081D01*
X195144763Y-57997242D01*
X195144763Y-57997240D01*
X195135901Y-57952687D01*
X195121659Y-57881088D01*
X195067408Y-57750117D01*
X195065764Y-57745522D01*
X194982954Y-57621588D01*
X194982953Y-57621587D01*
X194982951Y-57621584D01*
X194878416Y-57517049D01*
X193856867Y-56495500D01*
X192823549Y-55462181D01*
X192790064Y-55400858D01*
X192795048Y-55331166D01*
X192836920Y-55275233D01*
X192902384Y-55250816D01*
X192911230Y-55250500D01*
X198037770Y-55250500D01*
X198104809Y-55270185D01*
X198125451Y-55286819D01*
X203913181Y-61074548D01*
X203946666Y-61135871D01*
X203949500Y-61162229D01*
X203949500Y-80333918D01*
X203949500Y-80333920D01*
X203949499Y-80333920D01*
X203978340Y-80478907D01*
X203978343Y-80478917D01*
X204034912Y-80615488D01*
X204034920Y-80615502D01*
X204064511Y-80659787D01*
X204064512Y-80659790D01*
X204064513Y-80659790D01*
X204117051Y-80738420D01*
X204117052Y-80738421D01*
X204627130Y-81248497D01*
X204660615Y-81309820D01*
X204662977Y-81346985D01*
X204644341Y-81559997D01*
X204644341Y-81560000D01*
X204664936Y-81795403D01*
X204664938Y-81795413D01*
X204726094Y-82023655D01*
X204726096Y-82023659D01*
X204726097Y-82023663D01*
X204776483Y-82131715D01*
X204825965Y-82237830D01*
X204825967Y-82237834D01*
X204961501Y-82431395D01*
X204961506Y-82431402D01*
X205128597Y-82598493D01*
X205128603Y-82598498D01*
X205314158Y-82728425D01*
X205357783Y-82783002D01*
X205364977Y-82852500D01*
X205333454Y-82914855D01*
X205314158Y-82931575D01*
X205128597Y-83061505D01*
X204961505Y-83228597D01*
X204825965Y-83422169D01*
X204825964Y-83422171D01*
X204726098Y-83636335D01*
X204726094Y-83636344D01*
X204664938Y-83864586D01*
X204664936Y-83864596D01*
X204644341Y-84099999D01*
X204644341Y-84100000D01*
X204664936Y-84335403D01*
X204664938Y-84335413D01*
X204726094Y-84563655D01*
X204726096Y-84563659D01*
X204726097Y-84563663D01*
X204754035Y-84623575D01*
X204825965Y-84777830D01*
X204825967Y-84777834D01*
X204961501Y-84971395D01*
X204961506Y-84971402D01*
X205128597Y-85138493D01*
X205128603Y-85138498D01*
X205314158Y-85268425D01*
X205357783Y-85323002D01*
X205364977Y-85392500D01*
X205333454Y-85454855D01*
X205314158Y-85471575D01*
X205128597Y-85601505D01*
X204961505Y-85768597D01*
X204825965Y-85962169D01*
X204825964Y-85962171D01*
X204726098Y-86176335D01*
X204726094Y-86176344D01*
X204664938Y-86404586D01*
X204664936Y-86404596D01*
X204644341Y-86639999D01*
X204644341Y-86640000D01*
X204664936Y-86875403D01*
X204664938Y-86875413D01*
X204726094Y-87103655D01*
X204726096Y-87103659D01*
X204726097Y-87103663D01*
X204825965Y-87317830D01*
X204825967Y-87317834D01*
X204961501Y-87511395D01*
X204961506Y-87511402D01*
X205128597Y-87678493D01*
X205128603Y-87678498D01*
X205314158Y-87808425D01*
X205357783Y-87863002D01*
X205364977Y-87932500D01*
X205333454Y-87994855D01*
X205314158Y-88011575D01*
X205128597Y-88141505D01*
X204961505Y-88308597D01*
X204825965Y-88502169D01*
X204825964Y-88502171D01*
X204726098Y-88716335D01*
X204726094Y-88716344D01*
X204664938Y-88944586D01*
X204664936Y-88944596D01*
X204644341Y-89179999D01*
X204644341Y-89180000D01*
X204664936Y-89415403D01*
X204664938Y-89415413D01*
X204726094Y-89643655D01*
X204726096Y-89643659D01*
X204726097Y-89643663D01*
X204825965Y-89857830D01*
X204825967Y-89857834D01*
X204961501Y-90051395D01*
X204961506Y-90051402D01*
X205128597Y-90218493D01*
X205128603Y-90218498D01*
X205314594Y-90348730D01*
X205358219Y-90403307D01*
X205365413Y-90472805D01*
X205333890Y-90535160D01*
X205314595Y-90551880D01*
X205128922Y-90681890D01*
X205128920Y-90681891D01*
X204961891Y-90848920D01*
X204961886Y-90848926D01*
X204826400Y-91042420D01*
X204826399Y-91042422D01*
X204726570Y-91256507D01*
X204726567Y-91256513D01*
X204669364Y-91469999D01*
X204669364Y-91470000D01*
X205566988Y-91470000D01*
X205534075Y-91527007D01*
X205500000Y-91654174D01*
X205500000Y-91785826D01*
X205534075Y-91912993D01*
X205566988Y-91970000D01*
X204669364Y-91970000D01*
X204726567Y-92183486D01*
X204726570Y-92183492D01*
X204826399Y-92397578D01*
X204961894Y-92591082D01*
X205083946Y-92713134D01*
X205117431Y-92774457D01*
X205112447Y-92844149D01*
X205070575Y-92900082D01*
X205039598Y-92916997D01*
X204907671Y-92966202D01*
X204907664Y-92966206D01*
X204792455Y-93052452D01*
X204792452Y-93052455D01*
X204706206Y-93167664D01*
X204706202Y-93167671D01*
X204655908Y-93302517D01*
X204650949Y-93348650D01*
X204649501Y-93362123D01*
X204649500Y-93362135D01*
X204649500Y-95157870D01*
X204649501Y-95157876D01*
X204655908Y-95217483D01*
X204706202Y-95352328D01*
X204706206Y-95352335D01*
X204792452Y-95467544D01*
X204792455Y-95467547D01*
X204907664Y-95553793D01*
X204907671Y-95553797D01*
X205042517Y-95604091D01*
X205042516Y-95604091D01*
X205049444Y-95604835D01*
X205102127Y-95610500D01*
X206897872Y-95610499D01*
X206957483Y-95604091D01*
X207092331Y-95553796D01*
X207207546Y-95467546D01*
X207293796Y-95352331D01*
X207344091Y-95217483D01*
X207350500Y-95157873D01*
X207350499Y-93362128D01*
X207344091Y-93302517D01*
X207329723Y-93263995D01*
X207293797Y-93167671D01*
X207293793Y-93167664D01*
X207207547Y-93052455D01*
X207207544Y-93052452D01*
X207092335Y-92966206D01*
X207092328Y-92966202D01*
X206960401Y-92916997D01*
X206904467Y-92875126D01*
X206880050Y-92809662D01*
X206894902Y-92741389D01*
X206916053Y-92713133D01*
X207038108Y-92591078D01*
X207173600Y-92397578D01*
X207273429Y-92183492D01*
X207273432Y-92183486D01*
X207330636Y-91970000D01*
X206433012Y-91970000D01*
X206465925Y-91912993D01*
X206500000Y-91785826D01*
X206500000Y-91654174D01*
X206465925Y-91527007D01*
X206433012Y-91470000D01*
X207330636Y-91470000D01*
X207330635Y-91469999D01*
X207273432Y-91256513D01*
X207273429Y-91256507D01*
X207173600Y-91042422D01*
X207173599Y-91042420D01*
X207038113Y-90848926D01*
X207038108Y-90848920D01*
X206871078Y-90681890D01*
X206685405Y-90551879D01*
X206641780Y-90497302D01*
X206634588Y-90427804D01*
X206666110Y-90365449D01*
X206685406Y-90348730D01*
X206871401Y-90218495D01*
X207038495Y-90051401D01*
X207174035Y-89857830D01*
X207273903Y-89643663D01*
X207335063Y-89415408D01*
X207355659Y-89180000D01*
X207335063Y-88944592D01*
X207273903Y-88716337D01*
X207174035Y-88502171D01*
X207060326Y-88339776D01*
X207038494Y-88308597D01*
X206871402Y-88141506D01*
X206871396Y-88141501D01*
X206685842Y-88011575D01*
X206642217Y-87956998D01*
X206635023Y-87887500D01*
X206666546Y-87825145D01*
X206685842Y-87808425D01*
X206708026Y-87792891D01*
X206871401Y-87678495D01*
X207038495Y-87511401D01*
X207174035Y-87317830D01*
X207273903Y-87103663D01*
X207335063Y-86875408D01*
X207355659Y-86640000D01*
X207337022Y-86426984D01*
X207350788Y-86358485D01*
X207372865Y-86328500D01*
X207788319Y-85913048D01*
X207849642Y-85879563D01*
X207919334Y-85884547D01*
X207975267Y-85926419D01*
X207999684Y-85991883D01*
X208000000Y-86000729D01*
X208000000Y-155999289D01*
X207999993Y-156000642D01*
X207997671Y-156213472D01*
X207997206Y-156222926D01*
X207960056Y-156647549D01*
X207958644Y-156658274D01*
X207884746Y-157077376D01*
X207882405Y-157087938D01*
X207772256Y-157499019D01*
X207769003Y-157509335D01*
X207623450Y-157909240D01*
X207619310Y-157919235D01*
X207439454Y-158304937D01*
X207434459Y-158314532D01*
X207221676Y-158683083D01*
X207215864Y-158692207D01*
X206971762Y-159040820D01*
X206965177Y-159049402D01*
X206691616Y-159375420D01*
X206684307Y-159383395D01*
X206383395Y-159684307D01*
X206375420Y-159691616D01*
X206049402Y-159965177D01*
X206040820Y-159971762D01*
X205692207Y-160215864D01*
X205683083Y-160221676D01*
X205314532Y-160434459D01*
X205304937Y-160439454D01*
X204919235Y-160619310D01*
X204909240Y-160623450D01*
X204509335Y-160769003D01*
X204499019Y-160772256D01*
X204087938Y-160882405D01*
X204077376Y-160884746D01*
X203658274Y-160958644D01*
X203647549Y-160960056D01*
X203222926Y-160997206D01*
X203213472Y-160997671D01*
X203005455Y-160999940D01*
X203000640Y-160999993D01*
X202999290Y-161000000D01*
X115000710Y-161000000D01*
X114999359Y-160999993D01*
X114994454Y-160999939D01*
X114786527Y-160997671D01*
X114777073Y-160997206D01*
X114352450Y-160960056D01*
X114341725Y-160958644D01*
X113922623Y-160884746D01*
X113912061Y-160882405D01*
X113500980Y-160772256D01*
X113490664Y-160769003D01*
X113090759Y-160623450D01*
X113080764Y-160619310D01*
X112695062Y-160439454D01*
X112685467Y-160434459D01*
X112316916Y-160221676D01*
X112307792Y-160215864D01*
X111959179Y-159971762D01*
X111950597Y-159965177D01*
X111624579Y-159691616D01*
X111616604Y-159684307D01*
X111315692Y-159383395D01*
X111308383Y-159375420D01*
X111034822Y-159049402D01*
X111028237Y-159040820D01*
X110784135Y-158692207D01*
X110778323Y-158683083D01*
X110565540Y-158314532D01*
X110560545Y-158304937D01*
X110380683Y-157919221D01*
X110376555Y-157909255D01*
X110230992Y-157509322D01*
X110227747Y-157499033D01*
X110117590Y-157087921D01*
X110115256Y-157077393D01*
X110041354Y-156658270D01*
X110039943Y-156647549D01*
X110005643Y-156255501D01*
X110002792Y-156222915D01*
X110002328Y-156213471D01*
X110000833Y-156076423D01*
X110000007Y-156000641D01*
X110000000Y-155999289D01*
X110000000Y-151000000D01*
X114744498Y-151000000D01*
X114764496Y-151458045D01*
X114824339Y-151912595D01*
X114824340Y-151912604D01*
X114923576Y-152360229D01*
X115061444Y-152797487D01*
X115236899Y-153221075D01*
X115448596Y-153627741D01*
X115694947Y-154014436D01*
X115974046Y-154378165D01*
X115974050Y-154378170D01*
X116283798Y-154716200D01*
X116283799Y-154716201D01*
X116621829Y-155025949D01*
X116621834Y-155025953D01*
X116985563Y-155305052D01*
X116985568Y-155305055D01*
X117372249Y-155551398D01*
X117372255Y-155551401D01*
X117372258Y-155551403D01*
X117778924Y-155763100D01*
X117778929Y-155763102D01*
X118202512Y-155938556D01*
X118639776Y-156076425D01*
X119087392Y-156175659D01*
X119541953Y-156235503D01*
X120000000Y-156255502D01*
X120458047Y-156235503D01*
X120912608Y-156175659D01*
X121360224Y-156076425D01*
X121797488Y-155938556D01*
X122221071Y-155763102D01*
X122627751Y-155551398D01*
X123014432Y-155305055D01*
X123378172Y-155025948D01*
X123716201Y-154716201D01*
X124025948Y-154378172D01*
X124305055Y-154014432D01*
X124551398Y-153627751D01*
X124763102Y-153221071D01*
X124938556Y-152797488D01*
X125076425Y-152360224D01*
X125175659Y-151912608D01*
X125235503Y-151458047D01*
X125255502Y-151000000D01*
X192744498Y-151000000D01*
X192764496Y-151458045D01*
X192824339Y-151912595D01*
X192824340Y-151912604D01*
X192923576Y-152360229D01*
X193061444Y-152797487D01*
X193236899Y-153221075D01*
X193448596Y-153627741D01*
X193694947Y-154014436D01*
X193974046Y-154378165D01*
X193974050Y-154378170D01*
X194283798Y-154716200D01*
X194283799Y-154716201D01*
X194621829Y-155025949D01*
X194621834Y-155025953D01*
X194985563Y-155305052D01*
X194985568Y-155305055D01*
X195372249Y-155551398D01*
X195372255Y-155551401D01*
X195372258Y-155551403D01*
X195778924Y-155763100D01*
X195778929Y-155763102D01*
X196202512Y-155938556D01*
X196639776Y-156076425D01*
X197087392Y-156175659D01*
X197541953Y-156235503D01*
X198000000Y-156255502D01*
X198458047Y-156235503D01*
X198912608Y-156175659D01*
X199360224Y-156076425D01*
X199797488Y-155938556D01*
X200221071Y-155763102D01*
X200627751Y-155551398D01*
X201014432Y-155305055D01*
X201378172Y-155025948D01*
X201716201Y-154716201D01*
X202025948Y-154378172D01*
X202305055Y-154014432D01*
X202551398Y-153627751D01*
X202763102Y-153221071D01*
X202938556Y-152797488D01*
X203076425Y-152360224D01*
X203175659Y-151912608D01*
X203235503Y-151458047D01*
X203255502Y-151000000D01*
X203235503Y-150541953D01*
X203175659Y-150087392D01*
X203076425Y-149639776D01*
X202938556Y-149202512D01*
X202763102Y-148778929D01*
X202763100Y-148778924D01*
X202551403Y-148372258D01*
X202551401Y-148372255D01*
X202551398Y-148372249D01*
X202305055Y-147985568D01*
X202305052Y-147985563D01*
X202025953Y-147621834D01*
X202025949Y-147621829D01*
X201716201Y-147283799D01*
X201716200Y-147283798D01*
X201378170Y-146974050D01*
X201378165Y-146974046D01*
X201014436Y-146694947D01*
X200783727Y-146547969D01*
X200627751Y-146448602D01*
X200627747Y-146448600D01*
X200627741Y-146448596D01*
X200221075Y-146236899D01*
X199961300Y-146129297D01*
X199797488Y-146061444D01*
X199642891Y-146012699D01*
X199360229Y-145923576D01*
X198912604Y-145824340D01*
X198912595Y-145824339D01*
X198458045Y-145764496D01*
X198000000Y-145744498D01*
X197541954Y-145764496D01*
X197087404Y-145824339D01*
X197087395Y-145824340D01*
X196639770Y-145923576D01*
X196202512Y-146061444D01*
X195778924Y-146236899D01*
X195372258Y-146448596D01*
X194985563Y-146694947D01*
X194621834Y-146974046D01*
X194621829Y-146974050D01*
X194283799Y-147283798D01*
X194283798Y-147283799D01*
X193974050Y-147621829D01*
X193974046Y-147621834D01*
X193694947Y-147985563D01*
X193448596Y-148372258D01*
X193236899Y-148778924D01*
X193061444Y-149202512D01*
X192923576Y-149639770D01*
X192824340Y-150087395D01*
X192824339Y-150087404D01*
X192764496Y-150541954D01*
X192744498Y-151000000D01*
X125255502Y-151000000D01*
X125235503Y-150541953D01*
X125175659Y-150087392D01*
X125076425Y-149639776D01*
X124938556Y-149202512D01*
X124763102Y-148778929D01*
X124763100Y-148778924D01*
X124551403Y-148372258D01*
X124551401Y-148372255D01*
X124551398Y-148372249D01*
X124305055Y-147985568D01*
X124305052Y-147985563D01*
X124025953Y-147621834D01*
X124025949Y-147621829D01*
X123716201Y-147283799D01*
X123716200Y-147283798D01*
X123378170Y-146974050D01*
X123378165Y-146974046D01*
X123014436Y-146694947D01*
X122783727Y-146547969D01*
X122627751Y-146448602D01*
X122627747Y-146448600D01*
X122627741Y-146448596D01*
X122221075Y-146236899D01*
X121961300Y-146129297D01*
X121797488Y-146061444D01*
X121642891Y-146012699D01*
X121360229Y-145923576D01*
X120912604Y-145824340D01*
X120912595Y-145824339D01*
X120458045Y-145764496D01*
X120000000Y-145744498D01*
X119541954Y-145764496D01*
X119087404Y-145824339D01*
X119087395Y-145824340D01*
X118639770Y-145923576D01*
X118202512Y-146061444D01*
X117778924Y-146236899D01*
X117372258Y-146448596D01*
X116985563Y-146694947D01*
X116621834Y-146974046D01*
X116621829Y-146974050D01*
X116283799Y-147283798D01*
X116283798Y-147283799D01*
X115974050Y-147621829D01*
X115974046Y-147621834D01*
X115694947Y-147985563D01*
X115448596Y-148372258D01*
X115236899Y-148778924D01*
X115061444Y-149202512D01*
X114923576Y-149639770D01*
X114824340Y-150087395D01*
X114824339Y-150087404D01*
X114764496Y-150541954D01*
X114744498Y-151000000D01*
X110000000Y-151000000D01*
X110000000Y-55000710D01*
X110000007Y-54999358D01*
X110002328Y-54786528D01*
X110002793Y-54777073D01*
X110010224Y-54692147D01*
X110039943Y-54352444D01*
X110041355Y-54341725D01*
X110115257Y-53922602D01*
X110117589Y-53912083D01*
X110227749Y-53500959D01*
X110230989Y-53490683D01*
X110376558Y-53090736D01*
X110380679Y-53080786D01*
X110560552Y-52695047D01*
X110565532Y-52685480D01*
X110778332Y-52316900D01*
X110784125Y-52307806D01*
X111028246Y-51959165D01*
X111034812Y-51950609D01*
X111308394Y-51624566D01*
X111315681Y-51616615D01*
X111616615Y-51315681D01*
X111624566Y-51308394D01*
X111950609Y-51034812D01*
X111959165Y-51028246D01*
X112307806Y-50784125D01*
X112316900Y-50778332D01*
X112685480Y-50565532D01*
X112695047Y-50560552D01*
X113080786Y-50380679D01*
X113090736Y-50376558D01*
X113490683Y-50230989D01*
X113500959Y-50227749D01*
X113912083Y-50117589D01*
X113922602Y-50115257D01*
X114341732Y-50041353D01*
X114352444Y-50039943D01*
X114777085Y-50002792D01*
X114786517Y-50002328D01*
X114999358Y-50000006D01*
X115000710Y-50000000D01*
X202999290Y-50000000D01*
X203000641Y-50000006D01*
G37*
%TD.AperFunction*%
%TA.AperFunction,Conductor*%
G36*
X129205655Y-97892046D02*
G01*
X129222375Y-97911342D01*
X129352301Y-98096896D01*
X129352306Y-98096902D01*
X129519395Y-98263992D01*
X129519398Y-98263994D01*
X129519399Y-98263995D01*
X129587423Y-98311625D01*
X129631048Y-98366201D01*
X129640300Y-98413200D01*
X129640300Y-106086969D01*
X129620615Y-106154008D01*
X129603981Y-106174650D01*
X127561681Y-108216950D01*
X127500358Y-108250435D01*
X127430666Y-108245451D01*
X127374733Y-108203579D01*
X127350316Y-108138115D01*
X127350000Y-108129269D01*
X127350000Y-107402172D01*
X127349999Y-107402155D01*
X127343598Y-107342627D01*
X127343596Y-107342620D01*
X127293354Y-107207913D01*
X127293350Y-107207906D01*
X127207190Y-107092812D01*
X127207187Y-107092809D01*
X127092093Y-107006649D01*
X127092086Y-107006645D01*
X126957379Y-106956403D01*
X126957372Y-106956401D01*
X126897844Y-106950000D01*
X126250000Y-106950000D01*
X126250000Y-107866988D01*
X126192993Y-107834075D01*
X126065826Y-107800000D01*
X125934174Y-107800000D01*
X125807007Y-107834075D01*
X125750000Y-107866988D01*
X125750000Y-106950000D01*
X125102155Y-106950000D01*
X125042627Y-106956401D01*
X125042620Y-106956403D01*
X124907913Y-107006645D01*
X124907906Y-107006649D01*
X124792812Y-107092809D01*
X124792809Y-107092812D01*
X124706649Y-107207906D01*
X124706645Y-107207913D01*
X124656403Y-107342620D01*
X124656401Y-107342627D01*
X124650000Y-107402155D01*
X124650000Y-108050000D01*
X125566988Y-108050000D01*
X125534075Y-108107007D01*
X125500000Y-108234174D01*
X125500000Y-108365826D01*
X125534075Y-108492993D01*
X125566988Y-108550000D01*
X124650000Y-108550000D01*
X124650000Y-109197844D01*
X124656401Y-109257372D01*
X124656403Y-109257379D01*
X124706645Y-109392086D01*
X124706649Y-109392093D01*
X124792809Y-109507187D01*
X124792812Y-109507190D01*
X124907906Y-109593350D01*
X124907913Y-109593354D01*
X125039470Y-109642421D01*
X125095403Y-109684292D01*
X125119821Y-109749756D01*
X125104970Y-109818029D01*
X125083819Y-109846284D01*
X124961503Y-109968600D01*
X124825965Y-110162169D01*
X124825964Y-110162171D01*
X124726098Y-110376335D01*
X124726094Y-110376344D01*
X124664938Y-110604586D01*
X124664936Y-110604596D01*
X124644341Y-110839999D01*
X124644341Y-110840000D01*
X124664936Y-111075403D01*
X124664938Y-111075413D01*
X124726094Y-111303655D01*
X124726096Y-111303659D01*
X124726097Y-111303663D01*
X124825965Y-111517830D01*
X124825967Y-111517834D01*
X124961501Y-111711395D01*
X124961506Y-111711402D01*
X125128597Y-111878493D01*
X125128603Y-111878498D01*
X125314158Y-112008425D01*
X125357783Y-112063002D01*
X125364977Y-112132500D01*
X125333454Y-112194855D01*
X125314158Y-112211575D01*
X125128597Y-112341505D01*
X124961505Y-112508597D01*
X124825965Y-112702169D01*
X124825964Y-112702171D01*
X124726098Y-112916335D01*
X124726094Y-112916344D01*
X124664938Y-113144586D01*
X124664936Y-113144596D01*
X124644341Y-113379999D01*
X124644341Y-113380000D01*
X124664936Y-113615403D01*
X124664938Y-113615413D01*
X124726094Y-113843655D01*
X124726096Y-113843659D01*
X124726097Y-113843663D01*
X124825965Y-114057830D01*
X124825967Y-114057834D01*
X124961501Y-114251395D01*
X124961506Y-114251402D01*
X125128597Y-114418493D01*
X125128603Y-114418498D01*
X125314158Y-114548425D01*
X125357783Y-114603002D01*
X125364977Y-114672500D01*
X125333454Y-114734855D01*
X125314158Y-114751575D01*
X125128597Y-114881505D01*
X124961505Y-115048597D01*
X124825965Y-115242169D01*
X124825964Y-115242171D01*
X124726098Y-115456335D01*
X124726094Y-115456344D01*
X124664938Y-115684586D01*
X124664936Y-115684596D01*
X124644341Y-115919999D01*
X124644341Y-115920000D01*
X124664936Y-116155403D01*
X124664938Y-116155413D01*
X124726094Y-116383655D01*
X124726096Y-116383659D01*
X124726097Y-116383663D01*
X124825965Y-116597830D01*
X124825967Y-116597834D01*
X124961501Y-116791395D01*
X124961506Y-116791402D01*
X125128597Y-116958493D01*
X125128603Y-116958498D01*
X125314158Y-117088425D01*
X125357783Y-117143002D01*
X125364977Y-117212500D01*
X125333454Y-117274855D01*
X125314158Y-117291575D01*
X125128597Y-117421505D01*
X124961505Y-117588597D01*
X124825965Y-117782169D01*
X124825964Y-117782171D01*
X124726098Y-117996335D01*
X124726094Y-117996344D01*
X124664938Y-118224586D01*
X124664936Y-118224596D01*
X124657624Y-118308174D01*
X124632171Y-118373243D01*
X124575580Y-118414221D01*
X124505818Y-118418099D01*
X124446415Y-118385047D01*
X115937619Y-109876251D01*
X115904134Y-109814928D01*
X115901300Y-109788570D01*
X115901300Y-98413200D01*
X115920985Y-98346161D01*
X115954175Y-98311626D01*
X116022201Y-98263995D01*
X116189295Y-98096901D01*
X116319225Y-97911342D01*
X116373802Y-97867717D01*
X116443300Y-97860523D01*
X116505655Y-97892046D01*
X116522375Y-97911342D01*
X116652300Y-98096895D01*
X116652305Y-98096901D01*
X116819399Y-98263995D01*
X116887420Y-98311624D01*
X117012965Y-98399532D01*
X117012967Y-98399533D01*
X117012970Y-98399535D01*
X117227137Y-98499403D01*
X117455392Y-98560563D01*
X117626119Y-98575500D01*
X117690799Y-98581159D01*
X117690800Y-98581159D01*
X117690801Y-98581159D01*
X117755481Y-98575500D01*
X117926208Y-98560563D01*
X118154463Y-98499403D01*
X118368630Y-98399535D01*
X118562201Y-98263995D01*
X118729295Y-98096901D01*
X118859225Y-97911342D01*
X118913802Y-97867717D01*
X118983300Y-97860523D01*
X119045655Y-97892046D01*
X119062375Y-97911342D01*
X119192300Y-98096895D01*
X119192305Y-98096901D01*
X119359399Y-98263995D01*
X119427420Y-98311624D01*
X119552965Y-98399532D01*
X119552967Y-98399533D01*
X119552970Y-98399535D01*
X119767137Y-98499403D01*
X119995392Y-98560563D01*
X120166119Y-98575500D01*
X120230799Y-98581159D01*
X120230800Y-98581159D01*
X120230801Y-98581159D01*
X120295481Y-98575500D01*
X120466208Y-98560563D01*
X120694463Y-98499403D01*
X120908630Y-98399535D01*
X121102201Y-98263995D01*
X121269295Y-98096901D01*
X121399225Y-97911342D01*
X121453802Y-97867717D01*
X121523300Y-97860523D01*
X121585655Y-97892046D01*
X121602375Y-97911342D01*
X121732300Y-98096895D01*
X121732305Y-98096901D01*
X121899399Y-98263995D01*
X121967420Y-98311624D01*
X122092965Y-98399532D01*
X122092967Y-98399533D01*
X122092970Y-98399535D01*
X122307137Y-98499403D01*
X122535392Y-98560563D01*
X122706119Y-98575500D01*
X122770799Y-98581159D01*
X122770800Y-98581159D01*
X122770801Y-98581159D01*
X122835481Y-98575500D01*
X123006208Y-98560563D01*
X123234463Y-98499403D01*
X123448630Y-98399535D01*
X123642201Y-98263995D01*
X123809295Y-98096901D01*
X123939225Y-97911342D01*
X123993802Y-97867717D01*
X124063300Y-97860523D01*
X124125655Y-97892046D01*
X124142375Y-97911342D01*
X124272300Y-98096895D01*
X124272305Y-98096901D01*
X124439399Y-98263995D01*
X124507420Y-98311624D01*
X124632965Y-98399532D01*
X124632967Y-98399533D01*
X124632970Y-98399535D01*
X124847137Y-98499403D01*
X125075392Y-98560563D01*
X125246119Y-98575500D01*
X125310799Y-98581159D01*
X125310800Y-98581159D01*
X125310801Y-98581159D01*
X125375481Y-98575500D01*
X125546208Y-98560563D01*
X125774463Y-98499403D01*
X125988630Y-98399535D01*
X126182201Y-98263995D01*
X126349295Y-98096901D01*
X126479225Y-97911342D01*
X126533802Y-97867717D01*
X126603300Y-97860523D01*
X126665655Y-97892046D01*
X126682375Y-97911342D01*
X126812300Y-98096895D01*
X126812305Y-98096901D01*
X126979399Y-98263995D01*
X127047420Y-98311624D01*
X127172965Y-98399532D01*
X127172967Y-98399533D01*
X127172970Y-98399535D01*
X127387137Y-98499403D01*
X127615392Y-98560563D01*
X127786119Y-98575500D01*
X127850799Y-98581159D01*
X127850800Y-98581159D01*
X127850801Y-98581159D01*
X127915481Y-98575500D01*
X128086208Y-98560563D01*
X128314463Y-98499403D01*
X128528630Y-98399535D01*
X128722201Y-98263995D01*
X128889295Y-98096901D01*
X129019225Y-97911342D01*
X129073802Y-97867717D01*
X129143300Y-97860523D01*
X129205655Y-97892046D01*
G37*
%TD.AperFunction*%
%TD*%
M02*
