%TF.GenerationSoftware,KiCad,Pcbnew,8.0.6*%
%TF.CreationDate,2024-11-05T07:22:12-08:00*%
%TF.ProjectId,Final_Project_PCB,46696e61-6c5f-4507-926f-6a6563745f50,1.0*%
%TF.SameCoordinates,Original*%
%TF.FileFunction,Paste,Top*%
%TF.FilePolarity,Positive*%
%FSLAX46Y46*%
G04 Gerber Fmt 4.6, Leading zero omitted, Abs format (unit mm)*
G04 Created by KiCad (PCBNEW 8.0.6) date 2024-11-05 07:22:12*
%MOMM*%
%LPD*%
G01*
G04 APERTURE LIST*
G04 Aperture macros list*
%AMRoundRect*
0 Rectangle with rounded corners*
0 $1 Rounding radius*
0 $2 $3 $4 $5 $6 $7 $8 $9 X,Y pos of 4 corners*
0 Add a 4 corners polygon primitive as box body*
4,1,4,$2,$3,$4,$5,$6,$7,$8,$9,$2,$3,0*
0 Add four circle primitives for the rounded corners*
1,1,$1+$1,$2,$3*
1,1,$1+$1,$4,$5*
1,1,$1+$1,$6,$7*
1,1,$1+$1,$8,$9*
0 Add four rect primitives between the rounded corners*
20,1,$1+$1,$2,$3,$4,$5,0*
20,1,$1+$1,$4,$5,$6,$7,0*
20,1,$1+$1,$6,$7,$8,$9,0*
20,1,$1+$1,$8,$9,$2,$3,0*%
G04 Aperture macros list end*
%ADD10R,1.050000X0.650000*%
%ADD11RoundRect,0.250000X-0.337500X-0.475000X0.337500X-0.475000X0.337500X0.475000X-0.337500X0.475000X0*%
%ADD12RoundRect,0.250000X-0.450000X0.350000X-0.450000X-0.350000X0.450000X-0.350000X0.450000X0.350000X0*%
%ADD13RoundRect,0.250000X0.350000X0.450000X-0.350000X0.450000X-0.350000X-0.450000X0.350000X-0.450000X0*%
%ADD14R,1.600000X1.000000*%
G04 APERTURE END LIST*
D10*
%TO.C,Up1*%
X137425000Y-122525000D03*
X141575000Y-122525000D03*
X137425000Y-124675000D03*
X141575000Y-124675000D03*
%TD*%
D11*
%TO.C,C7*%
X163662500Y-108300000D03*
X165737500Y-108300000D03*
%TD*%
D10*
%TO.C,Top_button1*%
X176225000Y-122525000D03*
X180375000Y-122525000D03*
X176225000Y-124675000D03*
X180375000Y-124675000D03*
%TD*%
%TO.C,Down1*%
X137425000Y-142525000D03*
X141575000Y-142525000D03*
X137425000Y-144675000D03*
X141575000Y-144675000D03*
%TD*%
D11*
%TO.C,C5*%
X130662500Y-108300000D03*
X132737500Y-108300000D03*
%TD*%
D10*
%TO.C,Right1*%
X147425000Y-132525000D03*
X151575000Y-132525000D03*
X147425000Y-134675000D03*
X151575000Y-134675000D03*
%TD*%
%TO.C,Bottom_button1*%
X176500000Y-142600000D03*
X180650000Y-142600000D03*
X176500000Y-144750000D03*
X180650000Y-144750000D03*
%TD*%
D12*
%TO.C,R1*%
X172700000Y-109700000D03*
X172700000Y-111700000D03*
%TD*%
%TO.C,R2*%
X182700000Y-109700000D03*
X182700000Y-111700000D03*
%TD*%
D11*
%TO.C,C3*%
X136162500Y-108300000D03*
X138237500Y-108300000D03*
%TD*%
D13*
%TO.C,R9*%
X154700000Y-113300000D03*
X152700000Y-113300000D03*
%TD*%
%TO.C,R5*%
X132700000Y-113300000D03*
X130700000Y-113300000D03*
%TD*%
D11*
%TO.C,C8*%
X158162500Y-108300000D03*
X160237500Y-108300000D03*
%TD*%
D13*
%TO.C,R3*%
X138200000Y-113300000D03*
X136200000Y-113300000D03*
%TD*%
D10*
%TO.C,Left1*%
X127425000Y-132525000D03*
X131575000Y-132525000D03*
X127425000Y-134675000D03*
X131575000Y-134675000D03*
%TD*%
D11*
%TO.C,C9*%
X152662500Y-108300000D03*
X154737500Y-108300000D03*
%TD*%
%TO.C,C4*%
X141662500Y-108300000D03*
X143737500Y-108300000D03*
%TD*%
D13*
%TO.C,R4*%
X143700000Y-113300000D03*
X141700000Y-113300000D03*
%TD*%
%TO.C,R8*%
X160200000Y-113300000D03*
X158200000Y-113300000D03*
%TD*%
D10*
%TO.C,Select1*%
X186525000Y-132525000D03*
X190675000Y-132525000D03*
X186525000Y-134675000D03*
X190675000Y-134675000D03*
%TD*%
D13*
%TO.C,R7*%
X165700000Y-113300000D03*
X163700000Y-113300000D03*
%TD*%
D11*
%TO.C,C6*%
X147162500Y-108300000D03*
X149237500Y-108300000D03*
%TD*%
D13*
%TO.C,R6*%
X149200000Y-113300000D03*
X147200000Y-113300000D03*
%TD*%
D14*
%TO.C,SS1*%
X204300000Y-129000000D03*
X204300000Y-126500000D03*
X204300000Y-124000000D03*
X206700000Y-129000000D03*
X206700000Y-126500000D03*
X206700000Y-124000000D03*
%TD*%
M02*
