%TF.GenerationSoftware,KiCad,Pcbnew,8.0.6*%
%TF.CreationDate,2024-11-05T07:22:12-08:00*%
%TF.ProjectId,Final_Project_PCB,46696e61-6c5f-4507-926f-6a6563745f50,1.0*%
%TF.SameCoordinates,Original*%
%TF.FileFunction,Legend,Top*%
%TF.FilePolarity,Positive*%
%FSLAX46Y46*%
G04 Gerber Fmt 4.6, Leading zero omitted, Abs format (unit mm)*
G04 Created by KiCad (PCBNEW 8.0.6) date 2024-11-05 07:22:12*
%MOMM*%
%LPD*%
G01*
G04 APERTURE LIST*
%ADD10C,0.150000*%
%ADD11C,0.120000*%
G04 APERTURE END LIST*
D10*
X158338095Y-153049931D02*
X158338095Y-153859454D01*
X158338095Y-153859454D02*
X158385714Y-153954692D01*
X158385714Y-153954692D02*
X158433333Y-154002312D01*
X158433333Y-154002312D02*
X158528571Y-154049931D01*
X158528571Y-154049931D02*
X158719047Y-154049931D01*
X158719047Y-154049931D02*
X158814285Y-154002312D01*
X158814285Y-154002312D02*
X158861904Y-153954692D01*
X158861904Y-153954692D02*
X158909523Y-153859454D01*
X158909523Y-153859454D02*
X158909523Y-153049931D01*
X159957142Y-153954692D02*
X159909523Y-154002312D01*
X159909523Y-154002312D02*
X159766666Y-154049931D01*
X159766666Y-154049931D02*
X159671428Y-154049931D01*
X159671428Y-154049931D02*
X159528571Y-154002312D01*
X159528571Y-154002312D02*
X159433333Y-153907073D01*
X159433333Y-153907073D02*
X159385714Y-153811835D01*
X159385714Y-153811835D02*
X159338095Y-153621359D01*
X159338095Y-153621359D02*
X159338095Y-153478502D01*
X159338095Y-153478502D02*
X159385714Y-153288026D01*
X159385714Y-153288026D02*
X159433333Y-153192788D01*
X159433333Y-153192788D02*
X159528571Y-153097550D01*
X159528571Y-153097550D02*
X159671428Y-153049931D01*
X159671428Y-153049931D02*
X159766666Y-153049931D01*
X159766666Y-153049931D02*
X159909523Y-153097550D01*
X159909523Y-153097550D02*
X159957142Y-153145169D01*
X160338095Y-154002312D02*
X160480952Y-154049931D01*
X160480952Y-154049931D02*
X160719047Y-154049931D01*
X160719047Y-154049931D02*
X160814285Y-154002312D01*
X160814285Y-154002312D02*
X160861904Y-153954692D01*
X160861904Y-153954692D02*
X160909523Y-153859454D01*
X160909523Y-153859454D02*
X160909523Y-153764216D01*
X160909523Y-153764216D02*
X160861904Y-153668978D01*
X160861904Y-153668978D02*
X160814285Y-153621359D01*
X160814285Y-153621359D02*
X160719047Y-153573740D01*
X160719047Y-153573740D02*
X160528571Y-153526121D01*
X160528571Y-153526121D02*
X160433333Y-153478502D01*
X160433333Y-153478502D02*
X160385714Y-153430883D01*
X160385714Y-153430883D02*
X160338095Y-153335645D01*
X160338095Y-153335645D02*
X160338095Y-153240407D01*
X160338095Y-153240407D02*
X160385714Y-153145169D01*
X160385714Y-153145169D02*
X160433333Y-153097550D01*
X160433333Y-153097550D02*
X160528571Y-153049931D01*
X160528571Y-153049931D02*
X160766666Y-153049931D01*
X160766666Y-153049931D02*
X160909523Y-153097550D01*
X161338095Y-154049931D02*
X161338095Y-153049931D01*
X161338095Y-153049931D02*
X161576190Y-153049931D01*
X161576190Y-153049931D02*
X161719047Y-153097550D01*
X161719047Y-153097550D02*
X161814285Y-153192788D01*
X161814285Y-153192788D02*
X161861904Y-153288026D01*
X161861904Y-153288026D02*
X161909523Y-153478502D01*
X161909523Y-153478502D02*
X161909523Y-153621359D01*
X161909523Y-153621359D02*
X161861904Y-153811835D01*
X161861904Y-153811835D02*
X161814285Y-153907073D01*
X161814285Y-153907073D02*
X161719047Y-154002312D01*
X161719047Y-154002312D02*
X161576190Y-154049931D01*
X161576190Y-154049931D02*
X161338095Y-154049931D01*
X141552379Y-155136065D02*
X141885712Y-155136065D01*
X142028569Y-155659875D02*
X141552379Y-155659875D01*
X141552379Y-155659875D02*
X141552379Y-154659875D01*
X141552379Y-154659875D02*
X142028569Y-154659875D01*
X143028569Y-155564636D02*
X142980950Y-155612256D01*
X142980950Y-155612256D02*
X142838093Y-155659875D01*
X142838093Y-155659875D02*
X142742855Y-155659875D01*
X142742855Y-155659875D02*
X142599998Y-155612256D01*
X142599998Y-155612256D02*
X142504760Y-155517017D01*
X142504760Y-155517017D02*
X142457141Y-155421779D01*
X142457141Y-155421779D02*
X142409522Y-155231303D01*
X142409522Y-155231303D02*
X142409522Y-155088446D01*
X142409522Y-155088446D02*
X142457141Y-154897970D01*
X142457141Y-154897970D02*
X142504760Y-154802732D01*
X142504760Y-154802732D02*
X142599998Y-154707494D01*
X142599998Y-154707494D02*
X142742855Y-154659875D01*
X142742855Y-154659875D02*
X142838093Y-154659875D01*
X142838093Y-154659875D02*
X142980950Y-154707494D01*
X142980950Y-154707494D02*
X143028569Y-154755113D01*
X143457141Y-155136065D02*
X143790474Y-155136065D01*
X143933331Y-155659875D02*
X143457141Y-155659875D01*
X143457141Y-155659875D02*
X143457141Y-154659875D01*
X143457141Y-154659875D02*
X143933331Y-154659875D01*
X145647617Y-155659875D02*
X145076189Y-155659875D01*
X145361903Y-155659875D02*
X145361903Y-154659875D01*
X145361903Y-154659875D02*
X145266665Y-154802732D01*
X145266665Y-154802732D02*
X145171427Y-154897970D01*
X145171427Y-154897970D02*
X145076189Y-154945589D01*
X146123808Y-155659875D02*
X146314284Y-155659875D01*
X146314284Y-155659875D02*
X146409522Y-155612256D01*
X146409522Y-155612256D02*
X146457141Y-155564636D01*
X146457141Y-155564636D02*
X146552379Y-155421779D01*
X146552379Y-155421779D02*
X146599998Y-155231303D01*
X146599998Y-155231303D02*
X146599998Y-154850351D01*
X146599998Y-154850351D02*
X146552379Y-154755113D01*
X146552379Y-154755113D02*
X146504760Y-154707494D01*
X146504760Y-154707494D02*
X146409522Y-154659875D01*
X146409522Y-154659875D02*
X146219046Y-154659875D01*
X146219046Y-154659875D02*
X146123808Y-154707494D01*
X146123808Y-154707494D02*
X146076189Y-154755113D01*
X146076189Y-154755113D02*
X146028570Y-154850351D01*
X146028570Y-154850351D02*
X146028570Y-155088446D01*
X146028570Y-155088446D02*
X146076189Y-155183684D01*
X146076189Y-155183684D02*
X146123808Y-155231303D01*
X146123808Y-155231303D02*
X146219046Y-155278922D01*
X146219046Y-155278922D02*
X146409522Y-155278922D01*
X146409522Y-155278922D02*
X146504760Y-155231303D01*
X146504760Y-155231303D02*
X146552379Y-155183684D01*
X146552379Y-155183684D02*
X146599998Y-155088446D01*
X147457141Y-154659875D02*
X147266665Y-154659875D01*
X147266665Y-154659875D02*
X147171427Y-154707494D01*
X147171427Y-154707494D02*
X147123808Y-154755113D01*
X147123808Y-154755113D02*
X147028570Y-154897970D01*
X147028570Y-154897970D02*
X146980951Y-155088446D01*
X146980951Y-155088446D02*
X146980951Y-155469398D01*
X146980951Y-155469398D02*
X147028570Y-155564636D01*
X147028570Y-155564636D02*
X147076189Y-155612256D01*
X147076189Y-155612256D02*
X147171427Y-155659875D01*
X147171427Y-155659875D02*
X147361903Y-155659875D01*
X147361903Y-155659875D02*
X147457141Y-155612256D01*
X147457141Y-155612256D02*
X147504760Y-155564636D01*
X147504760Y-155564636D02*
X147552379Y-155469398D01*
X147552379Y-155469398D02*
X147552379Y-155231303D01*
X147552379Y-155231303D02*
X147504760Y-155136065D01*
X147504760Y-155136065D02*
X147457141Y-155088446D01*
X147457141Y-155088446D02*
X147361903Y-155040827D01*
X147361903Y-155040827D02*
X147171427Y-155040827D01*
X147171427Y-155040827D02*
X147076189Y-155088446D01*
X147076189Y-155088446D02*
X147028570Y-155136065D01*
X147028570Y-155136065D02*
X146980951Y-155231303D01*
X148742856Y-155278922D02*
X149504761Y-155278922D01*
X150742856Y-155136065D02*
X151076189Y-155136065D01*
X151219046Y-155659875D02*
X150742856Y-155659875D01*
X150742856Y-155659875D02*
X150742856Y-154659875D01*
X150742856Y-154659875D02*
X151219046Y-154659875D01*
X151647618Y-154993208D02*
X151647618Y-155659875D01*
X151647618Y-155088446D02*
X151695237Y-155040827D01*
X151695237Y-155040827D02*
X151790475Y-154993208D01*
X151790475Y-154993208D02*
X151933332Y-154993208D01*
X151933332Y-154993208D02*
X152028570Y-155040827D01*
X152028570Y-155040827D02*
X152076189Y-155136065D01*
X152076189Y-155136065D02*
X152076189Y-155659875D01*
X152980951Y-154993208D02*
X152980951Y-155802732D01*
X152980951Y-155802732D02*
X152933332Y-155897970D01*
X152933332Y-155897970D02*
X152885713Y-155945589D01*
X152885713Y-155945589D02*
X152790475Y-155993208D01*
X152790475Y-155993208D02*
X152647618Y-155993208D01*
X152647618Y-155993208D02*
X152552380Y-155945589D01*
X152980951Y-155612256D02*
X152885713Y-155659875D01*
X152885713Y-155659875D02*
X152695237Y-155659875D01*
X152695237Y-155659875D02*
X152599999Y-155612256D01*
X152599999Y-155612256D02*
X152552380Y-155564636D01*
X152552380Y-155564636D02*
X152504761Y-155469398D01*
X152504761Y-155469398D02*
X152504761Y-155183684D01*
X152504761Y-155183684D02*
X152552380Y-155088446D01*
X152552380Y-155088446D02*
X152599999Y-155040827D01*
X152599999Y-155040827D02*
X152695237Y-154993208D01*
X152695237Y-154993208D02*
X152885713Y-154993208D01*
X152885713Y-154993208D02*
X152980951Y-155040827D01*
X153457142Y-155659875D02*
X153457142Y-154993208D01*
X153457142Y-154659875D02*
X153409523Y-154707494D01*
X153409523Y-154707494D02*
X153457142Y-154755113D01*
X153457142Y-154755113D02*
X153504761Y-154707494D01*
X153504761Y-154707494D02*
X153457142Y-154659875D01*
X153457142Y-154659875D02*
X153457142Y-154755113D01*
X153933332Y-154993208D02*
X153933332Y-155659875D01*
X153933332Y-155088446D02*
X153980951Y-155040827D01*
X153980951Y-155040827D02*
X154076189Y-154993208D01*
X154076189Y-154993208D02*
X154219046Y-154993208D01*
X154219046Y-154993208D02*
X154314284Y-155040827D01*
X154314284Y-155040827D02*
X154361903Y-155136065D01*
X154361903Y-155136065D02*
X154361903Y-155659875D01*
X155219046Y-155612256D02*
X155123808Y-155659875D01*
X155123808Y-155659875D02*
X154933332Y-155659875D01*
X154933332Y-155659875D02*
X154838094Y-155612256D01*
X154838094Y-155612256D02*
X154790475Y-155517017D01*
X154790475Y-155517017D02*
X154790475Y-155136065D01*
X154790475Y-155136065D02*
X154838094Y-155040827D01*
X154838094Y-155040827D02*
X154933332Y-154993208D01*
X154933332Y-154993208D02*
X155123808Y-154993208D01*
X155123808Y-154993208D02*
X155219046Y-155040827D01*
X155219046Y-155040827D02*
X155266665Y-155136065D01*
X155266665Y-155136065D02*
X155266665Y-155231303D01*
X155266665Y-155231303D02*
X154790475Y-155326541D01*
X156076189Y-155612256D02*
X155980951Y-155659875D01*
X155980951Y-155659875D02*
X155790475Y-155659875D01*
X155790475Y-155659875D02*
X155695237Y-155612256D01*
X155695237Y-155612256D02*
X155647618Y-155517017D01*
X155647618Y-155517017D02*
X155647618Y-155136065D01*
X155647618Y-155136065D02*
X155695237Y-155040827D01*
X155695237Y-155040827D02*
X155790475Y-154993208D01*
X155790475Y-154993208D02*
X155980951Y-154993208D01*
X155980951Y-154993208D02*
X156076189Y-155040827D01*
X156076189Y-155040827D02*
X156123808Y-155136065D01*
X156123808Y-155136065D02*
X156123808Y-155231303D01*
X156123808Y-155231303D02*
X155647618Y-155326541D01*
X156552380Y-155659875D02*
X156552380Y-154993208D01*
X156552380Y-155183684D02*
X156599999Y-155088446D01*
X156599999Y-155088446D02*
X156647618Y-155040827D01*
X156647618Y-155040827D02*
X156742856Y-154993208D01*
X156742856Y-154993208D02*
X156838094Y-154993208D01*
X157171428Y-155659875D02*
X157171428Y-154993208D01*
X157171428Y-154659875D02*
X157123809Y-154707494D01*
X157123809Y-154707494D02*
X157171428Y-154755113D01*
X157171428Y-154755113D02*
X157219047Y-154707494D01*
X157219047Y-154707494D02*
X157171428Y-154659875D01*
X157171428Y-154659875D02*
X157171428Y-154755113D01*
X157647618Y-154993208D02*
X157647618Y-155659875D01*
X157647618Y-155088446D02*
X157695237Y-155040827D01*
X157695237Y-155040827D02*
X157790475Y-154993208D01*
X157790475Y-154993208D02*
X157933332Y-154993208D01*
X157933332Y-154993208D02*
X158028570Y-155040827D01*
X158028570Y-155040827D02*
X158076189Y-155136065D01*
X158076189Y-155136065D02*
X158076189Y-155659875D01*
X158980951Y-154993208D02*
X158980951Y-155802732D01*
X158980951Y-155802732D02*
X158933332Y-155897970D01*
X158933332Y-155897970D02*
X158885713Y-155945589D01*
X158885713Y-155945589D02*
X158790475Y-155993208D01*
X158790475Y-155993208D02*
X158647618Y-155993208D01*
X158647618Y-155993208D02*
X158552380Y-155945589D01*
X158980951Y-155612256D02*
X158885713Y-155659875D01*
X158885713Y-155659875D02*
X158695237Y-155659875D01*
X158695237Y-155659875D02*
X158599999Y-155612256D01*
X158599999Y-155612256D02*
X158552380Y-155564636D01*
X158552380Y-155564636D02*
X158504761Y-155469398D01*
X158504761Y-155469398D02*
X158504761Y-155183684D01*
X158504761Y-155183684D02*
X158552380Y-155088446D01*
X158552380Y-155088446D02*
X158599999Y-155040827D01*
X158599999Y-155040827D02*
X158695237Y-154993208D01*
X158695237Y-154993208D02*
X158885713Y-154993208D01*
X158885713Y-154993208D02*
X158980951Y-155040827D01*
X160219047Y-155659875D02*
X160219047Y-154659875D01*
X160219047Y-155136065D02*
X160790475Y-155136065D01*
X160790475Y-155659875D02*
X160790475Y-154659875D01*
X161695237Y-155659875D02*
X161695237Y-155136065D01*
X161695237Y-155136065D02*
X161647618Y-155040827D01*
X161647618Y-155040827D02*
X161552380Y-154993208D01*
X161552380Y-154993208D02*
X161361904Y-154993208D01*
X161361904Y-154993208D02*
X161266666Y-155040827D01*
X161695237Y-155612256D02*
X161599999Y-155659875D01*
X161599999Y-155659875D02*
X161361904Y-155659875D01*
X161361904Y-155659875D02*
X161266666Y-155612256D01*
X161266666Y-155612256D02*
X161219047Y-155517017D01*
X161219047Y-155517017D02*
X161219047Y-155421779D01*
X161219047Y-155421779D02*
X161266666Y-155326541D01*
X161266666Y-155326541D02*
X161361904Y-155278922D01*
X161361904Y-155278922D02*
X161599999Y-155278922D01*
X161599999Y-155278922D02*
X161695237Y-155231303D01*
X162171428Y-154993208D02*
X162171428Y-155659875D01*
X162171428Y-155088446D02*
X162219047Y-155040827D01*
X162219047Y-155040827D02*
X162314285Y-154993208D01*
X162314285Y-154993208D02*
X162457142Y-154993208D01*
X162457142Y-154993208D02*
X162552380Y-155040827D01*
X162552380Y-155040827D02*
X162599999Y-155136065D01*
X162599999Y-155136065D02*
X162599999Y-155659875D01*
X163504761Y-155659875D02*
X163504761Y-154659875D01*
X163504761Y-155612256D02*
X163409523Y-155659875D01*
X163409523Y-155659875D02*
X163219047Y-155659875D01*
X163219047Y-155659875D02*
X163123809Y-155612256D01*
X163123809Y-155612256D02*
X163076190Y-155564636D01*
X163076190Y-155564636D02*
X163028571Y-155469398D01*
X163028571Y-155469398D02*
X163028571Y-155183684D01*
X163028571Y-155183684D02*
X163076190Y-155088446D01*
X163076190Y-155088446D02*
X163123809Y-155040827D01*
X163123809Y-155040827D02*
X163219047Y-154993208D01*
X163219047Y-154993208D02*
X163409523Y-154993208D01*
X163409523Y-154993208D02*
X163504761Y-155040827D01*
X163933333Y-155612256D02*
X164028571Y-155659875D01*
X164028571Y-155659875D02*
X164219047Y-155659875D01*
X164219047Y-155659875D02*
X164314285Y-155612256D01*
X164314285Y-155612256D02*
X164361904Y-155517017D01*
X164361904Y-155517017D02*
X164361904Y-155469398D01*
X164361904Y-155469398D02*
X164314285Y-155374160D01*
X164314285Y-155374160D02*
X164219047Y-155326541D01*
X164219047Y-155326541D02*
X164076190Y-155326541D01*
X164076190Y-155326541D02*
X163980952Y-155278922D01*
X163980952Y-155278922D02*
X163933333Y-155183684D01*
X163933333Y-155183684D02*
X163933333Y-155136065D01*
X163933333Y-155136065D02*
X163980952Y-155040827D01*
X163980952Y-155040827D02*
X164076190Y-154993208D01*
X164076190Y-154993208D02*
X164219047Y-154993208D01*
X164219047Y-154993208D02*
X164314285Y-155040827D01*
X164790476Y-155278922D02*
X165552381Y-155278922D01*
X166219047Y-154659875D02*
X166409523Y-154659875D01*
X166409523Y-154659875D02*
X166504761Y-154707494D01*
X166504761Y-154707494D02*
X166599999Y-154802732D01*
X166599999Y-154802732D02*
X166647618Y-154993208D01*
X166647618Y-154993208D02*
X166647618Y-155326541D01*
X166647618Y-155326541D02*
X166599999Y-155517017D01*
X166599999Y-155517017D02*
X166504761Y-155612256D01*
X166504761Y-155612256D02*
X166409523Y-155659875D01*
X166409523Y-155659875D02*
X166219047Y-155659875D01*
X166219047Y-155659875D02*
X166123809Y-155612256D01*
X166123809Y-155612256D02*
X166028571Y-155517017D01*
X166028571Y-155517017D02*
X165980952Y-155326541D01*
X165980952Y-155326541D02*
X165980952Y-154993208D01*
X165980952Y-154993208D02*
X166028571Y-154802732D01*
X166028571Y-154802732D02*
X166123809Y-154707494D01*
X166123809Y-154707494D02*
X166219047Y-154659875D01*
X167076190Y-154993208D02*
X167076190Y-155659875D01*
X167076190Y-155088446D02*
X167123809Y-155040827D01*
X167123809Y-155040827D02*
X167219047Y-154993208D01*
X167219047Y-154993208D02*
X167361904Y-154993208D01*
X167361904Y-154993208D02*
X167457142Y-155040827D01*
X167457142Y-155040827D02*
X167504761Y-155136065D01*
X167504761Y-155136065D02*
X167504761Y-155659875D01*
X169266666Y-154707494D02*
X169171428Y-154659875D01*
X169171428Y-154659875D02*
X169028571Y-154659875D01*
X169028571Y-154659875D02*
X168885714Y-154707494D01*
X168885714Y-154707494D02*
X168790476Y-154802732D01*
X168790476Y-154802732D02*
X168742857Y-154897970D01*
X168742857Y-154897970D02*
X168695238Y-155088446D01*
X168695238Y-155088446D02*
X168695238Y-155231303D01*
X168695238Y-155231303D02*
X168742857Y-155421779D01*
X168742857Y-155421779D02*
X168790476Y-155517017D01*
X168790476Y-155517017D02*
X168885714Y-155612256D01*
X168885714Y-155612256D02*
X169028571Y-155659875D01*
X169028571Y-155659875D02*
X169123809Y-155659875D01*
X169123809Y-155659875D02*
X169266666Y-155612256D01*
X169266666Y-155612256D02*
X169314285Y-155564636D01*
X169314285Y-155564636D02*
X169314285Y-155231303D01*
X169314285Y-155231303D02*
X169123809Y-155231303D01*
X169742857Y-155659875D02*
X169742857Y-154993208D01*
X169742857Y-155183684D02*
X169790476Y-155088446D01*
X169790476Y-155088446D02*
X169838095Y-155040827D01*
X169838095Y-155040827D02*
X169933333Y-154993208D01*
X169933333Y-154993208D02*
X170028571Y-154993208D01*
X170504762Y-155659875D02*
X170409524Y-155612256D01*
X170409524Y-155612256D02*
X170361905Y-155564636D01*
X170361905Y-155564636D02*
X170314286Y-155469398D01*
X170314286Y-155469398D02*
X170314286Y-155183684D01*
X170314286Y-155183684D02*
X170361905Y-155088446D01*
X170361905Y-155088446D02*
X170409524Y-155040827D01*
X170409524Y-155040827D02*
X170504762Y-154993208D01*
X170504762Y-154993208D02*
X170647619Y-154993208D01*
X170647619Y-154993208D02*
X170742857Y-155040827D01*
X170742857Y-155040827D02*
X170790476Y-155088446D01*
X170790476Y-155088446D02*
X170838095Y-155183684D01*
X170838095Y-155183684D02*
X170838095Y-155469398D01*
X170838095Y-155469398D02*
X170790476Y-155564636D01*
X170790476Y-155564636D02*
X170742857Y-155612256D01*
X170742857Y-155612256D02*
X170647619Y-155659875D01*
X170647619Y-155659875D02*
X170504762Y-155659875D01*
X171695238Y-154993208D02*
X171695238Y-155659875D01*
X171266667Y-154993208D02*
X171266667Y-155517017D01*
X171266667Y-155517017D02*
X171314286Y-155612256D01*
X171314286Y-155612256D02*
X171409524Y-155659875D01*
X171409524Y-155659875D02*
X171552381Y-155659875D01*
X171552381Y-155659875D02*
X171647619Y-155612256D01*
X171647619Y-155612256D02*
X171695238Y-155564636D01*
X172171429Y-154993208D02*
X172171429Y-155993208D01*
X172171429Y-155040827D02*
X172266667Y-154993208D01*
X172266667Y-154993208D02*
X172457143Y-154993208D01*
X172457143Y-154993208D02*
X172552381Y-155040827D01*
X172552381Y-155040827D02*
X172600000Y-155088446D01*
X172600000Y-155088446D02*
X172647619Y-155183684D01*
X172647619Y-155183684D02*
X172647619Y-155469398D01*
X172647619Y-155469398D02*
X172600000Y-155564636D01*
X172600000Y-155564636D02*
X172552381Y-155612256D01*
X172552381Y-155612256D02*
X172457143Y-155659875D01*
X172457143Y-155659875D02*
X172266667Y-155659875D01*
X172266667Y-155659875D02*
X172171429Y-155612256D01*
X173838096Y-155659875D02*
X173838096Y-154659875D01*
X173838096Y-154659875D02*
X174219048Y-154659875D01*
X174219048Y-154659875D02*
X174314286Y-154707494D01*
X174314286Y-154707494D02*
X174361905Y-154755113D01*
X174361905Y-154755113D02*
X174409524Y-154850351D01*
X174409524Y-154850351D02*
X174409524Y-154993208D01*
X174409524Y-154993208D02*
X174361905Y-155088446D01*
X174361905Y-155088446D02*
X174314286Y-155136065D01*
X174314286Y-155136065D02*
X174219048Y-155183684D01*
X174219048Y-155183684D02*
X173838096Y-155183684D01*
X174838096Y-155659875D02*
X174838096Y-154993208D01*
X174838096Y-155183684D02*
X174885715Y-155088446D01*
X174885715Y-155088446D02*
X174933334Y-155040827D01*
X174933334Y-155040827D02*
X175028572Y-154993208D01*
X175028572Y-154993208D02*
X175123810Y-154993208D01*
X175600001Y-155659875D02*
X175504763Y-155612256D01*
X175504763Y-155612256D02*
X175457144Y-155564636D01*
X175457144Y-155564636D02*
X175409525Y-155469398D01*
X175409525Y-155469398D02*
X175409525Y-155183684D01*
X175409525Y-155183684D02*
X175457144Y-155088446D01*
X175457144Y-155088446D02*
X175504763Y-155040827D01*
X175504763Y-155040827D02*
X175600001Y-154993208D01*
X175600001Y-154993208D02*
X175742858Y-154993208D01*
X175742858Y-154993208D02*
X175838096Y-155040827D01*
X175838096Y-155040827D02*
X175885715Y-155088446D01*
X175885715Y-155088446D02*
X175933334Y-155183684D01*
X175933334Y-155183684D02*
X175933334Y-155469398D01*
X175933334Y-155469398D02*
X175885715Y-155564636D01*
X175885715Y-155564636D02*
X175838096Y-155612256D01*
X175838096Y-155612256D02*
X175742858Y-155659875D01*
X175742858Y-155659875D02*
X175600001Y-155659875D01*
X176361906Y-154993208D02*
X176361906Y-155850351D01*
X176361906Y-155850351D02*
X176314287Y-155945589D01*
X176314287Y-155945589D02*
X176219049Y-155993208D01*
X176219049Y-155993208D02*
X176171430Y-155993208D01*
X176361906Y-154659875D02*
X176314287Y-154707494D01*
X176314287Y-154707494D02*
X176361906Y-154755113D01*
X176361906Y-154755113D02*
X176409525Y-154707494D01*
X176409525Y-154707494D02*
X176361906Y-154659875D01*
X176361906Y-154659875D02*
X176361906Y-154755113D01*
X177219048Y-155612256D02*
X177123810Y-155659875D01*
X177123810Y-155659875D02*
X176933334Y-155659875D01*
X176933334Y-155659875D02*
X176838096Y-155612256D01*
X176838096Y-155612256D02*
X176790477Y-155517017D01*
X176790477Y-155517017D02*
X176790477Y-155136065D01*
X176790477Y-155136065D02*
X176838096Y-155040827D01*
X176838096Y-155040827D02*
X176933334Y-154993208D01*
X176933334Y-154993208D02*
X177123810Y-154993208D01*
X177123810Y-154993208D02*
X177219048Y-155040827D01*
X177219048Y-155040827D02*
X177266667Y-155136065D01*
X177266667Y-155136065D02*
X177266667Y-155231303D01*
X177266667Y-155231303D02*
X176790477Y-155326541D01*
X178123810Y-155612256D02*
X178028572Y-155659875D01*
X178028572Y-155659875D02*
X177838096Y-155659875D01*
X177838096Y-155659875D02*
X177742858Y-155612256D01*
X177742858Y-155612256D02*
X177695239Y-155564636D01*
X177695239Y-155564636D02*
X177647620Y-155469398D01*
X177647620Y-155469398D02*
X177647620Y-155183684D01*
X177647620Y-155183684D02*
X177695239Y-155088446D01*
X177695239Y-155088446D02*
X177742858Y-155040827D01*
X177742858Y-155040827D02*
X177838096Y-154993208D01*
X177838096Y-154993208D02*
X178028572Y-154993208D01*
X178028572Y-154993208D02*
X178123810Y-155040827D01*
X178409525Y-154993208D02*
X178790477Y-154993208D01*
X178552382Y-154659875D02*
X178552382Y-155517017D01*
X178552382Y-155517017D02*
X178600001Y-155612256D01*
X178600001Y-155612256D02*
X178695239Y-155659875D01*
X178695239Y-155659875D02*
X178790477Y-155659875D01*
X140838093Y-157269819D02*
X140838093Y-156269819D01*
X140838093Y-156269819D02*
X141171426Y-156984104D01*
X141171426Y-156984104D02*
X141504759Y-156269819D01*
X141504759Y-156269819D02*
X141504759Y-157269819D01*
X142361902Y-157222200D02*
X142266664Y-157269819D01*
X142266664Y-157269819D02*
X142076188Y-157269819D01*
X142076188Y-157269819D02*
X141980950Y-157222200D01*
X141980950Y-157222200D02*
X141933331Y-157126961D01*
X141933331Y-157126961D02*
X141933331Y-156746009D01*
X141933331Y-156746009D02*
X141980950Y-156650771D01*
X141980950Y-156650771D02*
X142076188Y-156603152D01*
X142076188Y-156603152D02*
X142266664Y-156603152D01*
X142266664Y-156603152D02*
X142361902Y-156650771D01*
X142361902Y-156650771D02*
X142409521Y-156746009D01*
X142409521Y-156746009D02*
X142409521Y-156841247D01*
X142409521Y-156841247D02*
X141933331Y-156936485D01*
X142980950Y-157269819D02*
X142885712Y-157222200D01*
X142885712Y-157222200D02*
X142838093Y-157126961D01*
X142838093Y-157126961D02*
X142838093Y-156269819D01*
X143361903Y-157269819D02*
X143361903Y-156603152D01*
X143361903Y-156269819D02*
X143314284Y-156317438D01*
X143314284Y-156317438D02*
X143361903Y-156365057D01*
X143361903Y-156365057D02*
X143409522Y-156317438D01*
X143409522Y-156317438D02*
X143361903Y-156269819D01*
X143361903Y-156269819D02*
X143361903Y-156365057D01*
X143790474Y-157222200D02*
X143885712Y-157269819D01*
X143885712Y-157269819D02*
X144076188Y-157269819D01*
X144076188Y-157269819D02*
X144171426Y-157222200D01*
X144171426Y-157222200D02*
X144219045Y-157126961D01*
X144219045Y-157126961D02*
X144219045Y-157079342D01*
X144219045Y-157079342D02*
X144171426Y-156984104D01*
X144171426Y-156984104D02*
X144076188Y-156936485D01*
X144076188Y-156936485D02*
X143933331Y-156936485D01*
X143933331Y-156936485D02*
X143838093Y-156888866D01*
X143838093Y-156888866D02*
X143790474Y-156793628D01*
X143790474Y-156793628D02*
X143790474Y-156746009D01*
X143790474Y-156746009D02*
X143838093Y-156650771D01*
X143838093Y-156650771D02*
X143933331Y-156603152D01*
X143933331Y-156603152D02*
X144076188Y-156603152D01*
X144076188Y-156603152D02*
X144171426Y-156650771D01*
X144599998Y-157222200D02*
X144695236Y-157269819D01*
X144695236Y-157269819D02*
X144885712Y-157269819D01*
X144885712Y-157269819D02*
X144980950Y-157222200D01*
X144980950Y-157222200D02*
X145028569Y-157126961D01*
X145028569Y-157126961D02*
X145028569Y-157079342D01*
X145028569Y-157079342D02*
X144980950Y-156984104D01*
X144980950Y-156984104D02*
X144885712Y-156936485D01*
X144885712Y-156936485D02*
X144742855Y-156936485D01*
X144742855Y-156936485D02*
X144647617Y-156888866D01*
X144647617Y-156888866D02*
X144599998Y-156793628D01*
X144599998Y-156793628D02*
X144599998Y-156746009D01*
X144599998Y-156746009D02*
X144647617Y-156650771D01*
X144647617Y-156650771D02*
X144742855Y-156603152D01*
X144742855Y-156603152D02*
X144885712Y-156603152D01*
X144885712Y-156603152D02*
X144980950Y-156650771D01*
X145885712Y-157269819D02*
X145885712Y-156746009D01*
X145885712Y-156746009D02*
X145838093Y-156650771D01*
X145838093Y-156650771D02*
X145742855Y-156603152D01*
X145742855Y-156603152D02*
X145552379Y-156603152D01*
X145552379Y-156603152D02*
X145457141Y-156650771D01*
X145885712Y-157222200D02*
X145790474Y-157269819D01*
X145790474Y-157269819D02*
X145552379Y-157269819D01*
X145552379Y-157269819D02*
X145457141Y-157222200D01*
X145457141Y-157222200D02*
X145409522Y-157126961D01*
X145409522Y-157126961D02*
X145409522Y-157031723D01*
X145409522Y-157031723D02*
X145457141Y-156936485D01*
X145457141Y-156936485D02*
X145552379Y-156888866D01*
X145552379Y-156888866D02*
X145790474Y-156888866D01*
X145790474Y-156888866D02*
X145885712Y-156841247D01*
X147123808Y-157269819D02*
X147123808Y-156269819D01*
X147123808Y-156269819D02*
X147361903Y-156269819D01*
X147361903Y-156269819D02*
X147504760Y-156317438D01*
X147504760Y-156317438D02*
X147599998Y-156412676D01*
X147599998Y-156412676D02*
X147647617Y-156507914D01*
X147647617Y-156507914D02*
X147695236Y-156698390D01*
X147695236Y-156698390D02*
X147695236Y-156841247D01*
X147695236Y-156841247D02*
X147647617Y-157031723D01*
X147647617Y-157031723D02*
X147599998Y-157126961D01*
X147599998Y-157126961D02*
X147504760Y-157222200D01*
X147504760Y-157222200D02*
X147361903Y-157269819D01*
X147361903Y-157269819D02*
X147123808Y-157269819D01*
X148504760Y-157222200D02*
X148409522Y-157269819D01*
X148409522Y-157269819D02*
X148219046Y-157269819D01*
X148219046Y-157269819D02*
X148123808Y-157222200D01*
X148123808Y-157222200D02*
X148076189Y-157126961D01*
X148076189Y-157126961D02*
X148076189Y-156746009D01*
X148076189Y-156746009D02*
X148123808Y-156650771D01*
X148123808Y-156650771D02*
X148219046Y-156603152D01*
X148219046Y-156603152D02*
X148409522Y-156603152D01*
X148409522Y-156603152D02*
X148504760Y-156650771D01*
X148504760Y-156650771D02*
X148552379Y-156746009D01*
X148552379Y-156746009D02*
X148552379Y-156841247D01*
X148552379Y-156841247D02*
X148076189Y-156936485D01*
X150219046Y-157269819D02*
X149742856Y-157269819D01*
X149742856Y-157269819D02*
X149742856Y-156269819D01*
X150980951Y-157269819D02*
X150980951Y-156746009D01*
X150980951Y-156746009D02*
X150933332Y-156650771D01*
X150933332Y-156650771D02*
X150838094Y-156603152D01*
X150838094Y-156603152D02*
X150647618Y-156603152D01*
X150647618Y-156603152D02*
X150552380Y-156650771D01*
X150980951Y-157222200D02*
X150885713Y-157269819D01*
X150885713Y-157269819D02*
X150647618Y-157269819D01*
X150647618Y-157269819D02*
X150552380Y-157222200D01*
X150552380Y-157222200D02*
X150504761Y-157126961D01*
X150504761Y-157126961D02*
X150504761Y-157031723D01*
X150504761Y-157031723D02*
X150552380Y-156936485D01*
X150552380Y-156936485D02*
X150647618Y-156888866D01*
X150647618Y-156888866D02*
X150885713Y-156888866D01*
X150885713Y-156888866D02*
X150980951Y-156841247D01*
X152790475Y-157174580D02*
X152742856Y-157222200D01*
X152742856Y-157222200D02*
X152599999Y-157269819D01*
X152599999Y-157269819D02*
X152504761Y-157269819D01*
X152504761Y-157269819D02*
X152361904Y-157222200D01*
X152361904Y-157222200D02*
X152266666Y-157126961D01*
X152266666Y-157126961D02*
X152219047Y-157031723D01*
X152219047Y-157031723D02*
X152171428Y-156841247D01*
X152171428Y-156841247D02*
X152171428Y-156698390D01*
X152171428Y-156698390D02*
X152219047Y-156507914D01*
X152219047Y-156507914D02*
X152266666Y-156412676D01*
X152266666Y-156412676D02*
X152361904Y-156317438D01*
X152361904Y-156317438D02*
X152504761Y-156269819D01*
X152504761Y-156269819D02*
X152599999Y-156269819D01*
X152599999Y-156269819D02*
X152742856Y-156317438D01*
X152742856Y-156317438D02*
X152790475Y-156365057D01*
X153219047Y-157269819D02*
X153219047Y-156603152D01*
X153219047Y-156793628D02*
X153266666Y-156698390D01*
X153266666Y-156698390D02*
X153314285Y-156650771D01*
X153314285Y-156650771D02*
X153409523Y-156603152D01*
X153409523Y-156603152D02*
X153504761Y-156603152D01*
X154266666Y-156603152D02*
X154266666Y-157269819D01*
X153838095Y-156603152D02*
X153838095Y-157126961D01*
X153838095Y-157126961D02*
X153885714Y-157222200D01*
X153885714Y-157222200D02*
X153980952Y-157269819D01*
X153980952Y-157269819D02*
X154123809Y-157269819D01*
X154123809Y-157269819D02*
X154219047Y-157222200D01*
X154219047Y-157222200D02*
X154266666Y-157174580D01*
X154647619Y-156603152D02*
X155171428Y-156603152D01*
X155171428Y-156603152D02*
X154647619Y-157269819D01*
X154647619Y-157269819D02*
X155171428Y-157269819D01*
X155600000Y-157222200D02*
X155600000Y-157269819D01*
X155600000Y-157269819D02*
X155552381Y-157365057D01*
X155552381Y-157365057D02*
X155504762Y-157412676D01*
X157314285Y-156317438D02*
X157219047Y-156269819D01*
X157219047Y-156269819D02*
X157076190Y-156269819D01*
X157076190Y-156269819D02*
X156933333Y-156317438D01*
X156933333Y-156317438D02*
X156838095Y-156412676D01*
X156838095Y-156412676D02*
X156790476Y-156507914D01*
X156790476Y-156507914D02*
X156742857Y-156698390D01*
X156742857Y-156698390D02*
X156742857Y-156841247D01*
X156742857Y-156841247D02*
X156790476Y-157031723D01*
X156790476Y-157031723D02*
X156838095Y-157126961D01*
X156838095Y-157126961D02*
X156933333Y-157222200D01*
X156933333Y-157222200D02*
X157076190Y-157269819D01*
X157076190Y-157269819D02*
X157171428Y-157269819D01*
X157171428Y-157269819D02*
X157314285Y-157222200D01*
X157314285Y-157222200D02*
X157361904Y-157174580D01*
X157361904Y-157174580D02*
X157361904Y-156841247D01*
X157361904Y-156841247D02*
X157171428Y-156841247D01*
X157790476Y-157269819D02*
X157790476Y-156603152D01*
X157790476Y-156269819D02*
X157742857Y-156317438D01*
X157742857Y-156317438D02*
X157790476Y-156365057D01*
X157790476Y-156365057D02*
X157838095Y-156317438D01*
X157838095Y-156317438D02*
X157790476Y-156269819D01*
X157790476Y-156269819D02*
X157790476Y-156365057D01*
X158219047Y-157222200D02*
X158314285Y-157269819D01*
X158314285Y-157269819D02*
X158504761Y-157269819D01*
X158504761Y-157269819D02*
X158599999Y-157222200D01*
X158599999Y-157222200D02*
X158647618Y-157126961D01*
X158647618Y-157126961D02*
X158647618Y-157079342D01*
X158647618Y-157079342D02*
X158599999Y-156984104D01*
X158599999Y-156984104D02*
X158504761Y-156936485D01*
X158504761Y-156936485D02*
X158361904Y-156936485D01*
X158361904Y-156936485D02*
X158266666Y-156888866D01*
X158266666Y-156888866D02*
X158219047Y-156793628D01*
X158219047Y-156793628D02*
X158219047Y-156746009D01*
X158219047Y-156746009D02*
X158266666Y-156650771D01*
X158266666Y-156650771D02*
X158361904Y-156603152D01*
X158361904Y-156603152D02*
X158504761Y-156603152D01*
X158504761Y-156603152D02*
X158599999Y-156650771D01*
X159457142Y-157222200D02*
X159361904Y-157269819D01*
X159361904Y-157269819D02*
X159171428Y-157269819D01*
X159171428Y-157269819D02*
X159076190Y-157222200D01*
X159076190Y-157222200D02*
X159028571Y-157126961D01*
X159028571Y-157126961D02*
X159028571Y-156746009D01*
X159028571Y-156746009D02*
X159076190Y-156650771D01*
X159076190Y-156650771D02*
X159171428Y-156603152D01*
X159171428Y-156603152D02*
X159361904Y-156603152D01*
X159361904Y-156603152D02*
X159457142Y-156650771D01*
X159457142Y-156650771D02*
X159504761Y-156746009D01*
X159504761Y-156746009D02*
X159504761Y-156841247D01*
X159504761Y-156841247D02*
X159028571Y-156936485D01*
X160076190Y-157269819D02*
X159980952Y-157222200D01*
X159980952Y-157222200D02*
X159933333Y-157126961D01*
X159933333Y-157126961D02*
X159933333Y-156269819D01*
X160600000Y-157269819D02*
X160504762Y-157222200D01*
X160504762Y-157222200D02*
X160457143Y-157126961D01*
X160457143Y-157126961D02*
X160457143Y-156269819D01*
X161361905Y-157222200D02*
X161266667Y-157269819D01*
X161266667Y-157269819D02*
X161076191Y-157269819D01*
X161076191Y-157269819D02*
X160980953Y-157222200D01*
X160980953Y-157222200D02*
X160933334Y-157126961D01*
X160933334Y-157126961D02*
X160933334Y-156746009D01*
X160933334Y-156746009D02*
X160980953Y-156650771D01*
X160980953Y-156650771D02*
X161076191Y-156603152D01*
X161076191Y-156603152D02*
X161266667Y-156603152D01*
X161266667Y-156603152D02*
X161361905Y-156650771D01*
X161361905Y-156650771D02*
X161409524Y-156746009D01*
X161409524Y-156746009D02*
X161409524Y-156841247D01*
X161409524Y-156841247D02*
X160933334Y-156936485D01*
X162600001Y-157269819D02*
X162600001Y-156269819D01*
X162600001Y-156269819D02*
X162933334Y-156984104D01*
X162933334Y-156984104D02*
X163266667Y-156269819D01*
X163266667Y-156269819D02*
X163266667Y-157269819D01*
X164123810Y-157222200D02*
X164028572Y-157269819D01*
X164028572Y-157269819D02*
X163838096Y-157269819D01*
X163838096Y-157269819D02*
X163742858Y-157222200D01*
X163742858Y-157222200D02*
X163695239Y-157126961D01*
X163695239Y-157126961D02*
X163695239Y-156746009D01*
X163695239Y-156746009D02*
X163742858Y-156650771D01*
X163742858Y-156650771D02*
X163838096Y-156603152D01*
X163838096Y-156603152D02*
X164028572Y-156603152D01*
X164028572Y-156603152D02*
X164123810Y-156650771D01*
X164123810Y-156650771D02*
X164171429Y-156746009D01*
X164171429Y-156746009D02*
X164171429Y-156841247D01*
X164171429Y-156841247D02*
X163695239Y-156936485D01*
X164600001Y-156603152D02*
X164600001Y-157269819D01*
X164600001Y-156698390D02*
X164647620Y-156650771D01*
X164647620Y-156650771D02*
X164742858Y-156603152D01*
X164742858Y-156603152D02*
X164885715Y-156603152D01*
X164885715Y-156603152D02*
X164980953Y-156650771D01*
X164980953Y-156650771D02*
X165028572Y-156746009D01*
X165028572Y-156746009D02*
X165028572Y-157269819D01*
X165933334Y-157269819D02*
X165933334Y-156269819D01*
X165933334Y-157222200D02*
X165838096Y-157269819D01*
X165838096Y-157269819D02*
X165647620Y-157269819D01*
X165647620Y-157269819D02*
X165552382Y-157222200D01*
X165552382Y-157222200D02*
X165504763Y-157174580D01*
X165504763Y-157174580D02*
X165457144Y-157079342D01*
X165457144Y-157079342D02*
X165457144Y-156793628D01*
X165457144Y-156793628D02*
X165504763Y-156698390D01*
X165504763Y-156698390D02*
X165552382Y-156650771D01*
X165552382Y-156650771D02*
X165647620Y-156603152D01*
X165647620Y-156603152D02*
X165838096Y-156603152D01*
X165838096Y-156603152D02*
X165933334Y-156650771D01*
X166552382Y-157269819D02*
X166457144Y-157222200D01*
X166457144Y-157222200D02*
X166409525Y-157174580D01*
X166409525Y-157174580D02*
X166361906Y-157079342D01*
X166361906Y-157079342D02*
X166361906Y-156793628D01*
X166361906Y-156793628D02*
X166409525Y-156698390D01*
X166409525Y-156698390D02*
X166457144Y-156650771D01*
X166457144Y-156650771D02*
X166552382Y-156603152D01*
X166552382Y-156603152D02*
X166695239Y-156603152D01*
X166695239Y-156603152D02*
X166790477Y-156650771D01*
X166790477Y-156650771D02*
X166838096Y-156698390D01*
X166838096Y-156698390D02*
X166885715Y-156793628D01*
X166885715Y-156793628D02*
X166885715Y-157079342D01*
X166885715Y-157079342D02*
X166838096Y-157174580D01*
X166838096Y-157174580D02*
X166790477Y-157222200D01*
X166790477Y-157222200D02*
X166695239Y-157269819D01*
X166695239Y-157269819D02*
X166552382Y-157269819D01*
X167219049Y-156603152D02*
X167742858Y-156603152D01*
X167742858Y-156603152D02*
X167219049Y-157269819D01*
X167219049Y-157269819D02*
X167742858Y-157269819D01*
X168552382Y-157269819D02*
X168552382Y-156746009D01*
X168552382Y-156746009D02*
X168504763Y-156650771D01*
X168504763Y-156650771D02*
X168409525Y-156603152D01*
X168409525Y-156603152D02*
X168219049Y-156603152D01*
X168219049Y-156603152D02*
X168123811Y-156650771D01*
X168552382Y-157222200D02*
X168457144Y-157269819D01*
X168457144Y-157269819D02*
X168219049Y-157269819D01*
X168219049Y-157269819D02*
X168123811Y-157222200D01*
X168123811Y-157222200D02*
X168076192Y-157126961D01*
X168076192Y-157126961D02*
X168076192Y-157031723D01*
X168076192Y-157031723D02*
X168123811Y-156936485D01*
X168123811Y-156936485D02*
X168219049Y-156888866D01*
X168219049Y-156888866D02*
X168457144Y-156888866D01*
X168457144Y-156888866D02*
X168552382Y-156841247D01*
X169076192Y-157222200D02*
X169076192Y-157269819D01*
X169076192Y-157269819D02*
X169028573Y-157365057D01*
X169028573Y-157365057D02*
X168980954Y-157412676D01*
X170266668Y-157269819D02*
X170266668Y-156269819D01*
X170266668Y-156269819D02*
X170504763Y-156269819D01*
X170504763Y-156269819D02*
X170647620Y-156317438D01*
X170647620Y-156317438D02*
X170742858Y-156412676D01*
X170742858Y-156412676D02*
X170790477Y-156507914D01*
X170790477Y-156507914D02*
X170838096Y-156698390D01*
X170838096Y-156698390D02*
X170838096Y-156841247D01*
X170838096Y-156841247D02*
X170790477Y-157031723D01*
X170790477Y-157031723D02*
X170742858Y-157126961D01*
X170742858Y-157126961D02*
X170647620Y-157222200D01*
X170647620Y-157222200D02*
X170504763Y-157269819D01*
X170504763Y-157269819D02*
X170266668Y-157269819D01*
X171695239Y-156603152D02*
X171695239Y-157269819D01*
X171266668Y-156603152D02*
X171266668Y-157126961D01*
X171266668Y-157126961D02*
X171314287Y-157222200D01*
X171314287Y-157222200D02*
X171409525Y-157269819D01*
X171409525Y-157269819D02*
X171552382Y-157269819D01*
X171552382Y-157269819D02*
X171647620Y-157222200D01*
X171647620Y-157222200D02*
X171695239Y-157174580D01*
X172123811Y-157222200D02*
X172219049Y-157269819D01*
X172219049Y-157269819D02*
X172409525Y-157269819D01*
X172409525Y-157269819D02*
X172504763Y-157222200D01*
X172504763Y-157222200D02*
X172552382Y-157126961D01*
X172552382Y-157126961D02*
X172552382Y-157079342D01*
X172552382Y-157079342D02*
X172504763Y-156984104D01*
X172504763Y-156984104D02*
X172409525Y-156936485D01*
X172409525Y-156936485D02*
X172266668Y-156936485D01*
X172266668Y-156936485D02*
X172171430Y-156888866D01*
X172171430Y-156888866D02*
X172123811Y-156793628D01*
X172123811Y-156793628D02*
X172123811Y-156746009D01*
X172123811Y-156746009D02*
X172171430Y-156650771D01*
X172171430Y-156650771D02*
X172266668Y-156603152D01*
X172266668Y-156603152D02*
X172409525Y-156603152D01*
X172409525Y-156603152D02*
X172504763Y-156650771D01*
X172838097Y-156603152D02*
X173219049Y-156603152D01*
X172980954Y-156269819D02*
X172980954Y-157126961D01*
X172980954Y-157126961D02*
X173028573Y-157222200D01*
X173028573Y-157222200D02*
X173123811Y-157269819D01*
X173123811Y-157269819D02*
X173219049Y-157269819D01*
X173552383Y-157269819D02*
X173552383Y-156603152D01*
X173552383Y-156269819D02*
X173504764Y-156317438D01*
X173504764Y-156317438D02*
X173552383Y-156365057D01*
X173552383Y-156365057D02*
X173600002Y-156317438D01*
X173600002Y-156317438D02*
X173552383Y-156269819D01*
X173552383Y-156269819D02*
X173552383Y-156365057D01*
X174028573Y-156603152D02*
X174028573Y-157269819D01*
X174028573Y-156698390D02*
X174076192Y-156650771D01*
X174076192Y-156650771D02*
X174171430Y-156603152D01*
X174171430Y-156603152D02*
X174314287Y-156603152D01*
X174314287Y-156603152D02*
X174409525Y-156650771D01*
X174409525Y-156650771D02*
X174457144Y-156746009D01*
X174457144Y-156746009D02*
X174457144Y-157269819D01*
X175695240Y-157269819D02*
X175695240Y-156269819D01*
X175695240Y-156269819D02*
X176028573Y-156984104D01*
X176028573Y-156984104D02*
X176361906Y-156269819D01*
X176361906Y-156269819D02*
X176361906Y-157269819D01*
X176838097Y-157269819D02*
X176838097Y-156603152D01*
X176838097Y-156269819D02*
X176790478Y-156317438D01*
X176790478Y-156317438D02*
X176838097Y-156365057D01*
X176838097Y-156365057D02*
X176885716Y-156317438D01*
X176885716Y-156317438D02*
X176838097Y-156269819D01*
X176838097Y-156269819D02*
X176838097Y-156365057D01*
X177457144Y-157269819D02*
X177361906Y-157222200D01*
X177361906Y-157222200D02*
X177314287Y-157126961D01*
X177314287Y-157126961D02*
X177314287Y-156269819D01*
X177980954Y-157269819D02*
X177885716Y-157222200D01*
X177885716Y-157222200D02*
X177838097Y-157126961D01*
X177838097Y-157126961D02*
X177838097Y-156269819D01*
X178742859Y-157222200D02*
X178647621Y-157269819D01*
X178647621Y-157269819D02*
X178457145Y-157269819D01*
X178457145Y-157269819D02*
X178361907Y-157222200D01*
X178361907Y-157222200D02*
X178314288Y-157126961D01*
X178314288Y-157126961D02*
X178314288Y-156746009D01*
X178314288Y-156746009D02*
X178361907Y-156650771D01*
X178361907Y-156650771D02*
X178457145Y-156603152D01*
X178457145Y-156603152D02*
X178647621Y-156603152D01*
X178647621Y-156603152D02*
X178742859Y-156650771D01*
X178742859Y-156650771D02*
X178790478Y-156746009D01*
X178790478Y-156746009D02*
X178790478Y-156841247D01*
X178790478Y-156841247D02*
X178314288Y-156936485D01*
X179219050Y-157269819D02*
X179219050Y-156603152D01*
X179219050Y-156793628D02*
X179266669Y-156698390D01*
X179266669Y-156698390D02*
X179314288Y-156650771D01*
X179314288Y-156650771D02*
X179409526Y-156603152D01*
X179409526Y-156603152D02*
X179504764Y-156603152D01*
X138285714Y-120254819D02*
X138285714Y-121064342D01*
X138285714Y-121064342D02*
X138333333Y-121159580D01*
X138333333Y-121159580D02*
X138380952Y-121207200D01*
X138380952Y-121207200D02*
X138476190Y-121254819D01*
X138476190Y-121254819D02*
X138666666Y-121254819D01*
X138666666Y-121254819D02*
X138761904Y-121207200D01*
X138761904Y-121207200D02*
X138809523Y-121159580D01*
X138809523Y-121159580D02*
X138857142Y-121064342D01*
X138857142Y-121064342D02*
X138857142Y-120254819D01*
X139333333Y-120588152D02*
X139333333Y-121588152D01*
X139333333Y-120635771D02*
X139428571Y-120588152D01*
X139428571Y-120588152D02*
X139619047Y-120588152D01*
X139619047Y-120588152D02*
X139714285Y-120635771D01*
X139714285Y-120635771D02*
X139761904Y-120683390D01*
X139761904Y-120683390D02*
X139809523Y-120778628D01*
X139809523Y-120778628D02*
X139809523Y-121064342D01*
X139809523Y-121064342D02*
X139761904Y-121159580D01*
X139761904Y-121159580D02*
X139714285Y-121207200D01*
X139714285Y-121207200D02*
X139619047Y-121254819D01*
X139619047Y-121254819D02*
X139428571Y-121254819D01*
X139428571Y-121254819D02*
X139333333Y-121207200D01*
X140761904Y-121254819D02*
X140190476Y-121254819D01*
X140476190Y-121254819D02*
X140476190Y-120254819D01*
X140476190Y-120254819D02*
X140380952Y-120397676D01*
X140380952Y-120397676D02*
X140285714Y-120492914D01*
X140285714Y-120492914D02*
X140190476Y-120540533D01*
X164533333Y-106979580D02*
X164485714Y-107027200D01*
X164485714Y-107027200D02*
X164342857Y-107074819D01*
X164342857Y-107074819D02*
X164247619Y-107074819D01*
X164247619Y-107074819D02*
X164104762Y-107027200D01*
X164104762Y-107027200D02*
X164009524Y-106931961D01*
X164009524Y-106931961D02*
X163961905Y-106836723D01*
X163961905Y-106836723D02*
X163914286Y-106646247D01*
X163914286Y-106646247D02*
X163914286Y-106503390D01*
X163914286Y-106503390D02*
X163961905Y-106312914D01*
X163961905Y-106312914D02*
X164009524Y-106217676D01*
X164009524Y-106217676D02*
X164104762Y-106122438D01*
X164104762Y-106122438D02*
X164247619Y-106074819D01*
X164247619Y-106074819D02*
X164342857Y-106074819D01*
X164342857Y-106074819D02*
X164485714Y-106122438D01*
X164485714Y-106122438D02*
X164533333Y-106170057D01*
X164866667Y-106074819D02*
X165533333Y-106074819D01*
X165533333Y-106074819D02*
X165104762Y-107074819D01*
X173871428Y-120454819D02*
X174442856Y-120454819D01*
X174157142Y-121454819D02*
X174157142Y-120454819D01*
X174919047Y-121454819D02*
X174823809Y-121407200D01*
X174823809Y-121407200D02*
X174776190Y-121359580D01*
X174776190Y-121359580D02*
X174728571Y-121264342D01*
X174728571Y-121264342D02*
X174728571Y-120978628D01*
X174728571Y-120978628D02*
X174776190Y-120883390D01*
X174776190Y-120883390D02*
X174823809Y-120835771D01*
X174823809Y-120835771D02*
X174919047Y-120788152D01*
X174919047Y-120788152D02*
X175061904Y-120788152D01*
X175061904Y-120788152D02*
X175157142Y-120835771D01*
X175157142Y-120835771D02*
X175204761Y-120883390D01*
X175204761Y-120883390D02*
X175252380Y-120978628D01*
X175252380Y-120978628D02*
X175252380Y-121264342D01*
X175252380Y-121264342D02*
X175204761Y-121359580D01*
X175204761Y-121359580D02*
X175157142Y-121407200D01*
X175157142Y-121407200D02*
X175061904Y-121454819D01*
X175061904Y-121454819D02*
X174919047Y-121454819D01*
X175680952Y-120788152D02*
X175680952Y-121788152D01*
X175680952Y-120835771D02*
X175776190Y-120788152D01*
X175776190Y-120788152D02*
X175966666Y-120788152D01*
X175966666Y-120788152D02*
X176061904Y-120835771D01*
X176061904Y-120835771D02*
X176109523Y-120883390D01*
X176109523Y-120883390D02*
X176157142Y-120978628D01*
X176157142Y-120978628D02*
X176157142Y-121264342D01*
X176157142Y-121264342D02*
X176109523Y-121359580D01*
X176109523Y-121359580D02*
X176061904Y-121407200D01*
X176061904Y-121407200D02*
X175966666Y-121454819D01*
X175966666Y-121454819D02*
X175776190Y-121454819D01*
X175776190Y-121454819D02*
X175680952Y-121407200D01*
X176347619Y-121550057D02*
X177109523Y-121550057D01*
X177347619Y-121454819D02*
X177347619Y-120454819D01*
X177347619Y-120835771D02*
X177442857Y-120788152D01*
X177442857Y-120788152D02*
X177633333Y-120788152D01*
X177633333Y-120788152D02*
X177728571Y-120835771D01*
X177728571Y-120835771D02*
X177776190Y-120883390D01*
X177776190Y-120883390D02*
X177823809Y-120978628D01*
X177823809Y-120978628D02*
X177823809Y-121264342D01*
X177823809Y-121264342D02*
X177776190Y-121359580D01*
X177776190Y-121359580D02*
X177728571Y-121407200D01*
X177728571Y-121407200D02*
X177633333Y-121454819D01*
X177633333Y-121454819D02*
X177442857Y-121454819D01*
X177442857Y-121454819D02*
X177347619Y-121407200D01*
X178680952Y-120788152D02*
X178680952Y-121454819D01*
X178252381Y-120788152D02*
X178252381Y-121311961D01*
X178252381Y-121311961D02*
X178300000Y-121407200D01*
X178300000Y-121407200D02*
X178395238Y-121454819D01*
X178395238Y-121454819D02*
X178538095Y-121454819D01*
X178538095Y-121454819D02*
X178633333Y-121407200D01*
X178633333Y-121407200D02*
X178680952Y-121359580D01*
X179014286Y-120788152D02*
X179395238Y-120788152D01*
X179157143Y-120454819D02*
X179157143Y-121311961D01*
X179157143Y-121311961D02*
X179204762Y-121407200D01*
X179204762Y-121407200D02*
X179300000Y-121454819D01*
X179300000Y-121454819D02*
X179395238Y-121454819D01*
X179585715Y-120788152D02*
X179966667Y-120788152D01*
X179728572Y-120454819D02*
X179728572Y-121311961D01*
X179728572Y-121311961D02*
X179776191Y-121407200D01*
X179776191Y-121407200D02*
X179871429Y-121454819D01*
X179871429Y-121454819D02*
X179966667Y-121454819D01*
X180442858Y-121454819D02*
X180347620Y-121407200D01*
X180347620Y-121407200D02*
X180300001Y-121359580D01*
X180300001Y-121359580D02*
X180252382Y-121264342D01*
X180252382Y-121264342D02*
X180252382Y-120978628D01*
X180252382Y-120978628D02*
X180300001Y-120883390D01*
X180300001Y-120883390D02*
X180347620Y-120835771D01*
X180347620Y-120835771D02*
X180442858Y-120788152D01*
X180442858Y-120788152D02*
X180585715Y-120788152D01*
X180585715Y-120788152D02*
X180680953Y-120835771D01*
X180680953Y-120835771D02*
X180728572Y-120883390D01*
X180728572Y-120883390D02*
X180776191Y-120978628D01*
X180776191Y-120978628D02*
X180776191Y-121264342D01*
X180776191Y-121264342D02*
X180728572Y-121359580D01*
X180728572Y-121359580D02*
X180680953Y-121407200D01*
X180680953Y-121407200D02*
X180585715Y-121454819D01*
X180585715Y-121454819D02*
X180442858Y-121454819D01*
X181204763Y-120788152D02*
X181204763Y-121454819D01*
X181204763Y-120883390D02*
X181252382Y-120835771D01*
X181252382Y-120835771D02*
X181347620Y-120788152D01*
X181347620Y-120788152D02*
X181490477Y-120788152D01*
X181490477Y-120788152D02*
X181585715Y-120835771D01*
X181585715Y-120835771D02*
X181633334Y-120931009D01*
X181633334Y-120931009D02*
X181633334Y-121454819D01*
X182633334Y-121454819D02*
X182061906Y-121454819D01*
X182347620Y-121454819D02*
X182347620Y-120454819D01*
X182347620Y-120454819D02*
X182252382Y-120597676D01*
X182252382Y-120597676D02*
X182157144Y-120692914D01*
X182157144Y-120692914D02*
X182061906Y-120740533D01*
X137333333Y-141454819D02*
X137333333Y-140454819D01*
X137333333Y-140454819D02*
X137571428Y-140454819D01*
X137571428Y-140454819D02*
X137714285Y-140502438D01*
X137714285Y-140502438D02*
X137809523Y-140597676D01*
X137809523Y-140597676D02*
X137857142Y-140692914D01*
X137857142Y-140692914D02*
X137904761Y-140883390D01*
X137904761Y-140883390D02*
X137904761Y-141026247D01*
X137904761Y-141026247D02*
X137857142Y-141216723D01*
X137857142Y-141216723D02*
X137809523Y-141311961D01*
X137809523Y-141311961D02*
X137714285Y-141407200D01*
X137714285Y-141407200D02*
X137571428Y-141454819D01*
X137571428Y-141454819D02*
X137333333Y-141454819D01*
X138476190Y-141454819D02*
X138380952Y-141407200D01*
X138380952Y-141407200D02*
X138333333Y-141359580D01*
X138333333Y-141359580D02*
X138285714Y-141264342D01*
X138285714Y-141264342D02*
X138285714Y-140978628D01*
X138285714Y-140978628D02*
X138333333Y-140883390D01*
X138333333Y-140883390D02*
X138380952Y-140835771D01*
X138380952Y-140835771D02*
X138476190Y-140788152D01*
X138476190Y-140788152D02*
X138619047Y-140788152D01*
X138619047Y-140788152D02*
X138714285Y-140835771D01*
X138714285Y-140835771D02*
X138761904Y-140883390D01*
X138761904Y-140883390D02*
X138809523Y-140978628D01*
X138809523Y-140978628D02*
X138809523Y-141264342D01*
X138809523Y-141264342D02*
X138761904Y-141359580D01*
X138761904Y-141359580D02*
X138714285Y-141407200D01*
X138714285Y-141407200D02*
X138619047Y-141454819D01*
X138619047Y-141454819D02*
X138476190Y-141454819D01*
X139142857Y-140788152D02*
X139333333Y-141454819D01*
X139333333Y-141454819D02*
X139523809Y-140978628D01*
X139523809Y-140978628D02*
X139714285Y-141454819D01*
X139714285Y-141454819D02*
X139904761Y-140788152D01*
X140285714Y-140788152D02*
X140285714Y-141454819D01*
X140285714Y-140883390D02*
X140333333Y-140835771D01*
X140333333Y-140835771D02*
X140428571Y-140788152D01*
X140428571Y-140788152D02*
X140571428Y-140788152D01*
X140571428Y-140788152D02*
X140666666Y-140835771D01*
X140666666Y-140835771D02*
X140714285Y-140931009D01*
X140714285Y-140931009D02*
X140714285Y-141454819D01*
X141714285Y-141454819D02*
X141142857Y-141454819D01*
X141428571Y-141454819D02*
X141428571Y-140454819D01*
X141428571Y-140454819D02*
X141333333Y-140597676D01*
X141333333Y-140597676D02*
X141238095Y-140692914D01*
X141238095Y-140692914D02*
X141142857Y-140740533D01*
X196285714Y-145704819D02*
X196285714Y-144704819D01*
X196285714Y-144704819D02*
X196619047Y-145419104D01*
X196619047Y-145419104D02*
X196952380Y-144704819D01*
X196952380Y-144704819D02*
X196952380Y-145704819D01*
X197428571Y-145704819D02*
X197428571Y-144704819D01*
X197428571Y-144704819D02*
X197999999Y-145704819D01*
X197999999Y-145704819D02*
X197999999Y-144704819D01*
X198333333Y-144704819D02*
X198904761Y-144704819D01*
X198619047Y-145704819D02*
X198619047Y-144704819D01*
X199190476Y-144800057D02*
X199238095Y-144752438D01*
X199238095Y-144752438D02*
X199333333Y-144704819D01*
X199333333Y-144704819D02*
X199571428Y-144704819D01*
X199571428Y-144704819D02*
X199666666Y-144752438D01*
X199666666Y-144752438D02*
X199714285Y-144800057D01*
X199714285Y-144800057D02*
X199761904Y-144895295D01*
X199761904Y-144895295D02*
X199761904Y-144990533D01*
X199761904Y-144990533D02*
X199714285Y-145133390D01*
X199714285Y-145133390D02*
X199142857Y-145704819D01*
X199142857Y-145704819D02*
X199761904Y-145704819D01*
X131533333Y-106979580D02*
X131485714Y-107027200D01*
X131485714Y-107027200D02*
X131342857Y-107074819D01*
X131342857Y-107074819D02*
X131247619Y-107074819D01*
X131247619Y-107074819D02*
X131104762Y-107027200D01*
X131104762Y-107027200D02*
X131009524Y-106931961D01*
X131009524Y-106931961D02*
X130961905Y-106836723D01*
X130961905Y-106836723D02*
X130914286Y-106646247D01*
X130914286Y-106646247D02*
X130914286Y-106503390D01*
X130914286Y-106503390D02*
X130961905Y-106312914D01*
X130961905Y-106312914D02*
X131009524Y-106217676D01*
X131009524Y-106217676D02*
X131104762Y-106122438D01*
X131104762Y-106122438D02*
X131247619Y-106074819D01*
X131247619Y-106074819D02*
X131342857Y-106074819D01*
X131342857Y-106074819D02*
X131485714Y-106122438D01*
X131485714Y-106122438D02*
X131533333Y-106170057D01*
X132438095Y-106074819D02*
X131961905Y-106074819D01*
X131961905Y-106074819D02*
X131914286Y-106551009D01*
X131914286Y-106551009D02*
X131961905Y-106503390D01*
X131961905Y-106503390D02*
X132057143Y-106455771D01*
X132057143Y-106455771D02*
X132295238Y-106455771D01*
X132295238Y-106455771D02*
X132390476Y-106503390D01*
X132390476Y-106503390D02*
X132438095Y-106551009D01*
X132438095Y-106551009D02*
X132485714Y-106646247D01*
X132485714Y-106646247D02*
X132485714Y-106884342D01*
X132485714Y-106884342D02*
X132438095Y-106979580D01*
X132438095Y-106979580D02*
X132390476Y-107027200D01*
X132390476Y-107027200D02*
X132295238Y-107074819D01*
X132295238Y-107074819D02*
X132057143Y-107074819D01*
X132057143Y-107074819D02*
X131961905Y-107027200D01*
X131961905Y-107027200D02*
X131914286Y-106979580D01*
X147904761Y-131254819D02*
X147571428Y-130778628D01*
X147333333Y-131254819D02*
X147333333Y-130254819D01*
X147333333Y-130254819D02*
X147714285Y-130254819D01*
X147714285Y-130254819D02*
X147809523Y-130302438D01*
X147809523Y-130302438D02*
X147857142Y-130350057D01*
X147857142Y-130350057D02*
X147904761Y-130445295D01*
X147904761Y-130445295D02*
X147904761Y-130588152D01*
X147904761Y-130588152D02*
X147857142Y-130683390D01*
X147857142Y-130683390D02*
X147809523Y-130731009D01*
X147809523Y-130731009D02*
X147714285Y-130778628D01*
X147714285Y-130778628D02*
X147333333Y-130778628D01*
X148333333Y-131254819D02*
X148333333Y-130588152D01*
X148333333Y-130254819D02*
X148285714Y-130302438D01*
X148285714Y-130302438D02*
X148333333Y-130350057D01*
X148333333Y-130350057D02*
X148380952Y-130302438D01*
X148380952Y-130302438D02*
X148333333Y-130254819D01*
X148333333Y-130254819D02*
X148333333Y-130350057D01*
X149238094Y-130588152D02*
X149238094Y-131397676D01*
X149238094Y-131397676D02*
X149190475Y-131492914D01*
X149190475Y-131492914D02*
X149142856Y-131540533D01*
X149142856Y-131540533D02*
X149047618Y-131588152D01*
X149047618Y-131588152D02*
X148904761Y-131588152D01*
X148904761Y-131588152D02*
X148809523Y-131540533D01*
X149238094Y-131207200D02*
X149142856Y-131254819D01*
X149142856Y-131254819D02*
X148952380Y-131254819D01*
X148952380Y-131254819D02*
X148857142Y-131207200D01*
X148857142Y-131207200D02*
X148809523Y-131159580D01*
X148809523Y-131159580D02*
X148761904Y-131064342D01*
X148761904Y-131064342D02*
X148761904Y-130778628D01*
X148761904Y-130778628D02*
X148809523Y-130683390D01*
X148809523Y-130683390D02*
X148857142Y-130635771D01*
X148857142Y-130635771D02*
X148952380Y-130588152D01*
X148952380Y-130588152D02*
X149142856Y-130588152D01*
X149142856Y-130588152D02*
X149238094Y-130635771D01*
X149714285Y-131254819D02*
X149714285Y-130254819D01*
X150142856Y-131254819D02*
X150142856Y-130731009D01*
X150142856Y-130731009D02*
X150095237Y-130635771D01*
X150095237Y-130635771D02*
X149999999Y-130588152D01*
X149999999Y-130588152D02*
X149857142Y-130588152D01*
X149857142Y-130588152D02*
X149761904Y-130635771D01*
X149761904Y-130635771D02*
X149714285Y-130683390D01*
X150476190Y-130588152D02*
X150857142Y-130588152D01*
X150619047Y-130254819D02*
X150619047Y-131111961D01*
X150619047Y-131111961D02*
X150666666Y-131207200D01*
X150666666Y-131207200D02*
X150761904Y-131254819D01*
X150761904Y-131254819D02*
X150857142Y-131254819D01*
X151714285Y-131254819D02*
X151142857Y-131254819D01*
X151428571Y-131254819D02*
X151428571Y-130254819D01*
X151428571Y-130254819D02*
X151333333Y-130397676D01*
X151333333Y-130397676D02*
X151238095Y-130492914D01*
X151238095Y-130492914D02*
X151142857Y-130540533D01*
X173265475Y-141006009D02*
X173408332Y-141053628D01*
X173408332Y-141053628D02*
X173455951Y-141101247D01*
X173455951Y-141101247D02*
X173503570Y-141196485D01*
X173503570Y-141196485D02*
X173503570Y-141339342D01*
X173503570Y-141339342D02*
X173455951Y-141434580D01*
X173455951Y-141434580D02*
X173408332Y-141482200D01*
X173408332Y-141482200D02*
X173313094Y-141529819D01*
X173313094Y-141529819D02*
X172932142Y-141529819D01*
X172932142Y-141529819D02*
X172932142Y-140529819D01*
X172932142Y-140529819D02*
X173265475Y-140529819D01*
X173265475Y-140529819D02*
X173360713Y-140577438D01*
X173360713Y-140577438D02*
X173408332Y-140625057D01*
X173408332Y-140625057D02*
X173455951Y-140720295D01*
X173455951Y-140720295D02*
X173455951Y-140815533D01*
X173455951Y-140815533D02*
X173408332Y-140910771D01*
X173408332Y-140910771D02*
X173360713Y-140958390D01*
X173360713Y-140958390D02*
X173265475Y-141006009D01*
X173265475Y-141006009D02*
X172932142Y-141006009D01*
X174074999Y-141529819D02*
X173979761Y-141482200D01*
X173979761Y-141482200D02*
X173932142Y-141434580D01*
X173932142Y-141434580D02*
X173884523Y-141339342D01*
X173884523Y-141339342D02*
X173884523Y-141053628D01*
X173884523Y-141053628D02*
X173932142Y-140958390D01*
X173932142Y-140958390D02*
X173979761Y-140910771D01*
X173979761Y-140910771D02*
X174074999Y-140863152D01*
X174074999Y-140863152D02*
X174217856Y-140863152D01*
X174217856Y-140863152D02*
X174313094Y-140910771D01*
X174313094Y-140910771D02*
X174360713Y-140958390D01*
X174360713Y-140958390D02*
X174408332Y-141053628D01*
X174408332Y-141053628D02*
X174408332Y-141339342D01*
X174408332Y-141339342D02*
X174360713Y-141434580D01*
X174360713Y-141434580D02*
X174313094Y-141482200D01*
X174313094Y-141482200D02*
X174217856Y-141529819D01*
X174217856Y-141529819D02*
X174074999Y-141529819D01*
X174694047Y-140863152D02*
X175074999Y-140863152D01*
X174836904Y-140529819D02*
X174836904Y-141386961D01*
X174836904Y-141386961D02*
X174884523Y-141482200D01*
X174884523Y-141482200D02*
X174979761Y-141529819D01*
X174979761Y-141529819D02*
X175074999Y-141529819D01*
X175265476Y-140863152D02*
X175646428Y-140863152D01*
X175408333Y-140529819D02*
X175408333Y-141386961D01*
X175408333Y-141386961D02*
X175455952Y-141482200D01*
X175455952Y-141482200D02*
X175551190Y-141529819D01*
X175551190Y-141529819D02*
X175646428Y-141529819D01*
X176122619Y-141529819D02*
X176027381Y-141482200D01*
X176027381Y-141482200D02*
X175979762Y-141434580D01*
X175979762Y-141434580D02*
X175932143Y-141339342D01*
X175932143Y-141339342D02*
X175932143Y-141053628D01*
X175932143Y-141053628D02*
X175979762Y-140958390D01*
X175979762Y-140958390D02*
X176027381Y-140910771D01*
X176027381Y-140910771D02*
X176122619Y-140863152D01*
X176122619Y-140863152D02*
X176265476Y-140863152D01*
X176265476Y-140863152D02*
X176360714Y-140910771D01*
X176360714Y-140910771D02*
X176408333Y-140958390D01*
X176408333Y-140958390D02*
X176455952Y-141053628D01*
X176455952Y-141053628D02*
X176455952Y-141339342D01*
X176455952Y-141339342D02*
X176408333Y-141434580D01*
X176408333Y-141434580D02*
X176360714Y-141482200D01*
X176360714Y-141482200D02*
X176265476Y-141529819D01*
X176265476Y-141529819D02*
X176122619Y-141529819D01*
X176884524Y-141529819D02*
X176884524Y-140863152D01*
X176884524Y-140958390D02*
X176932143Y-140910771D01*
X176932143Y-140910771D02*
X177027381Y-140863152D01*
X177027381Y-140863152D02*
X177170238Y-140863152D01*
X177170238Y-140863152D02*
X177265476Y-140910771D01*
X177265476Y-140910771D02*
X177313095Y-141006009D01*
X177313095Y-141006009D02*
X177313095Y-141529819D01*
X177313095Y-141006009D02*
X177360714Y-140910771D01*
X177360714Y-140910771D02*
X177455952Y-140863152D01*
X177455952Y-140863152D02*
X177598809Y-140863152D01*
X177598809Y-140863152D02*
X177694048Y-140910771D01*
X177694048Y-140910771D02*
X177741667Y-141006009D01*
X177741667Y-141006009D02*
X177741667Y-141529819D01*
X177979762Y-141625057D02*
X178741666Y-141625057D01*
X178979762Y-141529819D02*
X178979762Y-140529819D01*
X178979762Y-140910771D02*
X179075000Y-140863152D01*
X179075000Y-140863152D02*
X179265476Y-140863152D01*
X179265476Y-140863152D02*
X179360714Y-140910771D01*
X179360714Y-140910771D02*
X179408333Y-140958390D01*
X179408333Y-140958390D02*
X179455952Y-141053628D01*
X179455952Y-141053628D02*
X179455952Y-141339342D01*
X179455952Y-141339342D02*
X179408333Y-141434580D01*
X179408333Y-141434580D02*
X179360714Y-141482200D01*
X179360714Y-141482200D02*
X179265476Y-141529819D01*
X179265476Y-141529819D02*
X179075000Y-141529819D01*
X179075000Y-141529819D02*
X178979762Y-141482200D01*
X180313095Y-140863152D02*
X180313095Y-141529819D01*
X179884524Y-140863152D02*
X179884524Y-141386961D01*
X179884524Y-141386961D02*
X179932143Y-141482200D01*
X179932143Y-141482200D02*
X180027381Y-141529819D01*
X180027381Y-141529819D02*
X180170238Y-141529819D01*
X180170238Y-141529819D02*
X180265476Y-141482200D01*
X180265476Y-141482200D02*
X180313095Y-141434580D01*
X180646429Y-140863152D02*
X181027381Y-140863152D01*
X180789286Y-140529819D02*
X180789286Y-141386961D01*
X180789286Y-141386961D02*
X180836905Y-141482200D01*
X180836905Y-141482200D02*
X180932143Y-141529819D01*
X180932143Y-141529819D02*
X181027381Y-141529819D01*
X181217858Y-140863152D02*
X181598810Y-140863152D01*
X181360715Y-140529819D02*
X181360715Y-141386961D01*
X181360715Y-141386961D02*
X181408334Y-141482200D01*
X181408334Y-141482200D02*
X181503572Y-141529819D01*
X181503572Y-141529819D02*
X181598810Y-141529819D01*
X182075001Y-141529819D02*
X181979763Y-141482200D01*
X181979763Y-141482200D02*
X181932144Y-141434580D01*
X181932144Y-141434580D02*
X181884525Y-141339342D01*
X181884525Y-141339342D02*
X181884525Y-141053628D01*
X181884525Y-141053628D02*
X181932144Y-140958390D01*
X181932144Y-140958390D02*
X181979763Y-140910771D01*
X181979763Y-140910771D02*
X182075001Y-140863152D01*
X182075001Y-140863152D02*
X182217858Y-140863152D01*
X182217858Y-140863152D02*
X182313096Y-140910771D01*
X182313096Y-140910771D02*
X182360715Y-140958390D01*
X182360715Y-140958390D02*
X182408334Y-141053628D01*
X182408334Y-141053628D02*
X182408334Y-141339342D01*
X182408334Y-141339342D02*
X182360715Y-141434580D01*
X182360715Y-141434580D02*
X182313096Y-141482200D01*
X182313096Y-141482200D02*
X182217858Y-141529819D01*
X182217858Y-141529819D02*
X182075001Y-141529819D01*
X182836906Y-140863152D02*
X182836906Y-141529819D01*
X182836906Y-140958390D02*
X182884525Y-140910771D01*
X182884525Y-140910771D02*
X182979763Y-140863152D01*
X182979763Y-140863152D02*
X183122620Y-140863152D01*
X183122620Y-140863152D02*
X183217858Y-140910771D01*
X183217858Y-140910771D02*
X183265477Y-141006009D01*
X183265477Y-141006009D02*
X183265477Y-141529819D01*
X184265477Y-141529819D02*
X183694049Y-141529819D01*
X183979763Y-141529819D02*
X183979763Y-140529819D01*
X183979763Y-140529819D02*
X183884525Y-140672676D01*
X183884525Y-140672676D02*
X183789287Y-140767914D01*
X183789287Y-140767914D02*
X183694049Y-140815533D01*
X174804819Y-110866666D02*
X174328628Y-111199999D01*
X174804819Y-111438094D02*
X173804819Y-111438094D01*
X173804819Y-111438094D02*
X173804819Y-111057142D01*
X173804819Y-111057142D02*
X173852438Y-110961904D01*
X173852438Y-110961904D02*
X173900057Y-110914285D01*
X173900057Y-110914285D02*
X173995295Y-110866666D01*
X173995295Y-110866666D02*
X174138152Y-110866666D01*
X174138152Y-110866666D02*
X174233390Y-110914285D01*
X174233390Y-110914285D02*
X174281009Y-110961904D01*
X174281009Y-110961904D02*
X174328628Y-111057142D01*
X174328628Y-111057142D02*
X174328628Y-111438094D01*
X174804819Y-109914285D02*
X174804819Y-110485713D01*
X174804819Y-110199999D02*
X173804819Y-110199999D01*
X173804819Y-110199999D02*
X173947676Y-110295237D01*
X173947676Y-110295237D02*
X174042914Y-110390475D01*
X174042914Y-110390475D02*
X174090533Y-110485713D01*
X118285714Y-145704819D02*
X118285714Y-144704819D01*
X118285714Y-144704819D02*
X118619047Y-145419104D01*
X118619047Y-145419104D02*
X118952380Y-144704819D01*
X118952380Y-144704819D02*
X118952380Y-145704819D01*
X119428571Y-145704819D02*
X119428571Y-144704819D01*
X119428571Y-144704819D02*
X119999999Y-145704819D01*
X119999999Y-145704819D02*
X119999999Y-144704819D01*
X120333333Y-144704819D02*
X120904761Y-144704819D01*
X120619047Y-145704819D02*
X120619047Y-144704819D01*
X121142857Y-144704819D02*
X121761904Y-144704819D01*
X121761904Y-144704819D02*
X121428571Y-145085771D01*
X121428571Y-145085771D02*
X121571428Y-145085771D01*
X121571428Y-145085771D02*
X121666666Y-145133390D01*
X121666666Y-145133390D02*
X121714285Y-145181009D01*
X121714285Y-145181009D02*
X121761904Y-145276247D01*
X121761904Y-145276247D02*
X121761904Y-145514342D01*
X121761904Y-145514342D02*
X121714285Y-145609580D01*
X121714285Y-145609580D02*
X121666666Y-145657200D01*
X121666666Y-145657200D02*
X121571428Y-145704819D01*
X121571428Y-145704819D02*
X121285714Y-145704819D01*
X121285714Y-145704819D02*
X121190476Y-145657200D01*
X121190476Y-145657200D02*
X121142857Y-145609580D01*
X184804819Y-110866666D02*
X184328628Y-111199999D01*
X184804819Y-111438094D02*
X183804819Y-111438094D01*
X183804819Y-111438094D02*
X183804819Y-111057142D01*
X183804819Y-111057142D02*
X183852438Y-110961904D01*
X183852438Y-110961904D02*
X183900057Y-110914285D01*
X183900057Y-110914285D02*
X183995295Y-110866666D01*
X183995295Y-110866666D02*
X184138152Y-110866666D01*
X184138152Y-110866666D02*
X184233390Y-110914285D01*
X184233390Y-110914285D02*
X184281009Y-110961904D01*
X184281009Y-110961904D02*
X184328628Y-111057142D01*
X184328628Y-111057142D02*
X184328628Y-111438094D01*
X183900057Y-110485713D02*
X183852438Y-110438094D01*
X183852438Y-110438094D02*
X183804819Y-110342856D01*
X183804819Y-110342856D02*
X183804819Y-110104761D01*
X183804819Y-110104761D02*
X183852438Y-110009523D01*
X183852438Y-110009523D02*
X183900057Y-109961904D01*
X183900057Y-109961904D02*
X183995295Y-109914285D01*
X183995295Y-109914285D02*
X184090533Y-109914285D01*
X184090533Y-109914285D02*
X184233390Y-109961904D01*
X184233390Y-109961904D02*
X184804819Y-110533332D01*
X184804819Y-110533332D02*
X184804819Y-109914285D01*
X137033333Y-106979580D02*
X136985714Y-107027200D01*
X136985714Y-107027200D02*
X136842857Y-107074819D01*
X136842857Y-107074819D02*
X136747619Y-107074819D01*
X136747619Y-107074819D02*
X136604762Y-107027200D01*
X136604762Y-107027200D02*
X136509524Y-106931961D01*
X136509524Y-106931961D02*
X136461905Y-106836723D01*
X136461905Y-106836723D02*
X136414286Y-106646247D01*
X136414286Y-106646247D02*
X136414286Y-106503390D01*
X136414286Y-106503390D02*
X136461905Y-106312914D01*
X136461905Y-106312914D02*
X136509524Y-106217676D01*
X136509524Y-106217676D02*
X136604762Y-106122438D01*
X136604762Y-106122438D02*
X136747619Y-106074819D01*
X136747619Y-106074819D02*
X136842857Y-106074819D01*
X136842857Y-106074819D02*
X136985714Y-106122438D01*
X136985714Y-106122438D02*
X137033333Y-106170057D01*
X137366667Y-106074819D02*
X137985714Y-106074819D01*
X137985714Y-106074819D02*
X137652381Y-106455771D01*
X137652381Y-106455771D02*
X137795238Y-106455771D01*
X137795238Y-106455771D02*
X137890476Y-106503390D01*
X137890476Y-106503390D02*
X137938095Y-106551009D01*
X137938095Y-106551009D02*
X137985714Y-106646247D01*
X137985714Y-106646247D02*
X137985714Y-106884342D01*
X137985714Y-106884342D02*
X137938095Y-106979580D01*
X137938095Y-106979580D02*
X137890476Y-107027200D01*
X137890476Y-107027200D02*
X137795238Y-107074819D01*
X137795238Y-107074819D02*
X137509524Y-107074819D01*
X137509524Y-107074819D02*
X137414286Y-107027200D01*
X137414286Y-107027200D02*
X137366667Y-106979580D01*
X153533333Y-115404819D02*
X153200000Y-114928628D01*
X152961905Y-115404819D02*
X152961905Y-114404819D01*
X152961905Y-114404819D02*
X153342857Y-114404819D01*
X153342857Y-114404819D02*
X153438095Y-114452438D01*
X153438095Y-114452438D02*
X153485714Y-114500057D01*
X153485714Y-114500057D02*
X153533333Y-114595295D01*
X153533333Y-114595295D02*
X153533333Y-114738152D01*
X153533333Y-114738152D02*
X153485714Y-114833390D01*
X153485714Y-114833390D02*
X153438095Y-114881009D01*
X153438095Y-114881009D02*
X153342857Y-114928628D01*
X153342857Y-114928628D02*
X152961905Y-114928628D01*
X154009524Y-115404819D02*
X154200000Y-115404819D01*
X154200000Y-115404819D02*
X154295238Y-115357200D01*
X154295238Y-115357200D02*
X154342857Y-115309580D01*
X154342857Y-115309580D02*
X154438095Y-115166723D01*
X154438095Y-115166723D02*
X154485714Y-114976247D01*
X154485714Y-114976247D02*
X154485714Y-114595295D01*
X154485714Y-114595295D02*
X154438095Y-114500057D01*
X154438095Y-114500057D02*
X154390476Y-114452438D01*
X154390476Y-114452438D02*
X154295238Y-114404819D01*
X154295238Y-114404819D02*
X154104762Y-114404819D01*
X154104762Y-114404819D02*
X154009524Y-114452438D01*
X154009524Y-114452438D02*
X153961905Y-114500057D01*
X153961905Y-114500057D02*
X153914286Y-114595295D01*
X153914286Y-114595295D02*
X153914286Y-114833390D01*
X153914286Y-114833390D02*
X153961905Y-114928628D01*
X153961905Y-114928628D02*
X154009524Y-114976247D01*
X154009524Y-114976247D02*
X154104762Y-115023866D01*
X154104762Y-115023866D02*
X154295238Y-115023866D01*
X154295238Y-115023866D02*
X154390476Y-114976247D01*
X154390476Y-114976247D02*
X154438095Y-114928628D01*
X154438095Y-114928628D02*
X154485714Y-114833390D01*
X131533333Y-115404819D02*
X131200000Y-114928628D01*
X130961905Y-115404819D02*
X130961905Y-114404819D01*
X130961905Y-114404819D02*
X131342857Y-114404819D01*
X131342857Y-114404819D02*
X131438095Y-114452438D01*
X131438095Y-114452438D02*
X131485714Y-114500057D01*
X131485714Y-114500057D02*
X131533333Y-114595295D01*
X131533333Y-114595295D02*
X131533333Y-114738152D01*
X131533333Y-114738152D02*
X131485714Y-114833390D01*
X131485714Y-114833390D02*
X131438095Y-114881009D01*
X131438095Y-114881009D02*
X131342857Y-114928628D01*
X131342857Y-114928628D02*
X130961905Y-114928628D01*
X132438095Y-114404819D02*
X131961905Y-114404819D01*
X131961905Y-114404819D02*
X131914286Y-114881009D01*
X131914286Y-114881009D02*
X131961905Y-114833390D01*
X131961905Y-114833390D02*
X132057143Y-114785771D01*
X132057143Y-114785771D02*
X132295238Y-114785771D01*
X132295238Y-114785771D02*
X132390476Y-114833390D01*
X132390476Y-114833390D02*
X132438095Y-114881009D01*
X132438095Y-114881009D02*
X132485714Y-114976247D01*
X132485714Y-114976247D02*
X132485714Y-115214342D01*
X132485714Y-115214342D02*
X132438095Y-115309580D01*
X132438095Y-115309580D02*
X132390476Y-115357200D01*
X132390476Y-115357200D02*
X132295238Y-115404819D01*
X132295238Y-115404819D02*
X132057143Y-115404819D01*
X132057143Y-115404819D02*
X131961905Y-115357200D01*
X131961905Y-115357200D02*
X131914286Y-115309580D01*
X191354819Y-114580952D02*
X190354819Y-114580952D01*
X190354819Y-114580952D02*
X190354819Y-114200000D01*
X190354819Y-114200000D02*
X190402438Y-114104762D01*
X190402438Y-114104762D02*
X190450057Y-114057143D01*
X190450057Y-114057143D02*
X190545295Y-114009524D01*
X190545295Y-114009524D02*
X190688152Y-114009524D01*
X190688152Y-114009524D02*
X190783390Y-114057143D01*
X190783390Y-114057143D02*
X190831009Y-114104762D01*
X190831009Y-114104762D02*
X190878628Y-114200000D01*
X190878628Y-114200000D02*
X190878628Y-114580952D01*
X191354819Y-113152381D02*
X190831009Y-113152381D01*
X190831009Y-113152381D02*
X190735771Y-113200000D01*
X190735771Y-113200000D02*
X190688152Y-113295238D01*
X190688152Y-113295238D02*
X190688152Y-113485714D01*
X190688152Y-113485714D02*
X190735771Y-113580952D01*
X191307200Y-113152381D02*
X191354819Y-113247619D01*
X191354819Y-113247619D02*
X191354819Y-113485714D01*
X191354819Y-113485714D02*
X191307200Y-113580952D01*
X191307200Y-113580952D02*
X191211961Y-113628571D01*
X191211961Y-113628571D02*
X191116723Y-113628571D01*
X191116723Y-113628571D02*
X191021485Y-113580952D01*
X191021485Y-113580952D02*
X190973866Y-113485714D01*
X190973866Y-113485714D02*
X190973866Y-113247619D01*
X190973866Y-113247619D02*
X190926247Y-113152381D01*
X190688152Y-112819047D02*
X190688152Y-112438095D01*
X190354819Y-112676190D02*
X191211961Y-112676190D01*
X191211961Y-112676190D02*
X191307200Y-112628571D01*
X191307200Y-112628571D02*
X191354819Y-112533333D01*
X191354819Y-112533333D02*
X191354819Y-112438095D01*
X191354819Y-112104761D02*
X190354819Y-112104761D01*
X191354819Y-111676190D02*
X190831009Y-111676190D01*
X190831009Y-111676190D02*
X190735771Y-111723809D01*
X190735771Y-111723809D02*
X190688152Y-111819047D01*
X190688152Y-111819047D02*
X190688152Y-111961904D01*
X190688152Y-111961904D02*
X190735771Y-112057142D01*
X190735771Y-112057142D02*
X190783390Y-112104761D01*
X190354819Y-111342856D02*
X190354819Y-110771428D01*
X191354819Y-111057142D02*
X190354819Y-111057142D01*
X191354819Y-110295237D02*
X191307200Y-110390475D01*
X191307200Y-110390475D02*
X191259580Y-110438094D01*
X191259580Y-110438094D02*
X191164342Y-110485713D01*
X191164342Y-110485713D02*
X190878628Y-110485713D01*
X190878628Y-110485713D02*
X190783390Y-110438094D01*
X190783390Y-110438094D02*
X190735771Y-110390475D01*
X190735771Y-110390475D02*
X190688152Y-110295237D01*
X190688152Y-110295237D02*
X190688152Y-110152380D01*
X190688152Y-110152380D02*
X190735771Y-110057142D01*
X190735771Y-110057142D02*
X190783390Y-110009523D01*
X190783390Y-110009523D02*
X190878628Y-109961904D01*
X190878628Y-109961904D02*
X191164342Y-109961904D01*
X191164342Y-109961904D02*
X191259580Y-110009523D01*
X191259580Y-110009523D02*
X191307200Y-110057142D01*
X191307200Y-110057142D02*
X191354819Y-110152380D01*
X191354819Y-110152380D02*
X191354819Y-110295237D01*
X190354819Y-109676189D02*
X191354819Y-109342856D01*
X191354819Y-109342856D02*
X190354819Y-109009523D01*
X191354819Y-108676189D02*
X190688152Y-108676189D01*
X190354819Y-108676189D02*
X190402438Y-108723808D01*
X190402438Y-108723808D02*
X190450057Y-108676189D01*
X190450057Y-108676189D02*
X190402438Y-108628570D01*
X190402438Y-108628570D02*
X190354819Y-108676189D01*
X190354819Y-108676189D02*
X190450057Y-108676189D01*
X190688152Y-108199999D02*
X191354819Y-108199999D01*
X190783390Y-108199999D02*
X190735771Y-108152380D01*
X190735771Y-108152380D02*
X190688152Y-108057142D01*
X190688152Y-108057142D02*
X190688152Y-107914285D01*
X190688152Y-107914285D02*
X190735771Y-107819047D01*
X190735771Y-107819047D02*
X190831009Y-107771428D01*
X190831009Y-107771428D02*
X191354819Y-107771428D01*
X191354819Y-106771428D02*
X191354819Y-107342856D01*
X191354819Y-107057142D02*
X190354819Y-107057142D01*
X190354819Y-107057142D02*
X190497676Y-107152380D01*
X190497676Y-107152380D02*
X190592914Y-107247618D01*
X190592914Y-107247618D02*
X190640533Y-107342856D01*
X159033333Y-106979580D02*
X158985714Y-107027200D01*
X158985714Y-107027200D02*
X158842857Y-107074819D01*
X158842857Y-107074819D02*
X158747619Y-107074819D01*
X158747619Y-107074819D02*
X158604762Y-107027200D01*
X158604762Y-107027200D02*
X158509524Y-106931961D01*
X158509524Y-106931961D02*
X158461905Y-106836723D01*
X158461905Y-106836723D02*
X158414286Y-106646247D01*
X158414286Y-106646247D02*
X158414286Y-106503390D01*
X158414286Y-106503390D02*
X158461905Y-106312914D01*
X158461905Y-106312914D02*
X158509524Y-106217676D01*
X158509524Y-106217676D02*
X158604762Y-106122438D01*
X158604762Y-106122438D02*
X158747619Y-106074819D01*
X158747619Y-106074819D02*
X158842857Y-106074819D01*
X158842857Y-106074819D02*
X158985714Y-106122438D01*
X158985714Y-106122438D02*
X159033333Y-106170057D01*
X159604762Y-106503390D02*
X159509524Y-106455771D01*
X159509524Y-106455771D02*
X159461905Y-106408152D01*
X159461905Y-106408152D02*
X159414286Y-106312914D01*
X159414286Y-106312914D02*
X159414286Y-106265295D01*
X159414286Y-106265295D02*
X159461905Y-106170057D01*
X159461905Y-106170057D02*
X159509524Y-106122438D01*
X159509524Y-106122438D02*
X159604762Y-106074819D01*
X159604762Y-106074819D02*
X159795238Y-106074819D01*
X159795238Y-106074819D02*
X159890476Y-106122438D01*
X159890476Y-106122438D02*
X159938095Y-106170057D01*
X159938095Y-106170057D02*
X159985714Y-106265295D01*
X159985714Y-106265295D02*
X159985714Y-106312914D01*
X159985714Y-106312914D02*
X159938095Y-106408152D01*
X159938095Y-106408152D02*
X159890476Y-106455771D01*
X159890476Y-106455771D02*
X159795238Y-106503390D01*
X159795238Y-106503390D02*
X159604762Y-106503390D01*
X159604762Y-106503390D02*
X159509524Y-106551009D01*
X159509524Y-106551009D02*
X159461905Y-106598628D01*
X159461905Y-106598628D02*
X159414286Y-106693866D01*
X159414286Y-106693866D02*
X159414286Y-106884342D01*
X159414286Y-106884342D02*
X159461905Y-106979580D01*
X159461905Y-106979580D02*
X159509524Y-107027200D01*
X159509524Y-107027200D02*
X159604762Y-107074819D01*
X159604762Y-107074819D02*
X159795238Y-107074819D01*
X159795238Y-107074819D02*
X159890476Y-107027200D01*
X159890476Y-107027200D02*
X159938095Y-106979580D01*
X159938095Y-106979580D02*
X159985714Y-106884342D01*
X159985714Y-106884342D02*
X159985714Y-106693866D01*
X159985714Y-106693866D02*
X159938095Y-106598628D01*
X159938095Y-106598628D02*
X159890476Y-106551009D01*
X159890476Y-106551009D02*
X159795238Y-106503390D01*
X137033333Y-115404819D02*
X136700000Y-114928628D01*
X136461905Y-115404819D02*
X136461905Y-114404819D01*
X136461905Y-114404819D02*
X136842857Y-114404819D01*
X136842857Y-114404819D02*
X136938095Y-114452438D01*
X136938095Y-114452438D02*
X136985714Y-114500057D01*
X136985714Y-114500057D02*
X137033333Y-114595295D01*
X137033333Y-114595295D02*
X137033333Y-114738152D01*
X137033333Y-114738152D02*
X136985714Y-114833390D01*
X136985714Y-114833390D02*
X136938095Y-114881009D01*
X136938095Y-114881009D02*
X136842857Y-114928628D01*
X136842857Y-114928628D02*
X136461905Y-114928628D01*
X137366667Y-114404819D02*
X137985714Y-114404819D01*
X137985714Y-114404819D02*
X137652381Y-114785771D01*
X137652381Y-114785771D02*
X137795238Y-114785771D01*
X137795238Y-114785771D02*
X137890476Y-114833390D01*
X137890476Y-114833390D02*
X137938095Y-114881009D01*
X137938095Y-114881009D02*
X137985714Y-114976247D01*
X137985714Y-114976247D02*
X137985714Y-115214342D01*
X137985714Y-115214342D02*
X137938095Y-115309580D01*
X137938095Y-115309580D02*
X137890476Y-115357200D01*
X137890476Y-115357200D02*
X137795238Y-115404819D01*
X137795238Y-115404819D02*
X137509524Y-115404819D01*
X137509524Y-115404819D02*
X137414286Y-115357200D01*
X137414286Y-115357200D02*
X137366667Y-115309580D01*
X128333332Y-131454819D02*
X127857142Y-131454819D01*
X127857142Y-131454819D02*
X127857142Y-130454819D01*
X129047618Y-131407200D02*
X128952380Y-131454819D01*
X128952380Y-131454819D02*
X128761904Y-131454819D01*
X128761904Y-131454819D02*
X128666666Y-131407200D01*
X128666666Y-131407200D02*
X128619047Y-131311961D01*
X128619047Y-131311961D02*
X128619047Y-130931009D01*
X128619047Y-130931009D02*
X128666666Y-130835771D01*
X128666666Y-130835771D02*
X128761904Y-130788152D01*
X128761904Y-130788152D02*
X128952380Y-130788152D01*
X128952380Y-130788152D02*
X129047618Y-130835771D01*
X129047618Y-130835771D02*
X129095237Y-130931009D01*
X129095237Y-130931009D02*
X129095237Y-131026247D01*
X129095237Y-131026247D02*
X128619047Y-131121485D01*
X129380952Y-130788152D02*
X129761904Y-130788152D01*
X129523809Y-131454819D02*
X129523809Y-130597676D01*
X129523809Y-130597676D02*
X129571428Y-130502438D01*
X129571428Y-130502438D02*
X129666666Y-130454819D01*
X129666666Y-130454819D02*
X129761904Y-130454819D01*
X129952381Y-130788152D02*
X130333333Y-130788152D01*
X130095238Y-130454819D02*
X130095238Y-131311961D01*
X130095238Y-131311961D02*
X130142857Y-131407200D01*
X130142857Y-131407200D02*
X130238095Y-131454819D01*
X130238095Y-131454819D02*
X130333333Y-131454819D01*
X131190476Y-131454819D02*
X130619048Y-131454819D01*
X130904762Y-131454819D02*
X130904762Y-130454819D01*
X130904762Y-130454819D02*
X130809524Y-130597676D01*
X130809524Y-130597676D02*
X130714286Y-130692914D01*
X130714286Y-130692914D02*
X130619048Y-130740533D01*
X153533333Y-106979580D02*
X153485714Y-107027200D01*
X153485714Y-107027200D02*
X153342857Y-107074819D01*
X153342857Y-107074819D02*
X153247619Y-107074819D01*
X153247619Y-107074819D02*
X153104762Y-107027200D01*
X153104762Y-107027200D02*
X153009524Y-106931961D01*
X153009524Y-106931961D02*
X152961905Y-106836723D01*
X152961905Y-106836723D02*
X152914286Y-106646247D01*
X152914286Y-106646247D02*
X152914286Y-106503390D01*
X152914286Y-106503390D02*
X152961905Y-106312914D01*
X152961905Y-106312914D02*
X153009524Y-106217676D01*
X153009524Y-106217676D02*
X153104762Y-106122438D01*
X153104762Y-106122438D02*
X153247619Y-106074819D01*
X153247619Y-106074819D02*
X153342857Y-106074819D01*
X153342857Y-106074819D02*
X153485714Y-106122438D01*
X153485714Y-106122438D02*
X153533333Y-106170057D01*
X154009524Y-107074819D02*
X154200000Y-107074819D01*
X154200000Y-107074819D02*
X154295238Y-107027200D01*
X154295238Y-107027200D02*
X154342857Y-106979580D01*
X154342857Y-106979580D02*
X154438095Y-106836723D01*
X154438095Y-106836723D02*
X154485714Y-106646247D01*
X154485714Y-106646247D02*
X154485714Y-106265295D01*
X154485714Y-106265295D02*
X154438095Y-106170057D01*
X154438095Y-106170057D02*
X154390476Y-106122438D01*
X154390476Y-106122438D02*
X154295238Y-106074819D01*
X154295238Y-106074819D02*
X154104762Y-106074819D01*
X154104762Y-106074819D02*
X154009524Y-106122438D01*
X154009524Y-106122438D02*
X153961905Y-106170057D01*
X153961905Y-106170057D02*
X153914286Y-106265295D01*
X153914286Y-106265295D02*
X153914286Y-106503390D01*
X153914286Y-106503390D02*
X153961905Y-106598628D01*
X153961905Y-106598628D02*
X154009524Y-106646247D01*
X154009524Y-106646247D02*
X154104762Y-106693866D01*
X154104762Y-106693866D02*
X154295238Y-106693866D01*
X154295238Y-106693866D02*
X154390476Y-106646247D01*
X154390476Y-106646247D02*
X154438095Y-106598628D01*
X154438095Y-106598628D02*
X154485714Y-106503390D01*
X142533333Y-106979580D02*
X142485714Y-107027200D01*
X142485714Y-107027200D02*
X142342857Y-107074819D01*
X142342857Y-107074819D02*
X142247619Y-107074819D01*
X142247619Y-107074819D02*
X142104762Y-107027200D01*
X142104762Y-107027200D02*
X142009524Y-106931961D01*
X142009524Y-106931961D02*
X141961905Y-106836723D01*
X141961905Y-106836723D02*
X141914286Y-106646247D01*
X141914286Y-106646247D02*
X141914286Y-106503390D01*
X141914286Y-106503390D02*
X141961905Y-106312914D01*
X141961905Y-106312914D02*
X142009524Y-106217676D01*
X142009524Y-106217676D02*
X142104762Y-106122438D01*
X142104762Y-106122438D02*
X142247619Y-106074819D01*
X142247619Y-106074819D02*
X142342857Y-106074819D01*
X142342857Y-106074819D02*
X142485714Y-106122438D01*
X142485714Y-106122438D02*
X142533333Y-106170057D01*
X143390476Y-106408152D02*
X143390476Y-107074819D01*
X143152381Y-106027200D02*
X142914286Y-106741485D01*
X142914286Y-106741485D02*
X143533333Y-106741485D01*
X204833333Y-97044819D02*
X204357143Y-97044819D01*
X204357143Y-97044819D02*
X204357143Y-96044819D01*
X205738095Y-96949580D02*
X205690476Y-96997200D01*
X205690476Y-96997200D02*
X205547619Y-97044819D01*
X205547619Y-97044819D02*
X205452381Y-97044819D01*
X205452381Y-97044819D02*
X205309524Y-96997200D01*
X205309524Y-96997200D02*
X205214286Y-96901961D01*
X205214286Y-96901961D02*
X205166667Y-96806723D01*
X205166667Y-96806723D02*
X205119048Y-96616247D01*
X205119048Y-96616247D02*
X205119048Y-96473390D01*
X205119048Y-96473390D02*
X205166667Y-96282914D01*
X205166667Y-96282914D02*
X205214286Y-96187676D01*
X205214286Y-96187676D02*
X205309524Y-96092438D01*
X205309524Y-96092438D02*
X205452381Y-96044819D01*
X205452381Y-96044819D02*
X205547619Y-96044819D01*
X205547619Y-96044819D02*
X205690476Y-96092438D01*
X205690476Y-96092438D02*
X205738095Y-96140057D01*
X206166667Y-97044819D02*
X206166667Y-96044819D01*
X206166667Y-96044819D02*
X206404762Y-96044819D01*
X206404762Y-96044819D02*
X206547619Y-96092438D01*
X206547619Y-96092438D02*
X206642857Y-96187676D01*
X206642857Y-96187676D02*
X206690476Y-96282914D01*
X206690476Y-96282914D02*
X206738095Y-96473390D01*
X206738095Y-96473390D02*
X206738095Y-96616247D01*
X206738095Y-96616247D02*
X206690476Y-96806723D01*
X206690476Y-96806723D02*
X206642857Y-96901961D01*
X206642857Y-96901961D02*
X206547619Y-96997200D01*
X206547619Y-96997200D02*
X206404762Y-97044819D01*
X206404762Y-97044819D02*
X206166667Y-97044819D01*
X207690476Y-97044819D02*
X207119048Y-97044819D01*
X207404762Y-97044819D02*
X207404762Y-96044819D01*
X207404762Y-96044819D02*
X207309524Y-96187676D01*
X207309524Y-96187676D02*
X207214286Y-96282914D01*
X207214286Y-96282914D02*
X207119048Y-96330533D01*
X142533333Y-115404819D02*
X142200000Y-114928628D01*
X141961905Y-115404819D02*
X141961905Y-114404819D01*
X141961905Y-114404819D02*
X142342857Y-114404819D01*
X142342857Y-114404819D02*
X142438095Y-114452438D01*
X142438095Y-114452438D02*
X142485714Y-114500057D01*
X142485714Y-114500057D02*
X142533333Y-114595295D01*
X142533333Y-114595295D02*
X142533333Y-114738152D01*
X142533333Y-114738152D02*
X142485714Y-114833390D01*
X142485714Y-114833390D02*
X142438095Y-114881009D01*
X142438095Y-114881009D02*
X142342857Y-114928628D01*
X142342857Y-114928628D02*
X141961905Y-114928628D01*
X143390476Y-114738152D02*
X143390476Y-115404819D01*
X143152381Y-114357200D02*
X142914286Y-115071485D01*
X142914286Y-115071485D02*
X143533333Y-115071485D01*
X201354819Y-114985714D02*
X200354819Y-114985714D01*
X200354819Y-114985714D02*
X200354819Y-114604762D01*
X200354819Y-114604762D02*
X200402438Y-114509524D01*
X200402438Y-114509524D02*
X200450057Y-114461905D01*
X200450057Y-114461905D02*
X200545295Y-114414286D01*
X200545295Y-114414286D02*
X200688152Y-114414286D01*
X200688152Y-114414286D02*
X200783390Y-114461905D01*
X200783390Y-114461905D02*
X200831009Y-114509524D01*
X200831009Y-114509524D02*
X200878628Y-114604762D01*
X200878628Y-114604762D02*
X200878628Y-114985714D01*
X201354819Y-113557143D02*
X200831009Y-113557143D01*
X200831009Y-113557143D02*
X200735771Y-113604762D01*
X200735771Y-113604762D02*
X200688152Y-113700000D01*
X200688152Y-113700000D02*
X200688152Y-113890476D01*
X200688152Y-113890476D02*
X200735771Y-113985714D01*
X201307200Y-113557143D02*
X201354819Y-113652381D01*
X201354819Y-113652381D02*
X201354819Y-113890476D01*
X201354819Y-113890476D02*
X201307200Y-113985714D01*
X201307200Y-113985714D02*
X201211961Y-114033333D01*
X201211961Y-114033333D02*
X201116723Y-114033333D01*
X201116723Y-114033333D02*
X201021485Y-113985714D01*
X201021485Y-113985714D02*
X200973866Y-113890476D01*
X200973866Y-113890476D02*
X200973866Y-113652381D01*
X200973866Y-113652381D02*
X200926247Y-113557143D01*
X200688152Y-113223809D02*
X200688152Y-112842857D01*
X200354819Y-113080952D02*
X201211961Y-113080952D01*
X201211961Y-113080952D02*
X201307200Y-113033333D01*
X201307200Y-113033333D02*
X201354819Y-112938095D01*
X201354819Y-112938095D02*
X201354819Y-112842857D01*
X201354819Y-112509523D02*
X200354819Y-112509523D01*
X201354819Y-112080952D02*
X200831009Y-112080952D01*
X200831009Y-112080952D02*
X200735771Y-112128571D01*
X200735771Y-112128571D02*
X200688152Y-112223809D01*
X200688152Y-112223809D02*
X200688152Y-112366666D01*
X200688152Y-112366666D02*
X200735771Y-112461904D01*
X200735771Y-112461904D02*
X200783390Y-112509523D01*
X200354819Y-111747618D02*
X200354819Y-111176190D01*
X201354819Y-111461904D02*
X200354819Y-111461904D01*
X201354819Y-110699999D02*
X201307200Y-110795237D01*
X201307200Y-110795237D02*
X201259580Y-110842856D01*
X201259580Y-110842856D02*
X201164342Y-110890475D01*
X201164342Y-110890475D02*
X200878628Y-110890475D01*
X200878628Y-110890475D02*
X200783390Y-110842856D01*
X200783390Y-110842856D02*
X200735771Y-110795237D01*
X200735771Y-110795237D02*
X200688152Y-110699999D01*
X200688152Y-110699999D02*
X200688152Y-110557142D01*
X200688152Y-110557142D02*
X200735771Y-110461904D01*
X200735771Y-110461904D02*
X200783390Y-110414285D01*
X200783390Y-110414285D02*
X200878628Y-110366666D01*
X200878628Y-110366666D02*
X201164342Y-110366666D01*
X201164342Y-110366666D02*
X201259580Y-110414285D01*
X201259580Y-110414285D02*
X201307200Y-110461904D01*
X201307200Y-110461904D02*
X201354819Y-110557142D01*
X201354819Y-110557142D02*
X201354819Y-110699999D01*
X200402438Y-109414285D02*
X200354819Y-109509523D01*
X200354819Y-109509523D02*
X200354819Y-109652380D01*
X200354819Y-109652380D02*
X200402438Y-109795237D01*
X200402438Y-109795237D02*
X200497676Y-109890475D01*
X200497676Y-109890475D02*
X200592914Y-109938094D01*
X200592914Y-109938094D02*
X200783390Y-109985713D01*
X200783390Y-109985713D02*
X200926247Y-109985713D01*
X200926247Y-109985713D02*
X201116723Y-109938094D01*
X201116723Y-109938094D02*
X201211961Y-109890475D01*
X201211961Y-109890475D02*
X201307200Y-109795237D01*
X201307200Y-109795237D02*
X201354819Y-109652380D01*
X201354819Y-109652380D02*
X201354819Y-109557142D01*
X201354819Y-109557142D02*
X201307200Y-109414285D01*
X201307200Y-109414285D02*
X201259580Y-109366666D01*
X201259580Y-109366666D02*
X200926247Y-109366666D01*
X200926247Y-109366666D02*
X200926247Y-109557142D01*
X201354819Y-108938094D02*
X200354819Y-108938094D01*
X200354819Y-108938094D02*
X201354819Y-108366666D01*
X201354819Y-108366666D02*
X200354819Y-108366666D01*
X201354819Y-107890475D02*
X200354819Y-107890475D01*
X200354819Y-107890475D02*
X200354819Y-107652380D01*
X200354819Y-107652380D02*
X200402438Y-107509523D01*
X200402438Y-107509523D02*
X200497676Y-107414285D01*
X200497676Y-107414285D02*
X200592914Y-107366666D01*
X200592914Y-107366666D02*
X200783390Y-107319047D01*
X200783390Y-107319047D02*
X200926247Y-107319047D01*
X200926247Y-107319047D02*
X201116723Y-107366666D01*
X201116723Y-107366666D02*
X201211961Y-107414285D01*
X201211961Y-107414285D02*
X201307200Y-107509523D01*
X201307200Y-107509523D02*
X201354819Y-107652380D01*
X201354819Y-107652380D02*
X201354819Y-107890475D01*
X201354819Y-106366666D02*
X201354819Y-106938094D01*
X201354819Y-106652380D02*
X200354819Y-106652380D01*
X200354819Y-106652380D02*
X200497676Y-106747618D01*
X200497676Y-106747618D02*
X200592914Y-106842856D01*
X200592914Y-106842856D02*
X200640533Y-106938094D01*
X159033333Y-115404819D02*
X158700000Y-114928628D01*
X158461905Y-115404819D02*
X158461905Y-114404819D01*
X158461905Y-114404819D02*
X158842857Y-114404819D01*
X158842857Y-114404819D02*
X158938095Y-114452438D01*
X158938095Y-114452438D02*
X158985714Y-114500057D01*
X158985714Y-114500057D02*
X159033333Y-114595295D01*
X159033333Y-114595295D02*
X159033333Y-114738152D01*
X159033333Y-114738152D02*
X158985714Y-114833390D01*
X158985714Y-114833390D02*
X158938095Y-114881009D01*
X158938095Y-114881009D02*
X158842857Y-114928628D01*
X158842857Y-114928628D02*
X158461905Y-114928628D01*
X159604762Y-114833390D02*
X159509524Y-114785771D01*
X159509524Y-114785771D02*
X159461905Y-114738152D01*
X159461905Y-114738152D02*
X159414286Y-114642914D01*
X159414286Y-114642914D02*
X159414286Y-114595295D01*
X159414286Y-114595295D02*
X159461905Y-114500057D01*
X159461905Y-114500057D02*
X159509524Y-114452438D01*
X159509524Y-114452438D02*
X159604762Y-114404819D01*
X159604762Y-114404819D02*
X159795238Y-114404819D01*
X159795238Y-114404819D02*
X159890476Y-114452438D01*
X159890476Y-114452438D02*
X159938095Y-114500057D01*
X159938095Y-114500057D02*
X159985714Y-114595295D01*
X159985714Y-114595295D02*
X159985714Y-114642914D01*
X159985714Y-114642914D02*
X159938095Y-114738152D01*
X159938095Y-114738152D02*
X159890476Y-114785771D01*
X159890476Y-114785771D02*
X159795238Y-114833390D01*
X159795238Y-114833390D02*
X159604762Y-114833390D01*
X159604762Y-114833390D02*
X159509524Y-114881009D01*
X159509524Y-114881009D02*
X159461905Y-114928628D01*
X159461905Y-114928628D02*
X159414286Y-115023866D01*
X159414286Y-115023866D02*
X159414286Y-115214342D01*
X159414286Y-115214342D02*
X159461905Y-115309580D01*
X159461905Y-115309580D02*
X159509524Y-115357200D01*
X159509524Y-115357200D02*
X159604762Y-115404819D01*
X159604762Y-115404819D02*
X159795238Y-115404819D01*
X159795238Y-115404819D02*
X159890476Y-115357200D01*
X159890476Y-115357200D02*
X159938095Y-115309580D01*
X159938095Y-115309580D02*
X159985714Y-115214342D01*
X159985714Y-115214342D02*
X159985714Y-115023866D01*
X159985714Y-115023866D02*
X159938095Y-114928628D01*
X159938095Y-114928628D02*
X159890476Y-114881009D01*
X159890476Y-114881009D02*
X159795238Y-114833390D01*
X186004761Y-131407200D02*
X186147618Y-131454819D01*
X186147618Y-131454819D02*
X186385713Y-131454819D01*
X186385713Y-131454819D02*
X186480951Y-131407200D01*
X186480951Y-131407200D02*
X186528570Y-131359580D01*
X186528570Y-131359580D02*
X186576189Y-131264342D01*
X186576189Y-131264342D02*
X186576189Y-131169104D01*
X186576189Y-131169104D02*
X186528570Y-131073866D01*
X186528570Y-131073866D02*
X186480951Y-131026247D01*
X186480951Y-131026247D02*
X186385713Y-130978628D01*
X186385713Y-130978628D02*
X186195237Y-130931009D01*
X186195237Y-130931009D02*
X186099999Y-130883390D01*
X186099999Y-130883390D02*
X186052380Y-130835771D01*
X186052380Y-130835771D02*
X186004761Y-130740533D01*
X186004761Y-130740533D02*
X186004761Y-130645295D01*
X186004761Y-130645295D02*
X186052380Y-130550057D01*
X186052380Y-130550057D02*
X186099999Y-130502438D01*
X186099999Y-130502438D02*
X186195237Y-130454819D01*
X186195237Y-130454819D02*
X186433332Y-130454819D01*
X186433332Y-130454819D02*
X186576189Y-130502438D01*
X187385713Y-131407200D02*
X187290475Y-131454819D01*
X187290475Y-131454819D02*
X187099999Y-131454819D01*
X187099999Y-131454819D02*
X187004761Y-131407200D01*
X187004761Y-131407200D02*
X186957142Y-131311961D01*
X186957142Y-131311961D02*
X186957142Y-130931009D01*
X186957142Y-130931009D02*
X187004761Y-130835771D01*
X187004761Y-130835771D02*
X187099999Y-130788152D01*
X187099999Y-130788152D02*
X187290475Y-130788152D01*
X187290475Y-130788152D02*
X187385713Y-130835771D01*
X187385713Y-130835771D02*
X187433332Y-130931009D01*
X187433332Y-130931009D02*
X187433332Y-131026247D01*
X187433332Y-131026247D02*
X186957142Y-131121485D01*
X188004761Y-131454819D02*
X187909523Y-131407200D01*
X187909523Y-131407200D02*
X187861904Y-131311961D01*
X187861904Y-131311961D02*
X187861904Y-130454819D01*
X188766666Y-131407200D02*
X188671428Y-131454819D01*
X188671428Y-131454819D02*
X188480952Y-131454819D01*
X188480952Y-131454819D02*
X188385714Y-131407200D01*
X188385714Y-131407200D02*
X188338095Y-131311961D01*
X188338095Y-131311961D02*
X188338095Y-130931009D01*
X188338095Y-130931009D02*
X188385714Y-130835771D01*
X188385714Y-130835771D02*
X188480952Y-130788152D01*
X188480952Y-130788152D02*
X188671428Y-130788152D01*
X188671428Y-130788152D02*
X188766666Y-130835771D01*
X188766666Y-130835771D02*
X188814285Y-130931009D01*
X188814285Y-130931009D02*
X188814285Y-131026247D01*
X188814285Y-131026247D02*
X188338095Y-131121485D01*
X189671428Y-131407200D02*
X189576190Y-131454819D01*
X189576190Y-131454819D02*
X189385714Y-131454819D01*
X189385714Y-131454819D02*
X189290476Y-131407200D01*
X189290476Y-131407200D02*
X189242857Y-131359580D01*
X189242857Y-131359580D02*
X189195238Y-131264342D01*
X189195238Y-131264342D02*
X189195238Y-130978628D01*
X189195238Y-130978628D02*
X189242857Y-130883390D01*
X189242857Y-130883390D02*
X189290476Y-130835771D01*
X189290476Y-130835771D02*
X189385714Y-130788152D01*
X189385714Y-130788152D02*
X189576190Y-130788152D01*
X189576190Y-130788152D02*
X189671428Y-130835771D01*
X189957143Y-130788152D02*
X190338095Y-130788152D01*
X190100000Y-130454819D02*
X190100000Y-131311961D01*
X190100000Y-131311961D02*
X190147619Y-131407200D01*
X190147619Y-131407200D02*
X190242857Y-131454819D01*
X190242857Y-131454819D02*
X190338095Y-131454819D01*
X191195238Y-131454819D02*
X190623810Y-131454819D01*
X190909524Y-131454819D02*
X190909524Y-130454819D01*
X190909524Y-130454819D02*
X190814286Y-130597676D01*
X190814286Y-130597676D02*
X190719048Y-130692914D01*
X190719048Y-130692914D02*
X190623810Y-130740533D01*
X164533333Y-115404819D02*
X164200000Y-114928628D01*
X163961905Y-115404819D02*
X163961905Y-114404819D01*
X163961905Y-114404819D02*
X164342857Y-114404819D01*
X164342857Y-114404819D02*
X164438095Y-114452438D01*
X164438095Y-114452438D02*
X164485714Y-114500057D01*
X164485714Y-114500057D02*
X164533333Y-114595295D01*
X164533333Y-114595295D02*
X164533333Y-114738152D01*
X164533333Y-114738152D02*
X164485714Y-114833390D01*
X164485714Y-114833390D02*
X164438095Y-114881009D01*
X164438095Y-114881009D02*
X164342857Y-114928628D01*
X164342857Y-114928628D02*
X163961905Y-114928628D01*
X164866667Y-114404819D02*
X165533333Y-114404819D01*
X165533333Y-114404819D02*
X165104762Y-115404819D01*
X148033333Y-106979580D02*
X147985714Y-107027200D01*
X147985714Y-107027200D02*
X147842857Y-107074819D01*
X147842857Y-107074819D02*
X147747619Y-107074819D01*
X147747619Y-107074819D02*
X147604762Y-107027200D01*
X147604762Y-107027200D02*
X147509524Y-106931961D01*
X147509524Y-106931961D02*
X147461905Y-106836723D01*
X147461905Y-106836723D02*
X147414286Y-106646247D01*
X147414286Y-106646247D02*
X147414286Y-106503390D01*
X147414286Y-106503390D02*
X147461905Y-106312914D01*
X147461905Y-106312914D02*
X147509524Y-106217676D01*
X147509524Y-106217676D02*
X147604762Y-106122438D01*
X147604762Y-106122438D02*
X147747619Y-106074819D01*
X147747619Y-106074819D02*
X147842857Y-106074819D01*
X147842857Y-106074819D02*
X147985714Y-106122438D01*
X147985714Y-106122438D02*
X148033333Y-106170057D01*
X148890476Y-106074819D02*
X148700000Y-106074819D01*
X148700000Y-106074819D02*
X148604762Y-106122438D01*
X148604762Y-106122438D02*
X148557143Y-106170057D01*
X148557143Y-106170057D02*
X148461905Y-106312914D01*
X148461905Y-106312914D02*
X148414286Y-106503390D01*
X148414286Y-106503390D02*
X148414286Y-106884342D01*
X148414286Y-106884342D02*
X148461905Y-106979580D01*
X148461905Y-106979580D02*
X148509524Y-107027200D01*
X148509524Y-107027200D02*
X148604762Y-107074819D01*
X148604762Y-107074819D02*
X148795238Y-107074819D01*
X148795238Y-107074819D02*
X148890476Y-107027200D01*
X148890476Y-107027200D02*
X148938095Y-106979580D01*
X148938095Y-106979580D02*
X148985714Y-106884342D01*
X148985714Y-106884342D02*
X148985714Y-106646247D01*
X148985714Y-106646247D02*
X148938095Y-106551009D01*
X148938095Y-106551009D02*
X148890476Y-106503390D01*
X148890476Y-106503390D02*
X148795238Y-106455771D01*
X148795238Y-106455771D02*
X148604762Y-106455771D01*
X148604762Y-106455771D02*
X148509524Y-106503390D01*
X148509524Y-106503390D02*
X148461905Y-106551009D01*
X148461905Y-106551009D02*
X148414286Y-106646247D01*
X148033333Y-115404819D02*
X147700000Y-114928628D01*
X147461905Y-115404819D02*
X147461905Y-114404819D01*
X147461905Y-114404819D02*
X147842857Y-114404819D01*
X147842857Y-114404819D02*
X147938095Y-114452438D01*
X147938095Y-114452438D02*
X147985714Y-114500057D01*
X147985714Y-114500057D02*
X148033333Y-114595295D01*
X148033333Y-114595295D02*
X148033333Y-114738152D01*
X148033333Y-114738152D02*
X147985714Y-114833390D01*
X147985714Y-114833390D02*
X147938095Y-114881009D01*
X147938095Y-114881009D02*
X147842857Y-114928628D01*
X147842857Y-114928628D02*
X147461905Y-114928628D01*
X148890476Y-114404819D02*
X148700000Y-114404819D01*
X148700000Y-114404819D02*
X148604762Y-114452438D01*
X148604762Y-114452438D02*
X148557143Y-114500057D01*
X148557143Y-114500057D02*
X148461905Y-114642914D01*
X148461905Y-114642914D02*
X148414286Y-114833390D01*
X148414286Y-114833390D02*
X148414286Y-115214342D01*
X148414286Y-115214342D02*
X148461905Y-115309580D01*
X148461905Y-115309580D02*
X148509524Y-115357200D01*
X148509524Y-115357200D02*
X148604762Y-115404819D01*
X148604762Y-115404819D02*
X148795238Y-115404819D01*
X148795238Y-115404819D02*
X148890476Y-115357200D01*
X148890476Y-115357200D02*
X148938095Y-115309580D01*
X148938095Y-115309580D02*
X148985714Y-115214342D01*
X148985714Y-115214342D02*
X148985714Y-114976247D01*
X148985714Y-114976247D02*
X148938095Y-114881009D01*
X148938095Y-114881009D02*
X148890476Y-114833390D01*
X148890476Y-114833390D02*
X148795238Y-114785771D01*
X148795238Y-114785771D02*
X148604762Y-114785771D01*
X148604762Y-114785771D02*
X148509524Y-114833390D01*
X148509524Y-114833390D02*
X148461905Y-114881009D01*
X148461905Y-114881009D02*
X148414286Y-114976247D01*
X202857200Y-127738094D02*
X202904819Y-127595237D01*
X202904819Y-127595237D02*
X202904819Y-127357142D01*
X202904819Y-127357142D02*
X202857200Y-127261904D01*
X202857200Y-127261904D02*
X202809580Y-127214285D01*
X202809580Y-127214285D02*
X202714342Y-127166666D01*
X202714342Y-127166666D02*
X202619104Y-127166666D01*
X202619104Y-127166666D02*
X202523866Y-127214285D01*
X202523866Y-127214285D02*
X202476247Y-127261904D01*
X202476247Y-127261904D02*
X202428628Y-127357142D01*
X202428628Y-127357142D02*
X202381009Y-127547618D01*
X202381009Y-127547618D02*
X202333390Y-127642856D01*
X202333390Y-127642856D02*
X202285771Y-127690475D01*
X202285771Y-127690475D02*
X202190533Y-127738094D01*
X202190533Y-127738094D02*
X202095295Y-127738094D01*
X202095295Y-127738094D02*
X202000057Y-127690475D01*
X202000057Y-127690475D02*
X201952438Y-127642856D01*
X201952438Y-127642856D02*
X201904819Y-127547618D01*
X201904819Y-127547618D02*
X201904819Y-127309523D01*
X201904819Y-127309523D02*
X201952438Y-127166666D01*
X202857200Y-126785713D02*
X202904819Y-126642856D01*
X202904819Y-126642856D02*
X202904819Y-126404761D01*
X202904819Y-126404761D02*
X202857200Y-126309523D01*
X202857200Y-126309523D02*
X202809580Y-126261904D01*
X202809580Y-126261904D02*
X202714342Y-126214285D01*
X202714342Y-126214285D02*
X202619104Y-126214285D01*
X202619104Y-126214285D02*
X202523866Y-126261904D01*
X202523866Y-126261904D02*
X202476247Y-126309523D01*
X202476247Y-126309523D02*
X202428628Y-126404761D01*
X202428628Y-126404761D02*
X202381009Y-126595237D01*
X202381009Y-126595237D02*
X202333390Y-126690475D01*
X202333390Y-126690475D02*
X202285771Y-126738094D01*
X202285771Y-126738094D02*
X202190533Y-126785713D01*
X202190533Y-126785713D02*
X202095295Y-126785713D01*
X202095295Y-126785713D02*
X202000057Y-126738094D01*
X202000057Y-126738094D02*
X201952438Y-126690475D01*
X201952438Y-126690475D02*
X201904819Y-126595237D01*
X201904819Y-126595237D02*
X201904819Y-126357142D01*
X201904819Y-126357142D02*
X201952438Y-126214285D01*
X202904819Y-125261904D02*
X202904819Y-125833332D01*
X202904819Y-125547618D02*
X201904819Y-125547618D01*
X201904819Y-125547618D02*
X202047676Y-125642856D01*
X202047676Y-125642856D02*
X202142914Y-125738094D01*
X202142914Y-125738094D02*
X202190533Y-125833332D01*
X170985714Y-84404819D02*
X170985714Y-83404819D01*
X170985714Y-83404819D02*
X171319047Y-84119104D01*
X171319047Y-84119104D02*
X171652380Y-83404819D01*
X171652380Y-83404819D02*
X171652380Y-84404819D01*
X172128571Y-84404819D02*
X172128571Y-83404819D01*
X172128571Y-83404819D02*
X172699999Y-84404819D01*
X172699999Y-84404819D02*
X172699999Y-83404819D01*
X173033333Y-83404819D02*
X173604761Y-83404819D01*
X173319047Y-84404819D02*
X173319047Y-83404819D01*
X174461904Y-84404819D02*
X173890476Y-84404819D01*
X174176190Y-84404819D02*
X174176190Y-83404819D01*
X174176190Y-83404819D02*
X174080952Y-83547676D01*
X174080952Y-83547676D02*
X173985714Y-83642914D01*
X173985714Y-83642914D02*
X173890476Y-83690533D01*
D11*
%TO.C,Up1*%
X137300000Y-121900000D02*
X137300000Y-122020000D01*
X137300000Y-123030000D02*
X137300000Y-124170000D01*
X137300000Y-125180000D02*
X137300000Y-125300000D01*
X137300000Y-125300000D02*
X141700000Y-125300000D01*
X141700000Y-121900000D02*
X137300000Y-121900000D01*
X141700000Y-122020000D02*
X141700000Y-121900000D01*
X141700000Y-124170000D02*
X141700000Y-123030000D01*
X141700000Y-125300000D02*
X141700000Y-125180000D01*
%TO.C,C7*%
X164438748Y-107565000D02*
X164961252Y-107565000D01*
X164438748Y-109035000D02*
X164961252Y-109035000D01*
%TO.C,Top_button1*%
X176100000Y-121900000D02*
X176100000Y-122020000D01*
X176100000Y-123030000D02*
X176100000Y-124170000D01*
X176100000Y-125180000D02*
X176100000Y-125300000D01*
X176100000Y-125300000D02*
X180500000Y-125300000D01*
X180500000Y-121900000D02*
X176100000Y-121900000D01*
X180500000Y-122020000D02*
X180500000Y-121900000D01*
X180500000Y-124170000D02*
X180500000Y-123030000D01*
X180500000Y-125300000D02*
X180500000Y-125180000D01*
%TO.C,Down1*%
X137300000Y-141900000D02*
X137300000Y-142020000D01*
X137300000Y-143030000D02*
X137300000Y-144170000D01*
X137300000Y-145180000D02*
X137300000Y-145300000D01*
X137300000Y-145300000D02*
X141700000Y-145300000D01*
X141700000Y-141900000D02*
X137300000Y-141900000D01*
X141700000Y-142020000D02*
X141700000Y-141900000D01*
X141700000Y-144170000D02*
X141700000Y-143030000D01*
X141700000Y-145300000D02*
X141700000Y-145180000D01*
%TO.C,C5*%
X131438748Y-107565000D02*
X131961252Y-107565000D01*
X131438748Y-109035000D02*
X131961252Y-109035000D01*
%TO.C,Right1*%
X147300000Y-131900000D02*
X147300000Y-132020000D01*
X147300000Y-133030000D02*
X147300000Y-134170000D01*
X147300000Y-135180000D02*
X147300000Y-135300000D01*
X147300000Y-135300000D02*
X151700000Y-135300000D01*
X151700000Y-131900000D02*
X147300000Y-131900000D01*
X151700000Y-132020000D02*
X151700000Y-131900000D01*
X151700000Y-134170000D02*
X151700000Y-133030000D01*
X151700000Y-135300000D02*
X151700000Y-135180000D01*
%TO.C,Bottom_button1*%
X176375000Y-141975000D02*
X176375000Y-142095000D01*
X176375000Y-143105000D02*
X176375000Y-144245000D01*
X176375000Y-145255000D02*
X176375000Y-145375000D01*
X176375000Y-145375000D02*
X180775000Y-145375000D01*
X180775000Y-141975000D02*
X176375000Y-141975000D01*
X180775000Y-142095000D02*
X180775000Y-141975000D01*
X180775000Y-144245000D02*
X180775000Y-143105000D01*
X180775000Y-145375000D02*
X180775000Y-145255000D01*
%TO.C,R1*%
X171965000Y-110472936D02*
X171965000Y-110927064D01*
X173435000Y-110472936D02*
X173435000Y-110927064D01*
%TO.C,R2*%
X181965000Y-110472936D02*
X181965000Y-110927064D01*
X183435000Y-110472936D02*
X183435000Y-110927064D01*
%TO.C,C3*%
X136938748Y-107565000D02*
X137461252Y-107565000D01*
X136938748Y-109035000D02*
X137461252Y-109035000D01*
%TO.C,R9*%
X153927064Y-112565000D02*
X153472936Y-112565000D01*
X153927064Y-114035000D02*
X153472936Y-114035000D01*
%TO.C,R5*%
X131927064Y-112565000D02*
X131472936Y-112565000D01*
X131927064Y-114035000D02*
X131472936Y-114035000D01*
%TO.C,PathToVin1*%
X191700000Y-111400000D02*
X191700000Y-110000000D01*
X192400000Y-109300000D02*
X193000000Y-109300000D01*
X193000000Y-112100000D02*
X192400000Y-112100000D01*
X193700000Y-110000000D02*
X193700000Y-111400000D01*
X191700000Y-110000000D02*
G75*
G02*
X192400000Y-109300000I700000J0D01*
G01*
X192400000Y-112100000D02*
G75*
G02*
X191700000Y-111400000I-1J699999D01*
G01*
X193000000Y-109300000D02*
G75*
G02*
X193700000Y-110000000I0J-700000D01*
G01*
X193700000Y-111400000D02*
G75*
G02*
X193000000Y-112100000I-699999J-1D01*
G01*
%TO.C,C8*%
X158938748Y-107565000D02*
X159461252Y-107565000D01*
X158938748Y-109035000D02*
X159461252Y-109035000D01*
%TO.C,R3*%
X137427064Y-112565000D02*
X136972936Y-112565000D01*
X137427064Y-114035000D02*
X136972936Y-114035000D01*
%TO.C,Left1*%
X127300000Y-131900000D02*
X127300000Y-132020000D01*
X127300000Y-133030000D02*
X127300000Y-134170000D01*
X127300000Y-135180000D02*
X127300000Y-135300000D01*
X127300000Y-135300000D02*
X131700000Y-135300000D01*
X131700000Y-131900000D02*
X127300000Y-131900000D01*
X131700000Y-132020000D02*
X131700000Y-131900000D01*
X131700000Y-134170000D02*
X131700000Y-133030000D01*
X131700000Y-135300000D02*
X131700000Y-135180000D01*
%TO.C,C9*%
X153438748Y-107565000D02*
X153961252Y-107565000D01*
X153438748Y-109035000D02*
X153961252Y-109035000D01*
%TO.C,C4*%
X142438748Y-107565000D02*
X142961252Y-107565000D01*
X142438748Y-109035000D02*
X142961252Y-109035000D01*
%TO.C,LCD1*%
X204670000Y-92990000D02*
X204670000Y-59910000D01*
X207330000Y-59910000D02*
X204670000Y-59910000D01*
X207330000Y-92990000D02*
X204670000Y-92990000D01*
X207330000Y-92990000D02*
X207330000Y-59910000D01*
X207330000Y-94260000D02*
X207330000Y-95590000D01*
X207330000Y-95590000D02*
X206000000Y-95590000D01*
%TO.C,R4*%
X142927064Y-112565000D02*
X142472936Y-112565000D01*
X142927064Y-114035000D02*
X142472936Y-114035000D01*
%TO.C,PathToGND1*%
X201700000Y-111400000D02*
X201700000Y-110000000D01*
X202400000Y-109300000D02*
X203000000Y-109300000D01*
X203000000Y-112100000D02*
X202400000Y-112100000D01*
X203700000Y-110000000D02*
X203700000Y-111400000D01*
X201700000Y-110000000D02*
G75*
G02*
X202400000Y-109300000I700000J0D01*
G01*
X202400000Y-112100000D02*
G75*
G02*
X201700000Y-111400000I-1J699999D01*
G01*
X203000000Y-109300000D02*
G75*
G02*
X203700000Y-110000000I0J-700000D01*
G01*
X203700000Y-111400000D02*
G75*
G02*
X203000000Y-112100000I-699999J-1D01*
G01*
%TO.C,R8*%
X159427064Y-112565000D02*
X158972936Y-112565000D01*
X159427064Y-114035000D02*
X158972936Y-114035000D01*
%TO.C,Select1*%
X186400000Y-131900000D02*
X186400000Y-132020000D01*
X186400000Y-133030000D02*
X186400000Y-134170000D01*
X186400000Y-135180000D02*
X186400000Y-135300000D01*
X186400000Y-135300000D02*
X190800000Y-135300000D01*
X190800000Y-131900000D02*
X186400000Y-131900000D01*
X190800000Y-132020000D02*
X190800000Y-131900000D01*
X190800000Y-134170000D02*
X190800000Y-133030000D01*
X190800000Y-135300000D02*
X190800000Y-135180000D01*
%TO.C,R7*%
X164927064Y-112565000D02*
X164472936Y-112565000D01*
X164927064Y-114035000D02*
X164472936Y-114035000D01*
%TO.C,C6*%
X147938748Y-107565000D02*
X148461252Y-107565000D01*
X147938748Y-109035000D02*
X148461252Y-109035000D01*
%TO.C,R6*%
X148427064Y-112565000D02*
X147972936Y-112565000D01*
X148427064Y-114035000D02*
X147972936Y-114035000D01*
%TO.C,SS1*%
X203590000Y-121890000D02*
X203590000Y-123240000D01*
X203590000Y-121890000D02*
X207410000Y-121890000D01*
X203590000Y-124760000D02*
X203590000Y-125740000D01*
X203590000Y-127260000D02*
X203590000Y-128240000D01*
X203590000Y-129760000D02*
X203590000Y-131110000D01*
X203590000Y-131110000D02*
X207410000Y-131110000D01*
X207410000Y-121890000D02*
X207410000Y-123240000D01*
X207410000Y-124760000D02*
X207410000Y-125740000D01*
X207410000Y-127260000D02*
X207410000Y-128240000D01*
X207410000Y-131110000D02*
X207410000Y-129760000D01*
%TD*%
M02*
